<?xml version="1.0" encoding="UTF-8"?>
<svg id="banner_bd_pro" xmlns="http://www.w3.org/2000/svg" version="1.1" viewBox="570 125 780 835">
  <defs>
    <style>
      .st0 {
        fill: #2b8c4d;
      }

      .st1,
      .st2 {
        fill: #fff;
      }

      .st1,
      .st3 {
        fill-rule: evenodd;
      }

      .st4 {
        stroke-width: 1.1px;
      }

      .st4,
      .st5 {
        fill: none;
        stroke: #252a32;
        stroke-miterlimit: 10;
      }

      .st5 {
        stroke-width: 1.4px;
      }

      .st6 {
        fill: #8a7500;
      }

      .st7 {
        fill: #fffef3;
      }

      .st8,
      .st3 {
        fill: #346353;
      }

      .st9 {
        fill: #7ec876;
      }
    </style>
  </defs>
  <circle class="st8" cx="970.5" cy="542.6" r="203.1" />
  <g>
    <path class="st6"
      d="M1145.7,484.3h-102.4c-29.2,0-52.8,23.6-52.8,52.8s23.6,52.8,52.8,52.8h102.4c29.2,0,52.8-23.6,52.8-52.8s-23.6-52.8-52.8-52.8Z" />
    <path class="st1"
      d="M1134.3,562.2c4.1,2.4,8.8,3.6,14.3,3.6s7.8-.7,11.1-2c3.3-1.4,6.2-3.3,8.6-5.9,2.4-2.5,4.2-5.6,5.5-9.1,1.3-3.5,1.9-7.5,1.9-11.9s-1.1-10.9-3.3-15.1c-2.2-4.3-5.4-7.6-9.4-9.9-4.1-2.4-8.8-3.6-14.3-3.6s-7.9.7-11.2,2.1c-3.3,1.3-6.2,3.3-8.6,5.8-2.4,2.5-4.2,5.5-5.5,9-1.3,3.5-1.9,7.4-1.9,11.8s1.1,10.9,3.3,15.2c2.3,4.3,5.4,7.6,9.5,10ZM1157.1,554.3c-2.3,1.5-5.2,2.3-8.5,2.3-5,0-8.9-1.7-11.7-5.2-2.7-3.5-4.1-8.3-4.1-14.4s.6-7.6,1.9-10.5c1.3-2.9,3.1-5.1,5.4-6.7,2.4-1.5,5.2-2.3,8.6-2.3,5,0,8.9,1.7,11.7,5.2,2.7,3.4,4.1,8.2,4.1,14.4s-.6,7.6-1.9,10.5c-1.3,2.9-3.1,5.2-5.4,6.7ZM1023.9,564.2c1,1,2.3,1.4,4,1.4s3.1-.5,4-1.4c.9-1,1.3-2.4,1.3-4.1v-15.8h13.9c6.2,0,10.9-1.6,14.3-4.7,3.3-3.1,5-7.4,5-12.9s-1.7-9.9-5-12.9c-3.3-3.1-8.1-4.7-14.3-4.7h-19.2c-1.7,0-3.1.5-4,1.4-1,.9-1.4,2.2-1.4,4v45.5c0,1.7.4,3.1,1.3,4.1ZM1045.5,535.8h-12.1v-18.2h12.1c3.5,0,6.1.8,7.9,2.3,1.8,1.5,2.7,3.8,2.7,6.8s-.9,5.3-2.7,6.8c-1.8,1.5-4.4,2.3-7.9,2.3ZM1073.7,564.2c1,1,2.3,1.4,4,1.4s3.1-.5,4-1.4c.9-1,1.3-2.4,1.3-4.1v-17.2h7.1c1.9,0,3.5.3,4.8.9,1.3.6,2.4,1.7,3.3,3.4l7.9,14.5c.7,1.4,1.6,2.4,2.5,3,1,.6,2.2,1,3.7,1s2.7-.3,3.5-1c.8-.7,1.2-1.6,1.3-2.7,0-1.1-.3-2.3-1-3.5l-5.6-10.5c-1.2-2.2-2.6-3.9-4.3-4.9-.8-.5-1.6-.9-2.4-1.1,1.3-.3,2.5-.7,3.6-1.2,2.9-1.4,5.1-3.3,6.6-5.8,1.5-2.5,2.3-5.5,2.3-9,0-5.3-1.7-9.4-5-12.4-3.3-3-8.1-4.4-14.3-4.4h-19.2c-1.7,0-3.1.5-4,1.4-1,.9-1.4,2.2-1.4,4v45.5c0,1.7.4,3.1,1.3,4.1ZM1095.1,534.9h-12v-17.4h12c3.5,0,6.2.7,8,2.2,1.9,1.4,2.8,3.6,2.8,6.4s-.9,5.1-2.8,6.6c-1.8,1.4-4.5,2.1-8,2.1Z" />
    <path class="st0"
      d="M854.7,484.3h-97.3c-3.5,0-6.4,2.9-6.4,6.4v92.8c0,3.5,2.9,6.4,6.4,6.4h97.3c3.5,0,6.4-2.9,6.4-6.4v-92.8c0-3.5-2.9-6.4-6.4-6.4Z" />
    <path class="st2"
      d="M802.8,570.6c-3.4,0-6.8-.1-10.2-.4-3.4-.2-6.4-.6-9-1.3v-61.8c1.3-.2,2.8-.5,4.3-.6,1.5-.2,3.1-.4,4.7-.6,1.6-.1,3.2-.2,4.7-.3,1.6,0,3.1,0,4.5,0,3.9,0,7.4.3,10.7.9,3.3.6,6.2,1.5,8.5,2.8,2.4,1.3,4.3,3.1,5.7,5.3,1.3,2.2,2,4.9,2,8.2s-.7,5.6-2.2,7.7c-1.4,2.1-3.4,3.9-6,5.1,3.9,1.3,6.7,3.2,8.5,5.7,1.8,2.5,2.8,5.7,2.8,9.6,0,6.6-2.4,11.5-7.2,14.8-4.8,3.2-12.1,4.9-22,4.9ZM795,541.2v19.4c1.3.1,2.7.2,4.1.3,1.5,0,2.8,0,4,0,2.4,0,4.6-.2,6.6-.5,2.1-.3,3.9-.8,5.3-1.6,1.5-.8,2.7-1.8,3.6-3.1.9-1.3,1.4-2.9,1.4-5,0-3.6-1.3-6.1-4-7.5-2.6-1.4-6.3-2.1-10.9-2.1h-10.2ZM795,532.1h8.2c4.4,0,7.9-.6,10.4-1.8,2.5-1.3,3.8-3.6,3.8-6.8s-1.3-5.2-4-6.5c-2.6-1.3-5.9-1.9-10.1-1.9s-3.4,0-4.8,0c-1.3,0-2.5.2-3.5.3v16.7Z" />
    <path class="st9"
      d="M974,484.3h-97.3c-3.5,0-6.4,2.9-6.4,6.4v92.8c0,3.5,2.9,6.4,6.4,6.4h97.3c3.5,0,6.4-2.9,6.4-6.4v-92.8c0-3.5-2.9-6.4-6.4-6.4Z" />
    <path class="st2"
      d="M911.6,560.3c.7,0,1.6.1,2.7.2h4.5c7.8,0,13.6-2,17.4-5.9,3.9-4,5.8-9.5,5.8-16.6s-1.9-12.8-5.6-16.6c-3.7-3.9-9.5-5.8-17.4-5.8s-5.9,0-7.3.3v44.5ZM954,538c0,5.5-.9,10.3-2.6,14.4-1.7,4-4.2,7.4-7.3,10.2-3.1,2.7-6.9,4.7-11.4,6.1-4.4,1.3-9.3,1.9-14.7,1.9s-5.5-.1-8.7-.4c-3.2-.2-6.3-.6-9.3-1.3v-61.8c2.9-.7,6.1-1.1,9.4-1.3,3.3-.2,6.2-.3,8.8-.3,5.3,0,10.2.6,14.6,1.9,4.4,1.2,8.2,3.2,11.3,5.9,3.2,2.6,5.6,6,7.3,10.1,1.7,4,2.6,8.9,2.6,14.5Z" />
    <path class="st6"
      d="M1145.7,484.3h-102.4c-29.2,0-52.8,23.6-52.8,52.8s23.6,52.8,52.8,52.8h102.4c29.2,0,52.8-23.6,52.8-52.8s-23.6-52.8-52.8-52.8Z" />
    <path class="st1"
      d="M1134.3,562.2c4.1,2.4,8.8,3.6,14.3,3.6s7.8-.7,11.1-2c3.3-1.4,6.2-3.3,8.6-5.9,2.4-2.5,4.2-5.6,5.5-9.1,1.3-3.5,1.9-7.5,1.9-11.9s-1.1-10.9-3.3-15.1c-2.2-4.3-5.4-7.6-9.4-9.9-4.1-2.4-8.8-3.6-14.3-3.6s-7.9.7-11.2,2.1c-3.3,1.3-6.2,3.3-8.6,5.8-2.4,2.5-4.2,5.5-5.5,9-1.3,3.5-1.9,7.4-1.9,11.8s1.1,10.9,3.3,15.2c2.3,4.3,5.4,7.6,9.5,10ZM1157.1,554.3c-2.3,1.5-5.2,2.3-8.5,2.3-5,0-8.9-1.7-11.7-5.2-2.7-3.5-4.1-8.3-4.1-14.4s.6-7.6,1.9-10.5c1.3-2.9,3.1-5.1,5.4-6.7,2.4-1.5,5.2-2.3,8.6-2.3,5,0,8.9,1.7,11.7,5.2,2.7,3.4,4.1,8.2,4.1,14.4s-.6,7.6-1.9,10.5c-1.3,2.9-3.1,5.2-5.4,6.7ZM1023.9,564.2c1,1,2.3,1.4,4,1.4s3.1-.5,4-1.4c.9-1,1.3-2.4,1.3-4.1v-15.8h13.9c6.2,0,10.9-1.6,14.3-4.7,3.3-3.1,5-7.4,5-12.9s-1.7-9.9-5-12.9c-3.3-3.1-8.1-4.7-14.3-4.7h-19.2c-1.7,0-3.1.5-4,1.4-1,.9-1.4,2.2-1.4,4v45.5c0,1.7.4,3.1,1.3,4.1ZM1045.5,535.8h-12.1v-18.2h12.1c3.5,0,6.1.8,7.9,2.3,1.8,1.5,2.7,3.8,2.7,6.8s-.9,5.3-2.7,6.8c-1.8,1.5-4.4,2.3-7.9,2.3ZM1073.7,564.2c1,1,2.3,1.4,4,1.4s3.1-.5,4-1.4c.9-1,1.3-2.4,1.3-4.1v-17.2h7.1c1.9,0,3.5.3,4.8.9,1.3.6,2.4,1.7,3.3,3.4l7.9,14.5c.7,1.4,1.6,2.4,2.5,3,1,.6,2.2,1,3.7,1s2.7-.3,3.5-1c.8-.7,1.2-1.6,1.3-2.7,0-1.1-.3-2.3-1-3.5l-5.6-10.5c-1.2-2.2-2.6-3.9-4.3-4.9-.8-.5-1.6-.9-2.4-1.1,1.3-.3,2.5-.7,3.6-1.2,2.9-1.4,5.1-3.3,6.6-5.8,1.5-2.5,2.3-5.5,2.3-9,0-5.3-1.7-9.4-5-12.4-3.3-3-8.1-4.4-14.3-4.4h-19.2c-1.7,0-3.1.5-4,1.4-1,.9-1.4,2.2-1.4,4v45.5c0,1.7.4,3.1,1.3,4.1ZM1095.1,534.9h-12v-17.4h12c3.5,0,6.2.7,8,2.2,1.9,1.4,2.8,3.6,2.8,6.4s-.9,5.1-2.8,6.6c-1.8,1.4-4.5,2.1-8,2.1Z" />
  </g>
  <circle class="st5" cx="968.5" cy="547.5" r="375" />
  <circle class="st4" cx="968.5" cy="548.4" r="283.1" />
  <rect class="st7" x="1171.7" y="762.4" width="107.2" height="100.6" rx="16.7" ry="16.7" />
  <path class="st8"
    d="M1257.9,832.5v8c0,6.3-15.2,11.4-32.7,11.4s-32.7-5.1-32.7-11.4v-8c7.9,5.7,22.9,7.4,32.7,7.4s24.8-1.7,32.7-7.4ZM1225.3,821.4c-9.8,0-24.8-1.7-32.7-7.4v7.9c0,6.3,15.2,11.4,32.7,11.4s32.7-5.1,32.7-11.4v-7.9c-7.9,5.7-22.9,7.4-32.7,7.4ZM1225.3,773.5c-17.4,0-32.7,5.1-32.7,11.4s15.2,11.4,32.7,11.4,32.7-5.1,32.7-11.4-15.2-11.4-32.7-11.4ZM1225.3,802.9c-9.8,0-24.8-1.7-32.7-7.4v8c0,6.3,15.2,11.4,32.7,11.4s32.7-5.1,32.7-11.4v-8c-7.9,5.7-22.9,7.4-32.7,7.4Z" />
  <rect class="st7" x="1208.1" y="252.2" width="107.2" height="100.6" rx="16.7" ry="16.7" />
  <g>
    <path class="st8"
      d="M1286.1,319.2c-5-4.2-7.8-10.3-7.8-16.8v-9.2c0-11.6-8.6-21.1-19.7-22.7v-3.5c0-1.8-1.5-3.3-3.3-3.3s-3.3,1.5-3.3,3.3v3.5c-11.1,1.6-19.7,11.2-19.7,22.7v9.2c0,6.5-2.8,12.6-7.8,16.9-1.3,1.1-2,2.7-2,4.4,0,3.2,2.6,5.7,5.7,5.7h54.2c3.2,0,5.7-2.6,5.7-5.7s-.7-3.3-2-4.4Z" />
    <path class="st8" d="M1255.3,342.5c5.9,0,10.9-4.2,12.1-9.9h-24.1c1.1,5.6,6.1,9.9,12.1,9.9Z" />
  </g>
  <circle class="st0" cx="1281.1" cy="282.5" r="19.9" />
  <g>
    <rect class="st7" x="1278.6" y="270.1" width="5" height="24.8" rx="1.4" ry="1.4" />
    <rect class="st7" x="1278.6" y="270.1" width="5" height="24.8" rx="1.4" ry="1.4"
      transform="translate(1563.6 -998.6) rotate(90)" />
  </g>
  <rect class="st7" x="576.5" y="335.7" width="107.2" height="100.6" rx="16.7" ry="16.7" />
  <path class="st8"
    d="M595.6,367.6h69c1.1,0,2-.9,2-2v-5.9c0-4.3-3.5-7.8-7.8-7.8h-7.8v-2.9c0-1.1-.9-2-2-2h-6.5c-1.1,0-2,.9-2,2v2.9h-20.8v-2.9c0-1.1-.9-2-2-2h-6.5c-1.1,0-2,.9-2,2v2.9h-7.8c-4.3,0-7.8,3.5-7.8,7.8v5.9c0,1.1.9,2,2,2ZM664.6,372.8h-69c-1.1,0-2,.9-2,2v42.3c0,4.3,3.5,7.8,7.8,7.8h57.3c4.3,0,7.8-3.5,7.8-7.8v-42.3c0-1.1-.9-2-2-2ZM614.5,383.2h0v12h-12.2v-12h12.1ZM623.5,383.2h12v12h-12v-12ZM614.5,402.9h0v12h-12.3v-12h12.3ZM623.5,402.9h12v12h-12v-12ZM651.9,394.9c-2,0-3.3.9-3.3,2.3s2,2.4,4.3,3.2c3.2,1.2,6.9,2.6,6.9,6.8s-2.4,6.4-6.4,7v2.9c0,.4-.3.7-.7.7h-2.4c-.4,0-.7-.3-.7-.7v-2.9c-2.4-.4-4.5-1.5-6-2.9-.3-.3-.3-.7,0-1l1.8-2.5c.2-.3.7-.4,1-.1,1.5,1.2,3.4,2.2,5.3,2.2s3.1-1.3,3.1-2.5-1.9-2.2-4.1-3c-3.2-1.2-7.1-2.8-7.1-7.2s2.3-5.8,5.9-6.6v-3c0-.4.3-.7.7-.7h2.4c.4,0,.7.3.7.7v2.9c1.9.2,4,1,5.5,2.3.3.2.3.6.2.9l-1.4,2.6c-.2.4-.7.5-1.1.2-1.3-1-3-1.7-4.6-1.7Z" />
  <rect class="st7" x="717.5" y="693.2" width="88.6" height="83.2" rx="13.8" ry="13.8" />
  <path class="st8"
    d="M761.9,732.7v-28.4c0-1.1.9-2.1,2-2.1,15.7,0,28.5,12.8,28.5,28.5s-1,2-2.1,2h-28.4ZM727.3,736.8c0-15.4,11.5-28.2,26.3-30.2,1.2-.2,2.2.8,2.2,2v30.3l19.9,19.9c.9.9.8,2.3-.2,2.9-5,3.6-11.1,5.6-17.7,5.6-16.9,0-30.5-13.7-30.5-30.5ZM794.3,738.8c1.2,0,2.1,1,2,2.2-1,7.1-4.4,13.4-9.4,18.1-.8.7-2,.7-2.7,0l-20.2-20.2h30.3Z" />
  <rect class="st7" x="925.6" y="126.3" width="88.6" height="83.2" rx="13.8" ry="13.8" />
  <path class="st8"
    d="M995.5,142.5c0-.9.8-1.7,1.7-1.7h3.4c.9,0,1.7.8,1.7,1.7v35.8h-6.8v-35.8ZM956.8,184.4c4.6,0,8.7-1.6,12-4.2.1.2.3.3.4.5l13.3,13.3c1.3,1.3,3.5,1.3,4.8,0s1.3-3.5,0-4.8l-13.3-13.3c-.3-.3-.6-.5-.9-.6,1.8-2.9,2.8-6.4,2.8-10.1,0-10.6-8.6-19.2-19.2-19.2s-19.2,8.6-19.2,19.2,8.6,19.2,19.2,19.2ZM944.4,165.1c0-3.3,1.3-6.5,3.6-8.8,2.3-2.3,5.5-3.6,8.8-3.6s6.5,1.3,8.8,3.6c2.3,2.3,3.6,5.5,3.6,8.8s-1.3,6.5-3.6,8.8c-2.3,2.3-5.5,3.6-8.8,3.6s-6.5-1.3-8.8-3.6c-2.3-2.3-3.6-5.5-3.6-8.8ZM980.2,157.8c-.9,0-1.7.8-1.7,1.7v18.7h6.8v-18.7c0-.9-.8-1.7-1.7-1.7h-3.4ZM988.7,149.3c-.9,0-1.7.8-1.7,1.7v27.3h6.8v-27.3c0-.9-.8-1.7-1.7-1.7h-3.4Z" />
  <rect class="st7" x="810.1" y="271.2" width="66.7" height="62.7" rx="10.4" ry="10.4" />
  <rect class="st7" x="1199.7" y="612.4" width="66.7" height="62.7" rx="10.4" ry="10.4" />
  <rect class="st7" x="940.6" y="891.1" width="66.7" height="62.7" rx="10.4" ry="10.4" />
  <path class="st3"
    d="M966.1,917.8c-1.3,1.5-2.9,2.6-4.5,2.6-3.3,0-7-4.7-7-9.1s3.7-8,7-8,5.1,2,6.3,4.8c-1.4,1.7-2.5,4-2.5,6.4s.2,2.3.6,3.3ZM966.7,919.3s0,0-.1,0l-.4.5c-2.4,3-7,2.8-9.3-.2h-.4c-4.8,1.5-8.1,5.8-8.1,10.8h0c0,.1,0,.1,0,.2l1.1.8c2.9,2.2,6.1,3.7,9.6,4.4v-3.2c.3-4.7,3.3-8.8,7.6-10.5l1.4-.5c-.5-.6-1-1.3-1.4-2.1ZM981.9,917.9c1.3,1.5,2.9,2.5,4.4,2.5,3.3,0,7-4.7,7-9.1s-3.7-8-7-8-5,1.9-6.3,4.7c1.5,1.8,2.6,4.2,2.6,6.5s-.2,2.3-.7,3.4ZM981.3,919.2s0,0,0,0l.4.5c2.4,3,7,2.9,9.2-.2h.4c4.8,1.5,8.1,5.8,8.1,10.8h0c0,.1,0,.1,0,.2l-1.1.8c-2.9,2.2-6.3,3.7-9.9,4.4v-3.6c-.3-4.5-3-8.5-7.1-10.4l-1.2-.6c.5-.6.9-1.2,1.2-1.9ZM981,914.4c0,4.4-3.7,9.1-7,9.1s-7-4.7-7-9.1,3.7-8,7-8,7,3.6,7,8ZM960.9,933.6c0-5.1,3.3-9.7,8.2-11.2,2.4,3.3,7.3,3.5,9.8.3l.2-.3c4.6,1.6,7.6,5.9,7.6,10.8v2.6c0,0,0,.2-.1.2l-2.1,1.4c-2,1.3-4.1,2.4-6.4,3.3-2.5,1-5.3,1.1-7.8.1h-.2c-2.5-1-5-2.2-7.2-3.6l-1.9-1.2c0,0-.1-.1-.1-.2v-2.2Z" />
  <path class="st8"
    d="M1212.3,650.7c-2.2,0-4-.8-5.5-2.3-1.5-1.5-2.3-3.4-2.3-5.5s.8-4,2.3-5.5c1.5-1.5,3.4-2.3,5.5-2.3v-5.2c0-1.4.5-2.7,1.5-3.7,1-1,2.2-1.5,3.7-1.5h7.8c0-2.2.8-4,2.3-5.5,1.5-1.5,3.4-2.3,5.5-2.3s4,.8,5.5,2.3c1.5,1.5,2.3,3.4,2.3,5.5h7.8c1.4,0,2.7.5,3.7,1.5,1,1,1.5,2.2,1.5,3.7v5.2c2.2,0,4,.8,5.5,2.3,1.5,1.5,2.3,3.4,2.3,5.5s-.8,4-2.3,5.5c-1.5,1.5-3.4,2.3-5.5,2.3v10.4c0,1.4-.5,2.7-1.5,3.7-1,1-2.2,1.5-3.7,1.5h-31.2c-1.4,0-2.7-.5-3.7-1.5-1-1-1.5-2.2-1.5-3.7v-10.4ZM1225.3,645.5c1.1,0,2-.4,2.8-1.1.8-.8,1.1-1.7,1.1-2.8s-.4-2-1.1-2.8c-.8-.8-1.7-1.1-2.8-1.1s-2,.4-2.8,1.1c-.8.8-1.1,1.7-1.1,2.8s.4,2,1.1,2.8c.8.8,1.7,1.1,2.8,1.1ZM1240.9,645.5c1.1,0,2-.4,2.8-1.1.8-.8,1.1-1.7,1.1-2.8s-.4-2-1.1-2.8c-.8-.8-1.7-1.1-2.8-1.1s-2,.4-2.8,1.1c-.8.8-1.1,1.7-1.1,2.8s.4,2,1.1,2.8c.8.8,1.7,1.1,2.8,1.1ZM1225.3,655.9h15.6c.7,0,1.4-.2,1.9-.7s.7-1.1.7-1.9-.2-1.4-.7-1.9c-.5-.5-1.1-.7-1.9-.7h-15.6c-.7,0-1.4.2-1.9.7-.5.5-.7,1.1-.7,1.9s.2,1.4.7,1.9c.5.5,1.1.7,1.9.7Z" />
  <path class="st8"
    d="M850.2,325.9c-1.3,0-2.4-.5-3.3-1.4-.9-.9-1.4-2-1.4-3.3s.2-1.7.6-2.4c.4-.7,1-1.3,1.7-1.7v-12.9c-.7-.4-1.3-1-1.7-1.7-.4-.7-.6-1.5-.6-2.4,0-1.3.5-2.4,1.4-3.3.9-.9,2-1.4,3.3-1.4s2.4.5,3.3,1.4c.9.9,1.4,2,1.4,3.3s-.2,1.7-.6,2.4c-.4.7-1,1.2-1.7,1.7v6.7l9.4-3.1v-3.6c-.7-.4-1.3-1-1.7-1.7-.4-.7-.6-1.5-.6-2.4,0-1.3.5-2.4,1.4-3.3.9-.9,2-1.4,3.3-1.4s2.4.5,3.3,1.4c.9.9,1.4,2,1.4,3.3s-.2,1.7-.6,2.4c-.4.7-1,1.2-1.7,1.7v3.6c0,1-.3,1.9-.9,2.7-.6.8-1.4,1.4-2.3,1.7l-10.8,3.6v1.3c.7.4,1.3,1,1.7,1.7.4.7.6,1.5.6,2.4,0,1.3-.5,2.4-1.4,3.3-.9.9-2,1.4-3.3,1.4ZM824.5,318.8c-1.3,0-2.4-.5-3.3-1.4-.9-.9-1.4-2-1.4-3.3v-28.1c0-1.3.5-2.4,1.4-3.3.9-.9,2-1.4,3.3-1.4h12.1c.6,0,1.2.1,1.8.4.6.2,1.1.6,1.5,1l3.3,3.3h21.1c.7,0,1.2.2,1.7.7.4.4.7,1,.7,1.7s-.2,1.2-.7,1.7c-.4.4-1,.7-1.7.7h-14c-2.6,0-4.8.9-6.6,2.8-1.8,1.8-2.8,4-2.8,6.6s.2,2.3.6,3.4c.4,1.1,1,2,1.7,2.8v8.7c-.5.5-.9,1.1-1.3,1.8-.3.6-.6,1.3-.8,2.1h-16.7Z" />
</svg>