<svg width="48" height="48" viewBox="0 0 48 48" fill="none" xmlns="http://www.w3.org/2000/svg">
<rect width="47.7968" height="47.7968" rx="7.70916" fill="#42B0FF"/>
<path d="M18.1434 30.1656C18.7588 30.5954 19.1798 30.7238 19.7234 30.7565V31.3372C19.7234 31.6042 19.9398 31.8206 20.2068 31.8206C20.4737 31.8206 20.6902 31.6042 20.6902 31.3372V30.7125C22.8364 30.2624 23.3304 26.9994 21.1196 26.2038C20.2046 25.8585 19.6734 25.5931 19.3435 25.3169C19.1407 25.147 19.0556 24.8022 19.1267 24.4384C19.2079 24.0225 19.4586 23.7092 19.7972 23.6002C20.6639 23.3214 21.2281 23.8336 21.2583 23.8618C21.7053 24.2943 22.3772 23.6068 21.9335 23.1699C21.9061 23.1429 21.4457 22.7001 20.6901 22.5793V22.0581C20.6901 21.7911 20.4737 21.5747 20.2067 21.5747C19.9397 21.5747 19.7233 21.7911 19.7233 22.0581V22.6188C18.924 22.806 18.3353 23.4468 18.1778 24.2529C17.9144 26.0112 19.1132 26.4364 20.7781 27.1083C22.203 27.6592 21.6198 29.7832 20.2032 29.7993C19.4962 29.8045 19.2555 29.7631 18.697 29.373C18.1848 29.0149 17.631 29.8076 18.1434 30.1656Z" fill="#FAFAFA"/>
<path d="M39.5166 34.1644H34.9232V27.4228C34.9232 27.1558 34.7068 26.9394 34.4398 26.9394H30.7004V21.6205C31.1433 21.4683 31.4629 21.0487 31.4629 20.5549V19.0221H32.3715C32.993 19.0221 33.4987 18.5164 33.4987 17.8948V15.1037C33.4987 14.4821 32.993 13.9764 32.3715 13.9764H30.3568L21.6037 7.45282C20.7936 6.84903 19.7051 6.84909 18.8951 7.45282L16.1526 9.49676C15.6515 9.87027 16.2292 10.6454 16.7304 10.2719L19.4728 8.228C19.9446 7.87641 20.5542 7.87641 21.0259 8.228L28.7389 13.9764H25.6542L20.5229 10.4561C20.358 10.343 20.1407 10.343 19.976 10.4561L14.8447 13.9764H11.7598L14.2222 12.1411C14.7234 11.7676 14.1455 10.9924 13.6445 11.366L10.1419 13.9764H8.12729C7.5057 13.9764 7 14.4821 7 15.1037V17.8948C7 18.5165 7.5057 19.0221 8.12729 19.0221H9.45386V20.5549C9.45386 21.0487 9.77348 21.4683 10.2163 21.6205V31.7732C9.77348 31.9253 9.45386 32.3449 9.45386 32.8387V34.3715H8.12729C7.5057 34.3715 7 34.8772 7 35.4988V36.8711C7 37.4927 7.5057 37.9984 8.12729 37.9984H23.7999V39.4644C23.7999 39.7315 24.0163 39.9478 24.2833 39.9478H39.5166C39.7836 39.9478 40 39.7315 40 39.4644V34.6478C40 34.3808 39.7836 34.1644 39.5166 34.1644ZM39.0332 36.5727H34.9232V35.1313H39.0332V36.5727ZM11.1831 21.6822H13.1661V31.7114H11.1831V21.6822ZM14.1328 31.7732V21.6205C14.5757 21.4683 14.8953 21.0487 14.8953 20.5549V19.0221H26.0215V20.5549C26.0215 21.0487 26.3411 21.4683 26.784 21.6205V31.756H24.2833C24.0163 31.756 23.7999 31.9724 23.7999 32.2394V34.3715H14.8953V32.8387C14.8953 32.3449 14.5757 31.9253 14.1328 31.7732ZM33.9564 31.756H29.8464V30.3145H33.9564V31.756ZM28.8766 34.1644H24.7666V32.7228H28.8766V34.1644ZM24.7667 35.1312H28.8767V36.5727H24.7667V35.1312ZM29.8465 32.7228H33.9565V34.1644H29.8465V32.7228ZM33.9564 29.3477H29.8464V27.9062H33.9564V29.3477ZM29.3631 26.9394C29.0961 26.9394 28.8797 27.1558 28.8797 27.4228V29.8311V31.756H27.7507V21.6822H29.7337V26.9393H29.3631V26.9394ZM30.4961 20.5549C30.4961 20.6434 30.4241 20.7154 30.3356 20.7154C29.2734 20.7154 28.2111 20.7154 27.1488 20.7154C27.0603 20.7154 26.9883 20.6434 26.9883 20.5549V19.0221H30.4962V20.5549H30.4961ZM20.2494 11.4409L23.9451 13.9764H16.5536L20.2494 11.4409ZM7.9668 17.8948V15.1037C7.9668 15.0152 8.03879 14.9432 8.12729 14.9432H32.3715C32.46 14.9432 32.5319 15.0152 32.5319 15.1037V17.8948C32.5319 17.9833 32.46 18.0553 32.3715 18.0553H8.12729C8.03879 18.0553 7.9668 17.9833 7.9668 17.8948ZM13.9285 19.0221V20.5549C13.9285 20.6434 13.8565 20.7154 13.768 20.7154C12.7058 20.7154 11.6435 20.7154 10.5812 20.7154C10.4927 20.7154 10.4207 20.6434 10.4207 20.5549V19.0221H13.9285ZM10.4207 32.8387C10.4207 32.7502 10.4927 32.6782 10.5811 32.6782H13.768C13.8565 32.6782 13.9285 32.7502 13.9285 32.8387V34.3715H10.4207V32.8387ZM7.9668 36.8712V35.4989C7.9668 35.4104 8.03879 35.3384 8.12729 35.3384H23.7999V37.0317H8.12729C8.03879 37.0317 7.9668 36.9597 7.9668 36.8712ZM28.8766 38.9811H24.7666V37.5395H28.8766V38.9811ZM29.8465 37.5396H30.6152C31.2553 37.5174 31.2548 36.5947 30.6152 36.5728H29.8465V35.1313H33.9565V36.5728H33.1901C32.5501 36.595 32.5506 37.5177 33.1901 37.5396H33.9565V38.9811H29.8465V37.5396ZM39.0332 38.9811H34.9232V37.5395H39.0332V38.9811Z" fill="#FAFAFA"/>
</svg>
