<svg width="48" height="48" viewBox="0 0 48 48" fill="none" xmlns="http://www.w3.org/2000/svg">
<rect width="45.6938" height="45.6938" rx="7.70916" fill="#42B0FF"/>
<g clip-path="url(#clip0)">
<path d="M37.5877 17.3939L30.928 15.1432C30.6863 15.0619 30.424 15.1913 30.3422 15.4331C30.2605 15.6749 30.3903 15.9372 30.6321 16.0189L37.2281 18.2481L34.1232 19.7619C33.9943 19.6749 33.8496 19.6082 33.6928 19.5672L24.3797 17.1332C24.0837 15.6103 22.2085 14.9711 21.0568 16.0549C20.6582 16.4301 20.4296 16.9591 20.4296 17.5064V17.5165C20.4328 18.1608 20.9661 18.685 21.6185 18.685H23.2265C23.6417 18.685 24.0569 18.4684 24.2723 18.0605L32.9573 20.3304C30.2131 21.6683 24.0526 24.6717 23.2673 25.0547C22.713 25.3249 22.0954 25.3071 21.5776 25.0547L7.61668 18.2481L21.8051 13.4529C22.2031 13.3184 22.6417 13.3184 23.0397 13.4529L28.5792 15.3252C28.8211 15.4068 29.0833 15.2772 29.165 15.0353C29.2468 14.7935 29.117 14.5312 28.8752 14.4495L23.3357 12.5772C22.7467 12.3783 22.0981 12.3783 21.5092 12.5772L7.25712 17.3939C6.49992 17.65 6.43158 18.6987 7.15125 19.0495L14.4655 22.6155C14.0631 24.5285 13.4488 26.5881 12.7811 28.4161C12.5077 29.1637 12.7432 29.9953 13.3669 30.4856C15.4778 32.1446 17.9718 33.4262 20.528 34.25C21.7293 34.6371 23.0687 34.652 24.3165 34.25C26.8736 33.4258 29.3678 32.1438 31.4776 30.4856C32.1036 29.9934 32.3359 29.1614 32.0634 28.4161C31.4098 26.6286 30.7871 24.5556 30.379 22.6157L33.8196 20.9383V27.8941C33.2315 27.9391 32.7665 28.4309 32.7665 29.0303V30.3771C32.7665 30.5772 32.8534 30.7569 32.9908 30.8821L32.8192 33.4777C32.7856 33.9848 33.1888 34.4158 33.6972 34.4158H34.8664C35.3745 34.4158 35.7779 33.985 35.7444 33.4777L35.5728 30.8821C35.7102 30.7569 35.7971 30.5772 35.7971 30.3771V29.0302C35.7971 28.4309 35.332 27.9391 34.7439 27.894V20.9283C34.7439 20.7862 34.7216 20.6486 34.6817 20.518L37.6936 19.0496C38.4123 18.6991 38.3461 17.6504 37.5877 17.3939ZM23.2265 17.7607H21.6185C21.4758 17.7607 21.3545 17.6467 21.3539 17.5141V17.5064C21.3539 17.2086 21.4733 16.9322 21.6903 16.728C22.3558 16.1016 23.4465 16.5525 23.4897 17.4534C23.5 17.6692 23.3611 17.7607 23.2265 17.7607ZM30.675 27.2281C28.178 29.1823 24.6344 30.5803 23.4139 30.813C23.1631 30.8608 22.9987 31.1029 23.0465 31.3535C23.0943 31.6043 23.337 31.7688 23.587 31.7209C24.8637 31.4775 28.3618 30.118 30.9877 28.1529C31.0523 28.3371 31.1271 28.5468 31.1953 28.7334C31.3309 29.1044 31.2147 29.5164 30.9064 29.7589C28.4175 31.7149 25.7949 32.8024 24.033 33.3701C22.9807 33.7093 21.8377 33.7009 20.8115 33.3701C19.0497 32.8023 16.427 31.7149 13.9382 29.7589C13.6299 29.5165 13.5135 29.1046 13.6493 28.7334C13.652 28.726 13.6547 28.7184 13.6574 28.7111C13.7245 28.5271 13.799 28.3182 13.8568 28.1528C16.4208 30.0709 19.9092 31.464 21.2571 31.7211C21.5082 31.7688 21.7499 31.6045 21.7977 31.3538C21.8455 31.103 21.6811 30.861 21.4304 30.8132C20.2781 30.5935 16.7224 29.2251 14.1696 27.228C14.5449 26.0802 14.9798 24.6051 15.3217 23.0329L21.1725 25.8854C21.9515 26.2652 22.863 26.28 23.6724 25.8854L29.5228 23.0331C29.8647 24.6052 30.2996 26.0803 30.675 27.2281ZM33.7445 33.4914L33.9053 31.0611H34.6582L34.8189 33.4914H33.7445ZM34.8727 29.0302V30.1368H33.6908V29.0302C33.6908 28.9129 33.7899 28.8138 33.9072 28.8138H34.6563C34.7735 28.8139 34.8727 28.9129 34.8727 29.0302Z" fill="#FAFAFA"/>
</g>
<defs>
<clipPath id="clip0">
<rect width="40.152" height="40.152" fill="white" transform="translate(7.64844 7.64801)"/>
</clipPath>
</defs>
</svg>
