<svg width="48" height="48" viewBox="0 0 48 48" fill="none" xmlns="http://www.w3.org/2000/svg">
<rect width="47.7968" height="47.7968" rx="7.70916" fill="#E3E3E3"/>
<path d="M33.2808 10.0994C30.7351 10.0994 28.6641 12.1704 28.6641 14.7161C28.6641 17.2618 30.7351 19.3329 33.2808 19.3329C35.8265 19.3329 37.8976 17.2618 37.8976 14.7161C37.8976 12.1705 35.8265 10.0994 33.2808 10.0994ZM33.2808 18.3644C31.2692 18.3644 29.6326 16.7278 29.6326 14.7161C29.6326 12.7045 31.2692 11.0679 33.2808 11.0679C35.2925 11.0679 36.9291 12.7045 36.9291 14.7161C36.9291 16.7278 35.2925 18.3644 33.2808 18.3644Z" fill="#6F6F6F"/>
<path d="M31.2794 12.6822H31.2148C30.9472 12.6822 30.7305 12.899 30.7305 13.1665C30.7305 13.434 30.9473 13.6508 31.2148 13.6508H31.2794C31.5469 13.6508 31.7637 13.434 31.7637 13.1665C31.7637 12.899 31.5469 12.6822 31.2794 12.6822Z" fill="#6F6F6F"/>
<path d="M33.3458 12.6822H33.2812C33.0136 12.6822 32.7969 12.899 32.7969 13.1665C32.7969 13.434 33.0137 13.6508 33.2812 13.6508H33.3458C33.6133 13.6508 33.8301 13.434 33.8301 13.1665C33.8301 12.899 33.6133 12.6822 33.3458 12.6822Z" fill="#6F6F6F"/>
<path d="M35.4122 12.6822H35.3476C35.08 12.6822 34.8633 12.899 34.8633 13.1665C34.8633 13.434 35.0801 13.6508 35.3476 13.6508H35.4122C35.6797 13.6508 35.8965 13.434 35.8965 13.1665C35.8965 12.899 35.6797 12.6822 35.4122 12.6822Z" fill="#6F6F6F"/>
<path d="M33.3458 11.1325H33.2812C33.0136 11.1325 32.7969 11.3493 32.7969 11.6168C32.7969 11.8843 33.0137 12.1011 33.2812 12.1011H33.3458C33.6133 12.1011 33.8301 11.8843 33.8301 11.6168C33.8301 11.3493 33.6133 11.1325 33.3458 11.1325Z" fill="#6F6F6F"/>
<path d="M31.2794 14.2319H31.2148C30.9472 14.2319 30.7305 14.4487 30.7305 14.7162C30.7305 14.9837 30.9473 15.2005 31.2148 15.2005H31.2794C31.5469 15.2005 31.7637 14.9837 31.7637 14.7162C31.7637 14.4487 31.5469 14.2319 31.2794 14.2319Z" fill="#6F6F6F"/>
<path d="M33.3458 14.2319H33.2812C33.0136 14.2319 32.7969 14.4487 32.7969 14.7162C32.7969 14.9837 33.0137 15.2005 33.2812 15.2005H33.3458C33.6133 15.2005 33.8301 14.9837 33.8301 14.7162C33.8301 14.4487 33.6133 14.2319 33.3458 14.2319Z" fill="#6F6F6F"/>
<path d="M35.4122 14.2319H35.3476C35.08 14.2319 34.8633 14.4487 34.8633 14.7162C34.8633 14.9837 35.0801 15.2005 35.3476 15.2005H35.4122C35.6797 15.2005 35.8965 14.9837 35.8965 14.7162C35.8965 14.4487 35.6797 14.2319 35.4122 14.2319Z" fill="#6F6F6F"/>
<path d="M31.2794 15.7816H31.2148C30.9472 15.7816 30.7305 15.9984 30.7305 16.2659C30.7305 16.5333 30.9473 16.7502 31.2148 16.7502H31.2794C31.5469 16.7502 31.7637 16.5333 31.7637 16.2659C31.7637 15.9984 31.5469 15.7816 31.2794 15.7816Z" fill="#6F6F6F"/>
<path d="M33.3458 15.7816H33.2812C33.0136 15.7816 32.7969 15.9984 32.7969 16.2659C32.7969 16.5333 33.0137 16.7502 33.2812 16.7502H33.3458C33.6133 16.7502 33.8301 16.5333 33.8301 16.2659C33.8301 15.9984 33.6133 15.7816 33.3458 15.7816Z" fill="#6F6F6F"/>
<path d="M35.4122 15.7816H35.3476C35.08 15.7816 34.8633 15.9984 34.8633 16.2659C34.8633 16.5333 35.0801 16.7502 35.3476 16.7502H35.4122C35.6797 16.7502 35.8965 16.5333 35.8965 16.2659C35.8965 15.9984 35.6797 15.7816 35.4122 15.7816Z" fill="#6F6F6F"/>
<path d="M33.3458 17.3312H33.2812C33.0136 17.3312 32.7969 17.5481 32.7969 17.8155C32.7969 18.083 33.0137 18.2998 33.2812 18.2998H33.3458C33.6133 18.2998 33.8301 18.083 33.8301 17.8155C33.8301 17.5481 33.6133 17.3312 33.3458 17.3312Z" fill="#6F6F6F"/>
<path d="M40.6492 35.4667C40.2551 33.3686 39.3296 30.4117 37.1581 28.2401C36.4784 27.5604 35.6775 26.9578 34.7779 26.4491C34.5452 26.3174 34.2496 26.3995 34.1179 26.6322C33.9863 26.8651 34.0683 27.1605 34.3011 27.2922C35.1246 27.7578 35.8554 28.3072 36.4731 28.925C38.0653 30.5171 38.9472 32.597 39.4342 34.4894C38.6185 34.6607 37.8673 35.0235 37.2272 35.5547L35.7041 34.0316L36.0922 33.6434C36.2813 33.4543 36.2813 33.1477 36.0922 32.9586C35.9031 32.7696 35.5965 32.7695 35.4073 32.9586L35.0193 33.3467L33.8778 32.2053L34.2659 31.8172C34.455 31.6281 34.455 31.3214 34.2659 31.1324C34.0767 30.9433 33.7701 30.9433 33.581 31.1324L33.1929 31.5205L32.0515 30.3791L32.4396 29.991C32.6287 29.8019 32.6287 29.4952 32.4396 29.3062C32.2504 29.1171 31.9438 29.1171 31.7547 29.3062L31.3666 29.6943L29.8434 28.171C30.3759 27.5295 30.7391 26.7765 30.9099 25.9588C31.493 26.1089 32.0937 26.2963 32.6924 26.5312C32.9413 26.6288 33.2225 26.5062 33.3201 26.2572C33.4179 26.0082 33.2952 25.7272 33.0462 25.6295C29.5172 24.2448 26.0175 24.4023 25.8701 24.4096C25.6217 24.422 25.4232 24.6206 25.4108 24.869C25.4071 24.9416 25.3265 26.6739 25.7502 28.9302C26.1443 31.0283 27.0697 33.9852 29.2414 36.1568C31.413 38.3285 34.3699 39.254 36.468 39.648C38.0774 39.9502 39.42 39.9958 40.0841 39.9958C40.2527 39.9958 40.4423 40.0132 40.6091 39.9767C40.8198 39.9305 40.9779 39.7433 40.9887 39.5279C40.9923 39.4554 41.0729 37.7231 40.6492 35.4667ZM26.3727 25.3708C27.0433 25.3746 28.3903 25.429 29.9655 25.7434C29.8021 26.5408 29.414 27.2635 28.8324 27.8449C28.2574 28.42 27.5411 28.8076 26.7515 28.9737C26.4344 27.3933 26.3777 26.0423 26.3727 25.3708ZM29.9261 35.4718C28.3368 33.8826 27.4552 31.8072 26.9676 29.9177C27.7771 29.7447 28.5232 29.3824 29.1583 28.8557L30.6816 30.379L30.2936 30.767C30.1045 30.9561 30.1045 31.2628 30.2936 31.4518C30.4801 31.6384 30.7918 31.6384 30.9784 31.4518L31.3665 31.0638L32.5079 32.2052L32.1198 32.5932C31.9307 32.7823 31.9307 33.089 32.1198 33.2781C32.3064 33.4646 32.6181 33.4646 32.8047 33.2781L33.1928 32.89L34.3342 34.0314L33.9461 34.4195C33.757 34.6086 33.757 34.9152 33.9461 35.1043C34.1327 35.2909 34.4444 35.2908 34.631 35.1043L35.0191 34.7162L36.5422 36.2394C36.014 36.8759 35.6524 37.6219 35.48 38.4324C33.5916 37.945 31.5173 37.063 29.9261 35.4718ZM36.4243 38.6487C36.5899 37.8584 36.9763 37.1426 37.5532 36.5656C38.1333 35.9855 38.8543 35.5977 39.6498 35.4336C39.9651 37.0092 40.0214 38.3555 40.0265 39.0258C39.3545 39.0212 38.0041 38.9655 36.4243 38.6487Z" fill="#6F6F6F"/>
<path d="M15.7183 27.6625C13.1726 27.6625 11.1016 29.7336 11.1016 32.2793C11.1016 34.825 13.1726 36.8961 15.7183 36.8961C18.264 36.8961 20.3351 34.825 20.3351 32.2793C20.3351 29.7336 18.264 27.6625 15.7183 27.6625ZM13.0161 34.7277C12.4286 34.0798 12.0701 33.2207 12.0701 32.2793C12.0701 31.5985 12.258 30.9611 12.5839 30.4152C13.2772 31.0075 13.6843 31.8765 13.6843 32.7959C13.6844 33.5037 13.4488 34.178 13.0161 34.7277ZM15.7183 35.9275C14.9967 35.9275 14.3238 35.7159 13.757 35.3529C14.3372 34.6284 14.6529 33.7345 14.6529 32.7958C14.6529 31.5802 14.1109 30.431 13.1875 29.6554C13.844 29.0219 14.7362 28.631 15.7183 28.631C16.7005 28.631 17.5927 29.0219 18.2492 29.6554C17.3257 30.431 16.7838 31.5802 16.7838 32.7958C16.7838 33.7345 17.0994 34.6284 17.6797 35.353C17.1128 35.716 16.44 35.9275 15.7183 35.9275ZM18.4206 34.7276C17.9879 34.1779 17.7523 33.5037 17.7523 32.7959C17.7523 31.8765 18.1594 31.0075 18.8527 30.4152C19.1786 30.9611 19.3665 31.5986 19.3665 32.2793C19.3666 33.2206 19.0082 34.0798 18.4206 34.7276Z" fill="#6F6F6F"/>
<path d="M16.7512 7C11.9268 7 8.00195 10.9249 8.00195 15.7493C8.00195 20.5736 11.9269 24.4985 16.7512 24.4985C21.5755 24.4985 25.5005 20.5736 25.5005 15.7493C25.5005 10.9249 21.5756 7 16.7512 7ZM23.9125 12.7075C24.0892 13.122 24.231 13.5546 24.3341 14.0021L23.6914 13.4944L23.9125 12.7075ZM23.2534 11.481C23.2477 11.4956 23.2426 11.5106 23.2383 11.526L22.7417 13.2937L19.9503 14.2006L17.2356 12.3907V9.29318L18.8078 8.24498C20.6529 8.75113 22.2259 9.92108 23.2534 11.481ZM19.2645 15.0042L18.4706 17.7836C18.4165 17.7953 18.3638 17.8167 18.3147 17.8478H15.1878C15.1388 17.8167 15.0861 17.7953 15.032 17.7836L14.2379 15.0042C14.2478 14.9839 14.2571 14.9632 14.2642 14.9411C14.2708 14.9207 14.2755 14.9003 14.2793 14.8798L16.7513 13.2318L19.2232 14.8798C19.227 14.9003 19.2317 14.9207 19.2383 14.9411C19.2453 14.9632 19.2546 14.9839 19.2645 15.0042ZM16.7513 7.96854C16.9803 7.96854 17.2071 7.97904 17.4313 7.99864L16.7513 8.452L16.0713 7.99864C16.2955 7.97917 16.5222 7.96854 16.7513 7.96854ZM14.6982 8.24401C14.7112 8.25477 14.7249 8.26515 14.7392 8.27475L16.2669 9.29318V12.3908L13.5521 14.2007L10.7607 13.2937L10.2508 11.4784C11.2789 9.91876 12.8526 8.74939 14.6982 8.24401ZM9.58995 12.7075L9.81102 13.4943L9.16836 14.002C9.27149 13.5546 9.41322 13.1218 9.58995 12.7075ZM8.97043 15.7493C8.97049 15.6256 8.97371 15.5025 8.97945 15.3802C8.99331 15.3714 9.00755 15.3634 9.0207 15.3529L10.4614 14.2148L13.2651 15.1257L14.208 18.4257L12.5646 20.6877L10.6818 20.6118C9.61167 19.2788 8.97043 17.5877 8.97043 15.7493ZM11.6506 21.6202L12.4619 21.653L12.7445 22.4167C12.3567 22.1827 11.9907 21.916 11.6506 21.6202ZM19.4985 23.0286C18.6437 23.3522 17.7179 23.53 16.7511 23.53C15.7832 23.53 14.8562 23.3518 14.0005 23.0273C13.9964 23.0111 13.9915 22.9949 13.9855 22.979L13.3482 21.257L15.1214 18.8164H18.381L20.1543 21.257L19.4985 23.0286ZM20.7578 22.4167L21.0404 21.653L21.8517 21.6203C21.5117 21.9161 21.1457 22.1828 20.7578 22.4167ZM22.8186 20.6142C22.8034 20.6133 22.788 20.6131 22.7724 20.6137L20.9378 20.6877L19.2944 18.4257L20.2373 15.1257L23.0411 14.2148L24.5232 15.3857C24.5288 15.5062 24.532 15.6274 24.532 15.7493C24.5319 17.5887 23.8899 19.2809 22.8186 20.6142Z" fill="#6F6F6F"/>
</svg>
