<svg width="48" height="48" viewBox="0 0 48 48" fill="none" xmlns="http://www.w3.org/2000/svg">
<rect width="47.7968" height="47.7968" rx="7.70916" fill="#E3E3E3"/>
<g clip-path="url(#clip0)">
<path d="M38.8283 13.7042C36.9573 11.8332 33.5074 10.4228 31.1217 9.78355C29.2657 9.28627 27.178 9.00098 25.3938 9.00098C24.2691 9.00098 23.2913 9.1102 22.4873 9.32559C22.2851 9.37978 22.1272 9.53769 22.073 9.7399C21.901 10.382 21.7533 11.0527 21.6304 11.7405C21.6257 11.7606 21.6222 11.7811 21.6197 11.8018C21.1424 14.5078 21.0496 17.4728 21.3801 20.0144C19.9018 20.1095 18.3271 20.3677 16.8782 20.7559C14.4926 21.3951 11.0429 22.8053 9.17168 24.6765C9.02367 24.8245 8.96578 25.0402 9.01998 25.2424C9.20701 25.9404 9.43523 26.6524 9.69785 27.366C9.6982 27.3669 9.69849 27.3678 9.69884 27.3687C10.6038 29.8263 11.9209 32.3019 13.4031 34.2846C15.0116 36.4362 17.5444 39.0008 20.4763 39.0008C20.8976 39.0008 21.3171 38.9457 21.7231 38.8369C23.5124 38.3574 24.9178 36.8631 25.7873 34.5156C26.4491 32.7291 26.8014 30.4801 26.8176 27.9759C27.051 28.0105 27.287 28.0286 27.5236 28.0286C30.4553 28.0286 32.9882 25.4637 34.5967 23.3122C36.5101 20.7529 38.1486 17.3727 38.98 14.2702C39.0342 14.068 38.9764 13.8522 38.8283 13.7042ZM21.4198 37.7049C21.1127 37.7872 20.7952 37.8289 20.4763 37.8289C18.5673 37.8289 16.3887 36.321 14.3417 33.5829C13 31.7882 11.8 29.5709 10.9418 27.3456C11.2578 27.1006 11.7625 26.7195 12.2859 26.3664C12.5541 26.1854 12.6249 25.8213 12.4439 25.553C12.2629 25.2847 11.8987 25.214 11.6304 25.3949C11.2245 25.6688 10.8353 25.9538 10.5265 26.1873C10.4252 25.8812 10.3308 25.5764 10.2445 25.2739C11.7045 23.962 14.4314 22.6246 17.1815 21.8878C18.5945 21.5092 20.1323 21.2608 21.5663 21.1767C21.7538 22.1544 22.0065 23.0391 22.3213 23.8249C22.3227 23.8284 22.3241 23.8321 22.3256 23.8358C22.3559 23.9111 22.3867 23.9857 22.4181 24.0592C22.4199 24.0632 22.4216 24.0673 22.4233 24.0713C22.5845 24.4468 22.7604 24.7983 22.9513 25.1247C22.9538 25.129 22.9562 25.1335 22.9588 25.1379C22.9595 25.1391 22.9602 25.1402 22.9609 25.1414C22.9719 25.16 22.9824 25.1794 22.9935 25.198C23.0168 25.237 23.0411 25.2742 23.0649 25.3124C23.0803 25.3371 23.0956 25.362 23.111 25.3863C23.1441 25.4384 23.1777 25.4895 23.2115 25.54C23.2279 25.5645 23.2443 25.5887 23.261 25.6129C23.2957 25.6633 23.3306 25.7133 23.366 25.7622C23.3808 25.7827 23.3958 25.8025 23.4107 25.8227C23.449 25.8744 23.4874 25.9259 23.5266 25.9759C23.5309 25.9813 23.5353 25.9865 23.5396 25.9919C23.6167 26.0896 23.6956 26.1834 23.7761 26.2742C23.4232 26.7174 22.8822 26.9842 22.307 26.9842C21.6385 26.9842 21.0156 26.6246 20.6813 26.0457C20.5196 25.7655 20.1614 25.6695 19.881 25.8312C19.6007 25.9931 19.5047 26.3514 19.6665 26.6316C20.2094 27.5719 21.2212 28.1561 22.307 28.1561C23.2118 28.1561 24.0651 27.7501 24.6386 27.0708C24.8299 27.2123 25.0286 27.3377 25.2339 27.4484C25.2424 27.4531 25.2509 27.4579 25.2594 27.4624C25.3133 27.491 25.3677 27.5183 25.4224 27.5448C25.4377 27.5522 25.4529 27.5596 25.4681 27.5668C25.5208 27.5916 25.574 27.6156 25.6275 27.6385C25.634 27.6413 25.6404 27.6445 25.647 27.6472C25.6667 32.03 24.5731 36.86 21.4198 37.7049ZM33.6581 22.6105C31.611 25.3487 29.4324 26.8567 27.5236 26.8567C27.2047 26.8567 26.8873 26.815 26.5803 26.7327C26.5234 26.7175 26.4676 26.7005 26.4123 26.6827C26.4107 26.6821 26.409 26.6815 26.4073 26.6809C23.8733 25.8661 22.9542 22.4421 22.6319 20.4736C22.6312 20.4693 22.63 20.4651 22.6292 20.4607C22.6234 20.4253 22.6178 20.3902 22.6124 20.3556C22.2328 17.9403 22.2784 15.0539 22.708 12.3911C23.1037 12.3369 23.7313 12.2592 24.3625 12.215C24.6853 12.1924 24.9287 11.9124 24.9061 11.5896C24.8834 11.2668 24.6049 11.0225 24.2807 11.046C23.7944 11.08 23.3168 11.132 22.9336 11.1795C22.9909 10.909 23.0522 10.6416 23.1179 10.3791C23.7606 10.2421 24.5241 10.1728 25.3938 10.1728C27.0799 10.1728 29.0571 10.4435 30.8185 10.9155C33.5685 11.6523 36.2954 12.99 37.7554 14.3017C36.9355 17.1743 35.4184 20.2559 33.6581 22.6105Z" fill="#6F6F6F"/>
<path d="M35.1388 18.0834C34.5959 17.143 33.5842 16.5588 32.4984 16.5588C31.4126 16.5588 30.4008 17.143 29.8579 18.0834C29.6961 18.3636 29.7921 18.7219 30.0724 18.8838C30.3527 19.0456 30.711 18.9496 30.8728 18.6693C31.207 18.0904 31.8299 17.7307 32.4984 17.7307C33.1669 17.7307 33.7898 18.0904 34.124 18.6693C34.2326 18.8573 34.4294 18.9624 34.632 18.9624C34.7314 18.9624 34.8321 18.937 34.9244 18.8838C35.2046 18.7219 35.3007 18.3636 35.1388 18.0834Z" fill="#6F6F6F"/>
<path d="M26.4397 14.838C25.4993 14.2951 24.331 14.2952 23.3907 14.838C23.1105 14.9999 23.0144 15.3582 23.1763 15.6384C23.3381 15.9186 23.6963 16.0148 23.9767 15.8529C24.5555 15.5187 25.2748 15.5187 25.8538 15.8529C26.4328 16.1872 26.7924 16.8101 26.7924 17.4786C26.7924 17.8021 27.0548 18.0645 27.3783 18.0645C27.7019 18.0645 27.9643 17.8021 27.9643 17.4786C27.9643 16.3928 27.3801 15.381 26.4397 14.838Z" fill="#6F6F6F"/>
<path d="M30.2813 22.2952C30.0524 22.0664 29.6815 22.0664 29.4526 22.2952C28.9801 22.7679 28.285 22.9542 27.6396 22.7811C26.9938 22.6081 26.4852 22.0994 26.3122 21.4538C26.2285 21.1412 25.9073 20.9558 25.5945 21.0395C25.282 21.1233 25.0965 21.4446 25.1803 21.7572C25.4614 22.8059 26.2875 23.632 27.3363 23.9131C27.5953 23.9825 27.8593 24.0163 28.1214 24.0163C28.9206 24.0163 29.7032 23.7021 30.2813 23.1239C30.5101 22.8951 30.5101 22.5241 30.2813 22.2952Z" fill="#6F6F6F"/>
<path d="M16.8158 26.6518H16.8158C16.4922 26.6518 16.2298 26.9141 16.2298 27.2377C16.2298 27.9062 15.8701 28.5291 15.2913 28.8634C14.7123 29.1976 13.9931 29.1976 13.4142 28.8634C13.1339 28.7015 12.7756 28.7976 12.6138 29.0778C12.4519 29.3581 12.548 29.7164 12.8282 29.8782C13.2984 30.1497 13.8255 30.2854 14.3527 30.2854C14.8799 30.2854 15.4071 30.1497 15.8773 29.8782C16.8176 29.3352 17.4018 28.3235 17.4018 27.2377C17.4017 26.9142 17.1394 26.6518 16.8158 26.6518Z" fill="#6F6F6F"/>
<path d="M22.9864 33.353C22.2186 32.5852 21.0903 32.2829 20.0414 32.5638C18.9925 32.8449 18.1664 33.671 17.8854 34.7199C17.8016 35.0324 17.9871 35.3537 18.2997 35.4374C18.3505 35.4511 18.4015 35.4576 18.4517 35.4575C18.7104 35.4575 18.9471 35.2849 19.0173 35.0231C19.1903 34.3774 19.6989 33.8688 20.3446 33.6958C20.9904 33.5228 21.685 33.709 22.1577 34.1817C22.3866 34.4104 22.7575 34.4104 22.9864 34.1817C23.2152 33.9529 23.2152 33.5818 22.9864 33.353Z" fill="#6F6F6F"/>
<path d="M26.1072 11.0653C26.0928 11.0631 26.0782 11.0608 26.0634 11.0586C25.743 11.0116 25.4457 11.2334 25.3988 11.5535C25.352 11.8738 25.5736 12.1713 25.8938 12.2181L25.9218 12.2224C25.9532 12.2275 25.9844 12.2299 26.0153 12.2299C26.298 12.2299 26.5469 12.0247 26.5931 11.7366C26.6443 11.4171 26.4267 11.1165 26.1072 11.0653Z" fill="#6F6F6F"/>
<path d="M13.9807 24.8383C13.8664 24.5356 13.5284 24.3827 13.2255 24.4971C13.2109 24.5026 13.1962 24.5083 13.1815 24.5142C12.8809 24.6342 12.7344 24.975 12.8544 25.2756C12.9459 25.5049 13.1661 25.6446 13.3988 25.6446C13.4711 25.6446 13.5446 25.6311 13.6158 25.6027L13.6395 25.5935C13.9422 25.4792 14.095 25.1411 13.9807 24.8383Z" fill="#6F6F6F"/>
</g>
<defs>
<clipPath id="clip0">
<rect width="30" height="30" fill="white" transform="translate(9 9)"/>
</clipPath>
</defs>
</svg>
