<svg width="48" height="48" viewBox="0 0 48 48" fill="none" xmlns="http://www.w3.org/2000/svg">
<rect width="47.7968" height="47.7968" rx="7.70916" fill="#42B0FF"/>
<path d="M30.3726 28.9955C30.1337 28.7615 29.7504 28.7655 29.5163 29.0043L29.4991 29.0218C29.2651 29.2607 29.2691 29.644 29.5079 29.8781C29.6257 29.9935 29.7787 30.0511 29.9316 30.0511C30.0886 30.0511 30.2456 29.9903 30.3642 29.8694L30.3814 29.8518C30.6154 29.6129 30.6114 29.2296 30.3726 28.9955Z" fill="#FAFAFA"/>
<path d="M36.8859 22.6479H35.2769V21.0389C35.2769 20.7045 35.0059 20.4334 34.6715 20.4334C34.3371 20.4334 34.066 20.7045 34.066 21.0389V22.6479H32.457C32.1226 22.6479 31.8516 22.9189 31.8516 23.2533C31.8516 23.5877 32.1226 23.8588 32.457 23.8588H34.066V25.4678C34.066 25.8022 34.3371 26.0732 34.6715 26.0732C35.0059 26.0732 35.2769 25.8022 35.2769 25.4678V23.8588H36.8859C37.2203 23.8588 37.4914 23.5877 37.4914 23.2533C37.4914 22.9189 37.2203 22.6479 36.8859 22.6479Z" fill="#FAFAFA"/>
<path d="M36.6514 18.3067C36.0859 14.1271 32.5919 11 28.4446 11C26.3511 11 24.3927 11.7804 22.8653 13.2108C21.3378 11.7804 19.3794 11 17.2859 11C12.717 11 9 14.8056 9 19.4832C9 20.4074 9.26962 21.4433 9.806 22.5868H9.60547C9.27107 22.5868 9 22.8579 9 23.1923C9 23.5267 9.27107 23.7978 9.60547 23.7978H10.4508C11.5817 25.7123 13.37 27.8893 15.8084 30.314C19.1131 33.6 22.464 36.1707 22.4975 36.1963C22.606 36.2793 22.7356 36.3208 22.8653 36.3208C22.9949 36.3208 23.1245 36.2793 23.233 36.1963C23.2586 36.1768 25.8214 34.2115 28.6615 31.5338C28.9049 31.3044 28.9161 30.9212 28.6867 30.6779C28.4574 30.4346 28.0742 30.4233 27.8308 30.6527C25.6648 32.6949 23.6651 34.3141 22.8653 34.9467C21.9149 34.1947 19.2688 32.0481 16.6536 29.4467C14.5599 27.364 12.9571 25.4659 11.8735 23.7978H17.294C17.5641 23.7978 17.8015 23.6188 17.876 23.3593L18.9339 19.6718L21.8634 29.0577C21.9423 29.3106 22.1765 29.4828 22.4414 29.4828C22.7063 29.4828 22.9404 29.3106 23.0193 29.0577L24.6416 23.8584H27.3447C27.6791 23.8584 27.9502 23.5873 27.9502 23.2529C27.9502 22.9185 27.6791 22.6474 27.3447 22.6474H24.1963C23.9314 22.6474 23.6972 22.8196 23.6183 23.0725L22.4412 26.8449L19.4873 17.381C19.4077 17.1257 19.1704 16.9523 18.9023 16.956C18.6349 16.9591 18.4011 17.1373 18.3273 17.3945L16.8377 22.5869H11.1569C10.5311 21.4052 10.2109 20.3638 10.2109 19.4832C10.2109 15.4733 13.3848 12.2109 17.2859 12.2109C19.2467 12.2109 21.0701 13.0169 22.4202 14.4804C22.5349 14.6046 22.6962 14.6753 22.8653 14.6753C23.0343 14.6753 23.1957 14.6046 23.3103 14.4804C24.6604 13.0169 26.4839 12.2109 28.4446 12.2109C31.8175 12.2109 34.6851 14.6434 35.3666 17.9705C35.1392 17.9407 34.9073 17.9252 34.6719 17.9252C31.7339 17.9252 29.3437 20.3154 29.3437 23.2533C29.3437 26.1912 31.7339 28.5815 34.6719 28.5815C37.6098 28.5815 40 26.1912 40 23.2533C40.0001 21.0145 38.612 19.0941 36.6514 18.3067ZM34.6719 27.3705C32.4017 27.3705 30.5547 25.5235 30.5547 23.2533C30.5547 20.9831 32.4017 19.1361 34.6719 19.1361C36.9421 19.1361 38.7891 20.9831 38.7891 23.2533C38.7891 25.5235 36.9421 27.3705 34.6719 27.3705Z" fill="#FAFAFA"/>
</svg>
