<svg width="48" height="48" viewBox="0 0 48 48" fill="none" xmlns="http://www.w3.org/2000/svg">
<rect width="47.7968" height="47.7968" rx="7.70916" fill="#42B0FF"/>
<path d="M26.6064 24L31.214 19.3924H34.5424C34.7747 19.3924 34.9816 19.2457 35.0585 19.0266L37.9692 10.7278C38.0387 10.5295 37.9885 10.3088 37.8398 10.1601C37.6912 10.0115 37.4706 9.96117 37.2721 10.0308L28.9735 12.9414C28.7543 13.0183 28.6076 13.2252 28.6076 13.4575V16.786L24 21.3935L19.3924 16.786V13.4575C19.3924 13.2252 19.2457 13.0183 19.0265 12.9414L10.7279 10.0308C10.5295 9.96128 10.3089 10.0115 10.1602 10.1601C10.0115 10.3088 9.96127 10.5295 10.0308 10.7278L12.9415 19.0265C13.0184 19.2457 13.2252 19.3924 13.4575 19.3924H16.786L21.3936 23.9999L10.5398 34.8537C9.82122 35.5723 9.82122 36.7416 10.5398 37.4601C10.888 37.8083 11.3508 37.9999 11.8431 37.9999C12.3354 37.9999 12.7982 37.8083 13.1463 37.4601L17.2194 33.3871C17.4329 33.1734 17.4329 32.8272 17.2194 32.6136C17.0059 32.4 16.6596 32.4 16.446 32.6136L12.3729 36.6867C12.0808 36.9789 11.6054 36.9789 11.3133 36.6867C11.0212 36.3945 11.0212 35.9192 11.3133 35.627L26.3101 20.6302L27.3698 21.6898L19.9262 29.1333C19.7126 29.3469 19.7126 29.6932 19.9262 29.9068C20.033 30.0135 20.1729 30.067 20.3129 30.067C20.4528 30.067 20.5928 30.0135 20.6996 29.9068L24 26.6064L34.8537 37.4602C35.213 37.8194 35.685 37.9991 36.1569 37.9991C36.6289 37.9991 37.1009 37.8194 37.4602 37.4601C38.1787 36.7415 38.1787 35.5723 37.4602 34.8537L26.6064 24ZM34.1547 18.2987H31.2293L30.852 17.9214L36.1427 12.6307L34.1547 18.2987ZM29.7013 13.8452L35.3693 11.8572L30.0786 17.1479L29.7013 16.7706V13.8452ZM17.7783 18.8379L18.8379 17.7783L20.9165 19.8569L19.8569 20.9165L17.7783 18.8379ZM18.2986 16.7707L17.9214 17.148L12.6307 11.8572L18.2986 13.8452V16.7707ZM11.8573 12.6307L17.148 17.9214L16.7707 18.2987H13.8452L11.8573 12.6307ZM20.6304 21.6899L21.69 20.6303L23.2266 22.1669L22.167 23.2266L20.6304 21.6899ZM27.0834 19.8569L29.162 17.7783L30.2217 18.8379L28.143 20.9166L27.0834 19.8569ZM36.6867 36.6867C36.3946 36.9789 35.9193 36.9789 35.6272 36.6867L24.7734 25.833L25.833 24.7734L36.6868 35.6271C36.9789 35.9192 36.9789 36.3946 36.6867 36.6867Z" fill="#FAFAFA"/>
<path d="M18.5723 30.7134C18.4284 30.7134 18.2873 30.772 18.1856 30.8737C18.0839 30.9754 18.0254 31.1165 18.0254 31.2603C18.0254 31.4041 18.0839 31.5452 18.1856 31.647C18.2873 31.7487 18.4284 31.8072 18.5723 31.8072C18.7161 31.8072 18.8572 31.7487 18.9589 31.647C19.0606 31.5452 19.1191 31.4041 19.1191 31.2603C19.1191 31.1165 19.0606 30.9754 18.9589 30.8737C18.8572 30.772 18.7161 30.7134 18.5723 30.7134Z" fill="#FAFAFA"/>
</svg>
