<svg width="48" height="48" viewBox="0 0 48 48" fill="none" xmlns="http://www.w3.org/2000/svg">
<rect width="47.7968" height="47.7968" rx="7.70916" fill="#42B0FF"/>
<path d="M33.1905 9H15.8077C13.9483 9 12.4355 10.5128 12.4355 12.3722V31.0311C12.4355 31.2853 12.6417 31.4915 12.8959 31.4915C13.1502 31.4915 13.3563 31.2853 13.3563 31.0311V28.9851C13.6909 29.2121 14.0943 29.3448 14.5281 29.3448H34.4701C34.904 29.3448 35.3073 29.2121 35.6419 28.9851V33.0785C35.6419 34.4302 34.5422 35.5299 33.1905 35.5299H31.6114C30.6255 35.5299 29.8233 34.7278 29.8233 33.7418V32.902C29.8233 31.6514 28.8058 30.6339 27.5553 30.6339H21.3488C20.0982 30.6339 19.0808 31.6514 19.0808 32.902V33.7418C19.0808 34.7278 18.2787 35.5299 17.2928 35.5299H15.8078C14.4561 35.5299 13.3564 34.4302 13.3564 33.0785V32.5658C13.3564 32.3116 13.1502 32.1054 12.896 32.1054C12.6418 32.1054 12.4356 32.3116 12.4356 32.5658V33.0785C12.4356 34.9379 13.9484 36.4506 15.8078 36.4506H33.1904C35.0499 36.4506 36.5626 34.9378 36.5626 33.0785V12.3722C36.5626 10.5128 35.0498 9 33.1905 9ZM19.326 35.5299C19.7463 35.0525 20.0016 34.4265 20.0016 33.7419V32.902C20.0016 32.1591 20.606 31.5548 21.3488 31.5548H27.5553C28.2982 31.5548 28.9025 32.1592 28.9025 32.902V33.7419C28.9025 34.4265 29.1577 35.0525 29.5781 35.5299H19.326ZM15.8077 9.9208H33.1904C34.3133 9.9208 35.2616 10.68 35.5507 11.7119C35.235 11.5207 34.8651 11.4106 34.47 11.4106H14.5281C14.133 11.4106 13.763 11.5207 13.4475 11.7119C13.7365 10.68 14.6849 9.9208 15.8077 9.9208ZM35.6418 15.7076H30.782C30.5277 15.7076 30.3216 15.9138 30.3216 16.168C30.3216 16.4223 30.5277 16.6284 30.782 16.6284H35.6418V27.2524C35.6418 27.8985 35.1162 28.4242 34.4701 28.4242H14.5281C13.882 28.4242 13.3563 27.8985 13.3563 27.2524V16.6284H28.9403C29.1945 16.6284 29.4007 16.4223 29.4007 16.168C29.4007 15.9138 29.1945 15.7076 28.9403 15.7076H13.3563V13.5031C13.3563 12.857 13.882 12.3313 14.5281 12.3313H34.4701C35.1162 12.3313 35.6419 12.857 35.6419 13.5031V15.7076H35.6418Z" fill="#FAFAFA"/>
<path d="M16.1661 30.4501C15.8817 30.4501 15.6054 30.5049 15.3459 30.6126C14.5389 30.9457 14.0176 31.7252 14.0176 32.5986C14.0175 33.472 14.5389 34.2515 15.3451 34.5843C15.6056 34.6923 15.8818 34.7471 16.1661 34.7471C17.3507 34.7471 18.3146 33.7833 18.3146 32.5986C18.3146 31.414 17.3508 30.4501 16.1661 30.4501ZM16.166 33.8264C16.0035 33.8264 15.846 33.7953 15.6971 33.7335C15.2362 33.5432 14.9383 33.0977 14.9383 32.5987C14.9383 32.0995 15.2361 31.6541 15.698 31.4635C15.8459 31.4021 16.0035 31.371 16.1661 31.371C16.8431 31.371 17.3938 31.9217 17.3938 32.5987C17.3938 33.2757 16.843 33.8264 16.166 33.8264Z" fill="#FAFAFA"/>
<path d="M32.8341 30.4501C32.5497 30.4501 32.2734 30.5049 32.0138 30.6126C31.2069 30.9457 30.6855 31.7252 30.6855 32.5986C30.6855 33.472 31.207 34.2515 32.0131 34.5843C32.2736 34.6923 32.5498 34.7471 32.8341 34.7471C34.0188 34.7471 34.9826 33.7833 34.9826 32.5986C34.9826 31.4139 34.0187 30.4501 32.8341 30.4501ZM32.8341 33.8263C32.6715 33.8263 32.514 33.7952 32.3652 33.7335C31.9042 33.5432 31.6063 33.0977 31.6063 32.5986C31.6063 32.0995 31.9042 31.654 32.366 31.4634C32.5139 31.402 32.6715 31.3709 32.8341 31.3709C33.5111 31.3709 34.0618 31.9217 34.0618 32.5986C34.0618 33.2756 33.511 33.8263 32.8341 33.8263Z" fill="#FAFAFA"/>
<path d="M19.1229 36.6476C18.8687 36.6476 18.6625 36.8538 18.6625 37.108V39.0792H16.0341V37.108C16.0341 36.8538 15.8279 36.6476 15.5737 36.6476C15.3194 36.6476 15.1133 36.8538 15.1133 37.108V39.5396C15.1133 39.7938 15.3194 40 15.5737 40H19.1229C19.3772 40 19.5833 39.7938 19.5833 39.5396V37.108C19.5833 36.8538 19.3772 36.6476 19.1229 36.6476Z" fill="#FAFAFA"/>
<path d="M33.4257 36.6476C33.1715 36.6476 32.9653 36.8538 32.9653 37.108V39.0792H30.3368V37.108C30.3368 36.8538 30.1306 36.6476 29.8764 36.6476C29.6222 36.6476 29.416 36.8538 29.416 37.108V39.5396C29.416 39.7938 29.6222 40 29.8764 40H33.4257C33.6799 40 33.8861 39.7938 33.8861 39.5396V37.108C33.8861 36.8538 33.68 36.6476 33.4257 36.6476Z" fill="#FAFAFA"/>
<path d="M37.4741 16.9355C37.2198 16.9355 37.0137 17.1416 37.0137 17.3959C37.0137 17.6501 37.2198 17.8563 37.4741 17.8563C37.9952 17.8563 38.4191 18.2802 38.4191 18.8013V23.5409C38.4191 24.0621 37.9951 24.486 37.4741 24.486C37.2198 24.486 37.0137 24.6921 37.0137 24.9464C37.0137 25.2006 37.2198 25.4068 37.4741 25.4068C38.5029 25.4068 39.3399 24.5698 39.3399 23.5409V18.8013C39.3399 17.7724 38.5029 16.9355 37.4741 16.9355Z" fill="#FAFAFA"/>
<path d="M11.526 24.486C11.0048 24.486 10.581 24.0621 10.581 23.541V18.8013C10.581 18.2801 11.005 17.8563 11.526 17.8563C11.7802 17.8563 11.9864 17.6502 11.9864 17.3959C11.9864 17.1417 11.7802 16.9355 11.526 16.9355C10.4972 16.9355 9.66016 17.7725 9.66016 18.8013V23.541C9.66016 24.5698 10.4972 25.4068 11.526 25.4068C11.7802 25.4068 11.9864 25.2007 11.9864 24.9464C11.9864 24.6922 11.7802 24.486 11.526 24.486Z" fill="#FAFAFA"/>
</svg>
