<svg width="48" height="48" viewBox="0 0 48 48" fill="none" xmlns="http://www.w3.org/2000/svg">
<rect width="47.7968" height="47.7968" rx="7.70916" fill="#42B0FF"/>
<g clip-path="url(#clip0)">
<path d="M34.4266 24.8225C34.1664 24.8225 33.9554 25.0335 33.9554 25.2937C33.9554 25.6236 33.687 25.892 33.3571 25.892C33.0272 25.892 32.7588 25.6236 32.7588 25.2937C32.7588 25.0334 32.5478 24.8225 32.2876 24.8225C32.0274 24.8225 31.8164 25.0335 31.8164 25.2937C31.8164 26.1433 32.5076 26.8344 33.3571 26.8344C34.2066 26.8344 34.8978 26.1432 34.8978 25.2937C34.8978 25.0333 34.6868 24.8225 34.4266 24.8225Z" fill="#FAFAFA"/>
<path d="M38.8508 24.8994L37.5245 24.4746C37.3547 24.4202 37.2208 24.2846 37.1665 24.1119C36.8869 23.2232 36.4651 22.3888 35.9127 21.632C35.661 21.287 35.381 20.9576 35.0752 20.644C35.2709 19.7857 35.3772 18.8142 35.3634 17.975C35.3437 16.7744 35.1038 16.0702 34.63 15.8221C34.3748 15.6883 33.5982 15.2818 29.3949 17.2059C29.2954 17.2514 29.2024 17.3075 29.1164 17.3718C28.833 17.2956 28.5433 17.2252 28.2519 17.1619C28.2168 17.1543 28.1807 17.1475 28.1453 17.1401C28.4859 16.396 28.6848 15.5878 28.7222 14.7536C28.7338 14.4936 28.5325 14.2734 28.2725 14.2618C28.0131 14.2489 27.7922 14.4514 27.7807 14.7114C27.7193 16.0831 27.1502 17.3738 26.1785 18.3456C25.5979 18.9262 24.9181 19.3479 24.1936 19.6135C22.9371 19.4372 21.6572 19.4372 20.4007 19.6135C19.6761 19.3479 18.9964 18.9262 18.4158 18.3456C17.379 17.3088 16.808 15.9304 16.808 14.4642C16.808 12.9979 17.379 11.6196 18.4158 10.5828C19.4525 9.54603 20.831 8.97505 22.2971 8.97505C23.7633 8.97505 25.1418 9.54603 26.1785 10.5828C26.5951 10.9995 26.9394 11.4749 27.2018 11.9958C27.3188 12.2283 27.6022 12.3219 27.8346 12.2047C28.0671 12.0877 28.1606 11.8044 28.0436 11.572C27.736 10.9611 27.3328 10.4042 26.845 9.91636C25.6302 8.7016 24.0151 8.03259 22.2972 8.03259C20.5793 8.03259 18.9642 8.7016 17.7494 9.91636C16.5347 11.1312 15.8656 12.7463 15.8656 14.4641C15.8656 16.182 16.5347 17.7972 17.7494 19.0119C18.0998 19.3623 18.481 19.6637 18.8842 19.9161C18.8844 19.9161 18.8845 19.9161 18.8846 19.9161C18.5916 19.9922 18.3009 20.0777 18.0133 20.1738C17.7665 20.2564 17.6333 20.5233 17.7158 20.7702C17.7983 21.017 18.0654 21.1502 18.3121 21.0677C20.8819 20.2086 23.7125 20.2086 26.2823 21.0677C26.3319 21.0843 26.3822 21.0921 26.4317 21.0921C26.6288 21.0921 26.8126 20.9674 26.8786 20.7702C26.9611 20.5234 26.8279 20.2564 26.5811 20.1738C26.2935 20.0777 26.0028 19.9921 25.7098 19.9161C25.7099 19.9161 25.71 19.9161 25.7102 19.9161C26.1134 19.6637 26.4946 19.3623 26.845 19.0119C27.155 18.7019 27.4286 18.3634 27.6662 18.0036C27.7961 18.0289 27.925 18.0553 28.0521 18.0829C28.2213 18.1196 28.3898 18.1591 28.5567 18.2005C28.5515 18.221 28.5461 18.2414 28.5418 18.2622C28.3119 19.3528 28.3269 20.3173 28.5861 21.1289C28.8191 21.8583 29.2395 22.4493 29.8357 22.8855C30.5383 23.3995 31.3866 23.6215 32.1551 23.6215C32.7334 23.6215 33.2666 23.4957 33.6581 23.2739C34.1011 23.023 34.4721 22.4944 34.7659 21.7007C34.9017 21.8592 35.0304 22.0216 35.1516 22.1877C35.6435 22.8615 36.0189 23.6041 36.2676 24.3947C36.4136 24.859 36.7761 25.2244 37.2372 25.3722L38.5634 25.7971C38.9114 25.9086 39.1452 26.2289 39.1452 26.5943V28.7934C39.1452 29.1588 38.9114 29.4791 38.5634 29.5906L36.4266 30.275C36.0847 30.3846 35.7954 30.6196 35.612 30.9366C34.7725 32.3875 33.4526 33.5881 31.6888 34.5051C31.485 34.6112 31.3439 34.8008 31.3014 35.0256L30.617 38.6494C30.5981 38.7492 30.5106 38.8216 30.409 38.8216H28.1838C28.0822 38.8216 27.9947 38.7492 27.9758 38.6494L27.5968 36.6466C27.5222 36.2526 27.1526 35.9908 26.7548 36.0511C25.7963 36.1961 24.8086 36.2695 23.8194 36.2695C23.0834 36.2695 22.3568 36.2284 21.6597 36.1474C21.2743 36.1031 20.9152 36.3659 20.8432 36.7464L20.483 38.6494C20.4641 38.7492 20.3766 38.8216 20.275 38.8216H18.0498C17.9482 38.8216 17.8607 38.7492 17.8416 38.6478L17.1826 35.2252C17.1402 35.0047 17.0017 34.8172 16.8024 34.7108C13.7958 33.1057 12.2066 30.4241 12.2066 26.956C12.2066 25.2038 12.5899 23.6544 13.3459 22.3506C14.0514 21.134 15.0819 20.128 16.4086 19.3606C16.6338 19.2303 16.7108 18.9421 16.5805 18.7167C16.4502 18.4915 16.162 18.4146 15.9367 18.5448C13.3642 20.0329 11.8126 22.3288 11.3854 25.2447V25.2447C11.3401 25.2406 11.2946 25.2366 11.2494 25.232C11.2577 24.9173 11.2007 24.5999 11.0768 24.2918C10.8034 23.6122 10.2418 23.1217 9.64607 23.0422C9.17658 22.9794 8.72979 23.1787 8.41973 23.5884C7.97016 24.1824 8.04346 24.6526 8.18404 24.9423C8.42137 25.4314 9.03144 25.7773 10.0438 25.9947C10.016 26.0364 9.98541 26.0783 9.95189 26.1203C9.35371 26.8705 8.64897 27.0364 8.19137 27.052C7.92349 27.0611 7.70898 27.2762 7.70898 27.5442V27.5465C7.70898 27.8109 7.91761 28.0266 8.18176 28.0386C8.21559 28.0402 8.25094 28.041 8.28775 28.041C8.86677 28.041 9.79607 27.8275 10.6889 26.708C10.8298 26.5313 10.9447 26.3448 11.033 26.1522C11.1219 26.1623 11.2073 26.1709 11.2891 26.1785C11.2891 26.1783 11.2891 26.1781 11.2892 26.178C11.2731 26.4333 11.2642 26.6924 11.2642 26.956C11.2642 28.9182 11.732 30.6677 12.6545 32.1562C13.505 33.5285 14.7228 34.6521 16.2752 35.4971L16.9159 38.8245C17.0189 39.3689 17.4958 39.764 18.0498 39.764H20.275C20.829 39.764 21.3059 39.3689 21.4089 38.8245L21.7346 37.1039C22.411 37.1756 23.1113 37.2119 23.8193 37.2119C24.7907 37.2119 25.7609 37.1442 26.7064 37.0106L27.0498 38.8247C27.1528 39.369 27.6297 39.7641 28.1837 39.7641H30.4089C30.9629 39.7641 31.4398 39.369 31.5429 38.8244L32.2093 35.2962C34.0918 34.3008 35.5107 32.9931 36.4276 31.4086C36.4936 31.2944 36.5954 31.2106 36.714 31.1726L38.8508 30.4881C39.5905 30.2511 40.0875 29.57 40.0875 28.7933V26.5941C40.0875 25.8174 39.5905 25.1364 38.8508 24.8994ZM34.3503 19.2992C34.1689 20.8502 33.6824 22.1769 33.1936 22.4538C32.638 22.7685 31.3551 22.8293 30.392 22.1248C29.4277 21.4194 29.1068 20.1509 29.4638 18.4565C29.4638 18.4564 29.4638 18.4564 29.4638 18.4564C29.4996 18.2863 29.6206 18.139 29.7872 18.0628C32.1463 16.9829 33.5064 16.6297 34.0116 16.6297C34.0879 16.6297 34.1447 16.6377 34.1825 16.6525C34.3343 16.8143 34.5334 17.7339 34.3503 19.2992ZM9.03201 24.5308C8.98325 24.4303 9.09835 24.2535 9.17133 24.157C9.28699 24.0042 9.39355 23.973 9.47405 23.973C9.49107 23.973 9.50694 23.9744 9.52148 23.9763C9.73814 24.0052 10.0417 24.2437 10.2025 24.6434C10.2404 24.7375 10.2896 24.8934 10.3011 25.0878C9.64878 24.9526 9.14199 24.7578 9.03201 24.5308Z" fill="#FAFAFA"/>
<path d="M22.7531 13.9241V12.2379C23.3346 12.2794 23.5507 12.5452 23.75 12.5452C23.9992 12.5452 24.1155 12.2296 24.1155 12.0718C24.1155 11.6647 23.318 11.4903 22.7531 11.4736V11.2493C22.7531 11.1496 22.6285 11.0582 22.5039 11.0582C22.3626 11.0582 22.263 11.1496 22.263 11.2493V11.4902C21.4738 11.5732 20.6847 11.9886 20.6847 13.0353C20.6847 14.0986 21.5154 14.3976 22.263 14.6634V16.6156C21.4156 16.5491 21.1914 15.9676 20.9172 15.9676C20.7096 15.9676 20.5352 16.2418 20.5352 16.4412C20.5352 16.8482 21.2329 17.4047 22.263 17.4214V17.6789C22.263 17.7785 22.3627 17.8699 22.5039 17.8699C22.6286 17.8699 22.7531 17.7785 22.7531 17.6789V17.3964C23.6503 17.2718 24.265 16.7069 24.265 15.6852C24.265 14.5555 23.4758 14.1899 22.7531 13.9241ZM22.3128 13.7663C21.8725 13.6002 21.5154 13.4258 21.5154 12.9523C21.5154 12.5203 21.8476 12.3126 22.3128 12.2545V13.7663ZM22.7032 16.5989V14.8462C23.1103 15.0206 23.4342 15.2532 23.4342 15.7765C23.4342 16.2501 23.1518 16.5159 22.7032 16.5989Z" fill="#FAFAFA"/>
</g>
<defs>
<clipPath id="clip0">
<rect width="32.3785" height="32.3785" fill="white" transform="translate(7.70898 7.70917)"/>
</clipPath>
</defs>
</svg>
