<svg width="48" height="48" viewBox="0 0 48 48" fill="none" xmlns="http://www.w3.org/2000/svg">
<rect width="47.7968" height="47.7968" rx="7.70916" fill="#E3E3E3"/>
<g clip-path="url(#clip0)">
<path d="M36.4341 29.6659C35.6915 28.8698 34.4398 28.8263 33.6438 29.5687L33.4085 29.7881L31.1702 28.3258L31.3257 24.942C31.4406 22.4402 31.3183 21.6416 30.453 19.2455C29.7834 17.3911 28.8699 15.074 28.136 13.2121C27.6107 11.8796 27.157 10.7287 27.0115 10.2965C27.0108 10.2947 27.0102 10.2928 27.0095 10.2909C26.6268 9.19109 25.6213 8.84098 24.826 9.0637C24.5235 9.14838 24.2313 9.32411 24.0014 9.58252C23.7716 9.32411 23.4794 9.14838 23.1769 9.0637C22.3815 8.84109 21.3761 9.19104 20.9933 10.2908C20.9927 10.2927 20.992 10.2945 20.9914 10.2965C20.8748 10.6425 20.5565 11.4594 20.2298 12.2905C20.1114 12.5918 20.2596 12.9319 20.5608 13.0502C20.8622 13.1688 21.2022 13.0203 21.3205 12.7193C21.7033 11.7452 21.9827 11.0243 22.101 10.6735C22.2542 10.237 22.5927 10.1172 22.8609 10.1923C23.1405 10.2706 23.3919 10.5754 23.2604 11.1965L21.8918 17.0819C21.5987 17.2953 21.3134 17.6487 21.0778 18.2139C20.3991 19.8414 19.8285 21.5771 19.5122 22.9759C19.4408 23.2916 19.6389 23.6052 19.9545 23.6767C20.2701 23.748 20.5839 23.55 20.6553 23.2344C20.9573 21.8984 21.5056 20.233 22.1594 18.665C22.4658 17.9302 22.7301 17.9542 22.8296 17.9631C23.1477 17.9917 23.3833 18.2757 23.3547 18.5963C23.3279 18.898 23.2106 19.9975 23.0971 21.0608C22.9778 22.1779 22.8652 23.2331 22.8375 23.545C22.7692 24.3119 22.904 25.2425 23.0467 26.2277C23.4602 29.0836 23.9716 32.6171 20.1589 34.9782L15.4768 30.6114L17.7537 29.1238C17.9273 29.0103 18.028 28.8136 18.0185 28.6064L17.8477 24.8883C17.7397 22.5364 17.8374 21.8993 18.652 19.6436C18.8634 19.0581 19.1093 18.3981 19.4038 17.6261C19.5191 17.3238 19.3674 16.9851 19.0651 16.8698C18.7627 16.7545 18.4241 16.9062 18.3088 17.2085C18.0118 17.9871 17.7636 18.6534 17.5497 19.2456C16.6844 21.6417 16.5622 22.4402 16.6771 24.9421L16.8325 28.3258L14.5941 29.7882L14.359 29.5689C13.5629 28.8263 12.3112 28.8699 11.5686 29.666C10.8262 30.4621 10.8698 31.7139 11.6659 32.4564L18.1142 38.4705C18.4941 38.8249 18.9776 39.0001 19.4601 39.0001C19.9888 39.0001 20.5163 38.7896 20.9045 38.3734C21.2642 37.9877 21.4522 37.4851 21.4338 36.9581C21.4192 36.5384 21.2748 36.1434 21.0219 35.8183C22.4769 34.8634 23.4605 33.6839 24.0013 32.2433C24.542 33.6839 25.5256 34.8634 26.9806 35.8183C26.7278 36.1434 26.5833 36.5384 26.5687 36.9581C26.5504 37.4851 26.7383 37.9877 27.098 38.3734C27.4863 38.7897 28.0136 39.0001 28.5424 39.0001C29.0249 39.0001 29.5085 38.8248 29.8883 38.4705L36.3367 32.4564C37.133 31.7138 37.1766 30.462 36.4341 29.6659ZM20.0477 37.5739C19.7459 37.8975 19.2372 37.9151 18.9137 37.6134L12.4653 31.5992C12.1418 31.2975 12.1241 30.7888 12.4259 30.4652C12.5836 30.296 12.7979 30.2105 13.0129 30.2105C13.2089 30.2105 13.4055 30.2818 13.5598 30.4258L20.0082 36.44C20.1649 36.5861 20.2553 36.7846 20.2628 36.9987C20.2702 37.2129 20.1939 37.4172 20.0477 37.5739ZM23.1537 16.8294L24.0014 13.1841L24.8492 16.8294C24.521 16.9015 24.2303 17.0651 24.0014 17.2899C23.7726 17.0651 23.4819 16.9015 23.1537 16.8294ZM24.0014 23.6974C24.0159 23.893 24.0146 24.1064 24.0014 24.3361C23.9884 24.1064 23.987 23.893 24.0014 23.6974ZM24.9562 26.2276C25.0989 25.2424 25.2336 24.3119 25.1654 23.5449C25.1376 23.233 25.025 22.1779 24.9058 21.0607C24.7923 19.9974 24.675 18.8979 24.6481 18.5961C24.6196 18.2756 24.8551 17.9916 25.1732 17.9629C25.2729 17.9542 25.5371 17.9301 25.8434 18.6649C26.4973 20.2329 27.0455 21.8984 27.3476 23.2343C27.4189 23.5499 27.7327 23.7479 28.0483 23.6766C28.364 23.6051 28.562 23.2915 28.4906 22.9757C28.1743 21.577 27.6037 19.8413 26.925 18.2138C26.6893 17.6485 26.4042 17.2952 26.111 17.0817L24.7425 11.1965C24.611 10.5754 24.8624 10.2706 25.1419 10.1923C25.4102 10.1172 25.7488 10.2371 25.9019 10.6737C26.0578 11.1359 26.4939 12.2422 27.0457 13.6419C27.7769 15.4967 28.6869 17.805 29.3508 19.6435C30.1653 21.8991 30.263 22.5363 30.1549 24.8882L29.9841 28.6063C29.9746 28.8135 30.0754 29.0103 30.249 29.1237L32.5258 30.6113L27.8438 34.9781C24.0312 32.617 24.5426 29.0835 24.9562 26.2276ZM35.5375 31.5992L29.0892 37.6134C28.7657 37.9151 28.257 37.8974 27.9552 37.5739C27.809 37.4172 27.7327 37.2129 27.7401 36.9987C27.7476 36.7846 27.838 36.5862 27.9947 36.44L34.4431 30.4258C34.5974 30.2818 34.794 30.2105 34.99 30.2105C35.2049 30.2105 35.4192 30.2961 35.577 30.4652C35.8788 30.7888 35.8611 31.2975 35.5375 31.5992Z" fill="#6F6F6F"/>
<path d="M19.578 15.4973C19.6532 15.5296 19.7315 15.5449 19.8085 15.5449C20.0359 15.5449 20.2521 15.4118 20.3474 15.1896C20.4748 14.8922 20.3372 14.5475 20.0397 14.42C19.7422 14.2923 19.3976 14.4305 19.2702 14.7279C19.1427 15.0254 19.2805 15.3698 19.578 15.4973Z" fill="#6F6F6F"/>
</g>
<defs>
<clipPath id="clip0">
<rect width="30" height="30" fill="white" transform="translate(9 9)"/>
</clipPath>
</defs>
</svg>
