<svg width="48" height="48" viewBox="0 0 48 48" fill="none" xmlns="http://www.w3.org/2000/svg">
<rect width="47.7968" height="47.7968" rx="7.70916" fill="#42B0FF"/>
<g clip-path="url(#clip0)">
<path d="M25.4614 8C25.2106 8 25.0073 8.20326 25.0073 8.4541V11.2207H19.7722C19.2802 11.2207 18.88 11.6209 18.88 12.1129V22.9439L12.0416 27.2742C11.5498 27.5856 11.2562 28.1189 11.2562 28.7009V38.0921C11.0084 38.0956 10.8086 38.2972 10.8086 38.5459C10.8086 38.7967 11.0118 39 11.2627 39H35.7336C35.9845 39 36.1877 38.7967 36.1877 38.5459C36.1877 38.2967 35.9871 38.0948 35.7386 38.092V30.4964C35.7386 30.2456 35.5354 30.0423 35.2845 30.0423C35.0337 30.0423 34.8304 30.2456 34.8304 30.4964V38.0918H27.958V20.85H34.8305V28.3773C34.8305 28.6281 35.0338 28.8314 35.2846 28.8314C35.5355 28.8314 35.7387 28.6281 35.7387 28.3773V20.8341C35.7387 20.3421 35.3385 19.9418 34.8465 19.9418H32.043V12.113C32.043 11.621 31.6427 11.2207 31.1507 11.2207H29.6231C29.3723 11.2207 29.169 11.424 29.169 11.6748C29.169 11.9257 29.3723 12.1289 29.6231 12.1289H31.1348V19.9418H30.0006V13.8792C30.0006 13.6283 29.7974 13.4251 29.5465 13.4251C29.2957 13.4251 29.0924 13.6283 29.0924 13.8792V19.9418H27.9581V13.8792C27.9581 13.6283 27.7549 13.4251 27.504 13.4251C27.2532 13.4251 27.0499 13.6283 27.0499 13.8792V38.0918H19.7882C19.7882 37.8437 19.7882 12.7855 19.7882 12.1289H27.5039C27.7548 12.1289 27.958 11.9256 27.958 11.6748C27.958 11.4239 27.7548 11.2207 27.5039 11.2207H25.9156V8.4541C25.9155 8.20326 25.7123 8 25.4614 8V8ZM18.88 38.0918H12.1644V28.7009C12.1644 28.4319 12.3001 28.1854 12.5274 28.0415L18.88 24.0189V38.0918Z" fill="#FAFAFA"/>
<path d="M20.9219 13.8792V36.5944C20.9219 36.8452 21.1251 37.0485 21.376 37.0485C21.6268 37.0485 21.8301 36.8452 21.8301 36.5944V13.8792C21.8301 13.6283 21.6268 13.425 21.376 13.425C21.1251 13.425 20.9219 13.6283 20.9219 13.8792Z" fill="#FAFAFA"/>
<path d="M25.0078 13.8792V36.5944C25.0078 36.8452 25.2111 37.0485 25.4619 37.0485C25.7128 37.0485 25.916 36.8452 25.916 36.5944V13.8792C25.916 13.6283 25.7128 13.425 25.4619 13.425C25.2111 13.425 25.0078 13.6283 25.0078 13.8792Z" fill="#FAFAFA"/>
<path d="M22.9648 13.8792V36.5944C22.9648 36.8452 23.1681 37.0485 23.4189 37.0485C23.6698 37.0485 23.873 36.8452 23.873 36.5944V13.8792C23.873 13.6283 23.6698 13.425 23.4189 13.425C23.1681 13.425 22.9648 13.6283 22.9648 13.8792Z" fill="#FAFAFA"/>
<path d="M15.5225 31.6188C15.7733 31.6188 15.9766 31.4156 15.9766 31.1647V30.6512C15.9766 30.4003 15.7733 30.1971 15.5225 30.1971C15.2716 30.1971 15.0684 30.4003 15.0684 30.6512V31.1647C15.0684 31.4155 15.2717 31.6188 15.5225 31.6188Z" fill="#FAFAFA"/>
<path d="M13.8018 31.6188C14.0526 31.6188 14.2559 31.4156 14.2559 31.1647V30.6512C14.2559 30.4003 14.0526 30.1971 13.8018 30.1971C13.5509 30.1971 13.3477 30.4003 13.3477 30.6512V31.1647C13.3477 31.4155 13.5509 31.6188 13.8018 31.6188Z" fill="#FAFAFA"/>
<path d="M17.2412 31.6188C17.4921 31.6188 17.6953 31.4156 17.6953 31.1647V30.6512C17.6953 30.4003 17.4921 30.1971 17.2412 30.1971C16.9904 30.1971 16.7871 30.4003 16.7871 30.6512V31.1647C16.7871 31.4155 16.9904 31.6188 17.2412 31.6188Z" fill="#FAFAFA"/>
<path d="M15.5225 34.3336C15.7733 34.3336 15.9766 34.1304 15.9766 33.8795V33.366C15.9766 33.1151 15.7733 32.9119 15.5225 32.9119C15.2716 32.9119 15.0684 33.1151 15.0684 33.366V33.8795C15.0684 34.1303 15.2717 34.3336 15.5225 34.3336Z" fill="#FAFAFA"/>
<path d="M13.8018 34.3336C14.0526 34.3336 14.2559 34.1304 14.2559 33.8795V33.366C14.2559 33.1151 14.0526 32.9119 13.8018 32.9119C13.5509 32.9119 13.3477 33.1151 13.3477 33.366V33.8795C13.3477 34.1303 13.5509 34.3336 13.8018 34.3336Z" fill="#FAFAFA"/>
<path d="M17.2412 34.3336C17.4921 34.3336 17.6953 34.1304 17.6953 33.8795V33.366C17.6953 33.1151 17.4921 32.9119 17.2412 32.9119C16.9904 32.9119 16.7871 33.1151 16.7871 33.366V33.8795C16.7871 34.1303 16.9904 34.3336 17.2412 34.3336Z" fill="#FAFAFA"/>
<path d="M15.5225 28.904C15.7733 28.904 15.9766 28.7007 15.9766 28.4499V27.9363C15.9766 27.6855 15.7733 27.4822 15.5225 27.4822C15.2716 27.4822 15.0684 27.6855 15.0684 27.9363V28.4499C15.0684 28.7007 15.2717 28.904 15.5225 28.904Z" fill="#FAFAFA"/>
<path d="M17.2412 28.904C17.4921 28.904 17.6953 28.7007 17.6953 28.4499V27.9363C17.6953 27.6855 17.4921 27.4822 17.2412 27.4822C16.9904 27.4822 16.7871 27.6855 16.7871 27.9363V28.4499C16.7871 28.7007 16.9904 28.904 17.2412 28.904Z" fill="#FAFAFA"/>
<path d="M15.5225 37.0485C15.7733 37.0485 15.9766 36.8453 15.9766 36.5944V36.0809C15.9766 35.83 15.7733 35.6268 15.5225 35.6268C15.2716 35.6268 15.0684 35.83 15.0684 36.0809V36.5944C15.0684 36.8452 15.2717 37.0485 15.5225 37.0485Z" fill="#FAFAFA"/>
<path d="M13.8018 37.0485C14.0526 37.0485 14.2559 36.8453 14.2559 36.5944V36.0809C14.2559 35.83 14.0526 35.6268 13.8018 35.6268C13.5509 35.6268 13.3477 35.83 13.3477 36.0809V36.5944C13.3477 36.8452 13.5509 37.0485 13.8018 37.0485Z" fill="#FAFAFA"/>
<path d="M17.2412 37.0485C17.4921 37.0485 17.6953 36.8453 17.6953 36.5944V36.0809C17.6953 35.83 17.4921 35.6268 17.2412 35.6268C16.9904 35.6268 16.7871 35.83 16.7871 36.0809V36.5944C16.7871 36.8452 16.9904 37.0485 17.2412 37.0485Z" fill="#FAFAFA"/>
<path d="M33.2694 33.1804H29.5166C29.2658 33.1804 29.0625 33.3836 29.0625 33.6345C29.0625 33.8853 29.2658 34.0886 29.5166 34.0886H33.2694C33.5203 34.0886 33.7235 33.8853 33.7235 33.6345C33.7235 33.3836 33.5202 33.1804 33.2694 33.1804Z" fill="#FAFAFA"/>
<path d="M33.2694 35.2791H29.5166C29.2658 35.2791 29.0625 35.4824 29.0625 35.7332C29.0625 35.9841 29.2658 36.1873 29.5166 36.1873H33.2694C33.5203 36.1873 33.7235 35.9841 33.7235 35.7332C33.7235 35.4824 33.5202 35.2791 33.2694 35.2791Z" fill="#FAFAFA"/>
<path d="M33.2694 26.884H29.5166C29.2658 26.884 29.0625 27.0873 29.0625 27.3381C29.0625 27.589 29.2658 27.7922 29.5166 27.7922H33.2694C33.5203 27.7922 33.7235 27.589 33.7235 27.3381C33.7235 27.0873 33.5202 26.884 33.2694 26.884Z" fill="#FAFAFA"/>
<path d="M33.2694 28.9828H29.5166C29.2658 28.9828 29.0625 29.1861 29.0625 29.437C29.0625 29.6878 29.2658 29.8911 29.5166 29.8911H33.2694C33.5203 29.8911 33.7235 29.6878 33.7235 29.437C33.7235 29.1861 33.5202 28.9828 33.2694 28.9828Z" fill="#FAFAFA"/>
<path d="M33.2694 31.0815H29.5166C29.2658 31.0815 29.0625 31.2848 29.0625 31.5356C29.0625 31.7865 29.2658 31.9897 29.5166 31.9897H33.2694C33.5203 31.9897 33.7235 31.7865 33.7235 31.5356C33.7235 31.2848 33.5202 31.0815 33.2694 31.0815Z" fill="#FAFAFA"/>
<path d="M33.2694 22.6864H29.5166C29.2658 22.6864 29.0625 22.8897 29.0625 23.1405C29.0625 23.3913 29.2658 23.5946 29.5166 23.5946H33.2694C33.5203 23.5946 33.7235 23.3913 33.7235 23.1405C33.7235 22.8897 33.5202 22.6864 33.2694 22.6864Z" fill="#FAFAFA"/>
<path d="M33.2694 24.7853H29.5166C29.2658 24.7853 29.0625 24.9885 29.0625 25.2394C29.0625 25.4902 29.2658 25.6935 29.5166 25.6935H33.2694C33.5203 25.6935 33.7235 25.4902 33.7235 25.2394C33.7235 24.9885 33.5202 24.7853 33.2694 24.7853Z" fill="#FAFAFA"/>
</g>
<defs>
<clipPath id="clip0">
<rect width="31" height="31" fill="white" transform="translate(8 8)"/>
</clipPath>
</defs>
</svg>
