<svg width="48" height="48" viewBox="0 0 48 48" fill="none" xmlns="http://www.w3.org/2000/svg">
<rect width="47.7968" height="47.7968" rx="7.70916" fill="#E3E3E3"/>
<path d="M15.9531 32.5334C15.9531 33.46 16.707 34.2139 17.6337 34.2139C18.5603 34.2139 19.3142 33.46 19.3142 32.5334C19.3142 31.6067 18.5603 30.8528 17.6337 30.8528C16.707 30.8528 15.9531 31.6067 15.9531 32.5334ZM18.3475 32.5334C18.3475 32.9269 18.0273 33.2471 17.6337 33.2471C17.2402 33.2471 16.9199 32.9269 16.9199 32.5334C16.9199 32.1398 17.2401 31.8196 17.6337 31.8196C18.0274 31.8196 18.3475 32.1398 18.3475 32.5334Z" fill="#6F6F6F"/>
<path d="M37.088 22.1391C38.1605 21.5279 38.1618 19.982 37.088 19.37C36.8498 19.2343 36.7146 18.9508 36.7942 18.6585C37.1198 17.4692 36.0299 16.3741 34.8348 16.7011C34.5587 16.7768 34.2666 16.6558 34.1248 16.4069C33.5137 15.3344 31.9677 15.3332 31.3559 16.4069C31.2141 16.6558 30.9221 16.7768 30.6443 16.7007C29.4843 16.3832 28.3594 17.427 28.6869 18.6601C28.7626 18.9363 28.6416 19.2283 28.3927 19.3701C27.3202 19.9813 27.319 21.5272 28.3927 22.1391C28.6416 22.2809 28.7626 22.5729 28.6865 22.8506C28.3608 24.0399 29.4509 25.1351 30.6458 24.808C30.9221 24.7324 31.2141 24.8534 31.3559 25.1022C31.9671 26.1748 33.513 26.1759 34.1248 25.1022C34.2666 24.8533 34.5585 24.7324 34.8364 24.8084C36.0241 25.1337 37.1221 24.0452 36.7938 22.8491C36.7182 22.5729 36.8391 22.2809 37.088 22.1391ZM36.6094 21.2991C35.9872 21.6537 35.6649 22.3887 35.8618 23.106C35.9896 23.5732 35.562 24.0048 35.0903 23.8756C34.3877 23.6832 33.6455 23.9909 33.2849 24.6236C33.0445 25.0455 32.4365 25.0458 32.1959 24.6236C31.8363 23.9925 31.0948 23.6827 30.389 23.876C29.922 24.0039 29.4902 23.5763 29.6194 23.1045C29.8117 22.4021 29.5041 21.6597 28.8714 21.2991C28.4496 21.0588 28.4491 20.4508 28.8714 20.2101C29.5042 19.8495 29.8117 19.1071 29.621 18.4108C29.4891 17.9141 29.9338 17.5086 30.3905 17.6337C31.0928 17.8259 31.8353 17.5184 32.1958 16.8857C32.4362 16.4638 33.0443 16.4635 33.2849 16.8857C33.6455 17.5184 34.3879 17.8259 35.0917 17.6333C35.5557 17.5061 35.9911 17.9291 35.8613 18.4049C35.6691 19.1073 35.9766 19.8496 36.6093 20.2102C37.0311 20.4505 37.0317 21.0585 36.6094 21.2991Z" fill="#6F6F6F"/>
<path d="M38.8939 15.963C38.7297 15.7525 38.426 15.7149 38.2154 15.8791C38.0049 16.0432 37.9674 16.347 38.1315 16.5575C39.0743 17.7665 39.5727 19.2178 39.5727 20.7545C39.5727 24.5216 36.5079 27.5863 32.7409 27.5863C29.0578 27.5863 26.0357 24.6433 25.9134 20.9854C27.3151 19.5826 27.2642 19.6402 27.3423 19.5447C27.3588 19.5153 27.7047 19.1467 27.7047 18.5254C27.7047 17.6569 27.0772 17.2693 26.9605 17.1125C28.2081 15.136 30.3906 13.9228 32.741 13.9228C34.2344 13.9228 35.6528 14.3959 36.8431 15.2912C37.0565 15.4517 37.3595 15.4088 37.52 15.1954C37.6805 14.9821 37.6375 14.679 37.4242 14.5185C36.0651 13.4964 34.4456 12.9561 32.741 12.9561C30.1312 12.9561 27.7036 14.267 26.2626 16.4146L25.9233 16.0753C25.4128 15.5648 24.6428 15.4684 24.0341 15.7858L18.0337 9.7853C17.1416 8.89339 15.7555 8.79065 14.749 9.47598L13.7974 8.52446C13.0982 7.82521 11.9664 7.82515 11.2671 8.52446L9.98857 9.80296C9.28932 10.5022 9.28926 11.634 9.98857 12.3333L10.9397 13.2844C10.3592 14.1336 10.3442 15.2497 10.8844 16.1108C9.02171 18.2111 8 20.8899 8 23.6999C8 25.2523 8.30809 26.76 8.91569 28.1811C9.02062 28.4266 9.3046 28.5404 9.55016 28.4355C9.79566 28.3306 9.90955 28.0465 9.80462 27.801C9.24865 26.5006 8.9668 25.1208 8.9668 23.6998C8.9668 21.1691 9.87185 18.754 11.5252 16.8452L14.0431 19.3632C13.0542 20.5934 12.5145 22.1162 12.5145 23.6998C12.5145 25.922 13.5912 28.0025 15.3692 29.2982C14.5352 29.9485 14.3455 30.5636 13.2701 32.1561C12.2718 31.4269 11.4174 30.5356 10.7259 29.5009C10.5776 29.2789 10.2775 29.2193 10.0554 29.3676C9.83343 29.516 9.77375 29.8162 9.92212 30.0381C10.688 31.1841 11.6375 32.1684 12.7479 32.9708L11.1126 35.5223C9.64007 35.6603 8.48359 36.9029 8.48359 38.411V39.4812C8.48366 40.3187 9.16493 41 10.0024 41H32.1563C33.2178 41 34.0814 40.1364 34.0814 39.0749C34.0814 37.1087 32.4818 35.5092 30.5157 35.5092H21.7659V33.7625H28.9427C29.7431 33.7625 30.3944 33.1113 30.3944 32.3108C30.3944 30.6726 29.0616 29.3398 27.4234 29.3398H20.2824C19.603 28.7932 18.7407 28.4651 17.8029 28.4651C17.2774 28.4651 16.7684 28.5678 16.2993 28.7596C14.5552 27.6737 13.4813 25.7573 13.4813 23.6999C13.4813 22.3732 13.9229 21.0962 14.7322 20.0522L17.2496 22.5696C16.9341 23.1718 17.0227 23.9424 17.5394 24.4591L18.848 25.7677C19.479 26.3986 20.5002 26.3987 21.1312 25.7677L25.0229 21.876C25.2611 23.5395 26.0273 25.0747 27.2388 26.281C28.7103 27.7462 30.6643 28.5531 32.741 28.5531C37.0411 28.5531 40.5395 25.0547 40.5395 20.7546C40.5395 19.0005 39.9704 17.3435 38.8939 15.963ZM33.1146 39.0749C33.1146 39.6033 32.6847 40.0332 32.1563 40.0332H10.0024C9.69802 40.0332 9.45045 39.7856 9.45045 39.4813V38.4111C9.45045 37.344 10.3185 36.4759 11.3855 36.4759H30.5157C31.9488 36.4759 33.1146 37.6418 33.1146 39.0749ZM27.4234 30.3066C28.5285 30.3066 29.4276 31.2057 29.4276 32.3108C29.4276 32.5782 29.21 32.7957 28.9427 32.7957H21.766C21.7417 32.6301 21.9125 31.5093 21.1492 30.3066H27.4234ZM20.7986 32.4067C20.7987 32.4139 20.7992 32.421 20.7992 32.4281V35.5092H12.2695C15.4991 30.4706 15.3343 30.7073 15.5284 30.4784C16.085 29.8305 16.9009 29.4319 17.8029 29.4319C19.4374 29.4319 20.7866 30.7516 20.7986 32.4067ZM17.35 10.4689L23.2981 16.4171L19.6868 20.0284L17.8812 21.834C11.482 15.4347 11.9338 15.8887 11.8707 15.8197C11.3015 15.1845 11.3201 14.207 11.9331 13.5942L15.0583 10.4689C15.69 9.83724 16.7181 9.83699 17.35 10.4689ZM10.6722 10.4865L11.9507 9.20805C12.2713 8.8874 12.7931 8.88733 13.1138 9.20805L14.0328 10.1271L11.5913 12.5687L10.6722 11.6497C10.3515 11.329 10.3515 10.8072 10.6722 10.4865ZM20.4476 25.084C20.1946 25.337 19.7847 25.3371 19.5316 25.084L18.223 23.7754C17.9699 23.5223 17.9698 23.1126 18.223 22.8594L20.2565 20.8259L24.3237 16.7587C24.5768 16.5058 24.9864 16.5057 25.2395 16.7588L26.5481 18.0674C26.7946 18.3147 26.8065 18.7235 26.5481 18.9834L20.4476 25.084Z" fill="#6F6F6F"/>
</svg>
