<svg width="48" height="48" viewBox="0 0 48 48" fill="none" xmlns="http://www.w3.org/2000/svg">
<rect width="47.7968" height="47.7968" rx="7.70916" fill="#E3E3E3"/>
<path d="M29.2917 34.6985C29.0166 34.6985 28.7937 34.9215 28.7937 35.1966V36.6801C28.7937 37.6587 28.4444 38.6081 27.8101 39.3535C27.7335 39.4435 27.6914 39.5579 27.6914 39.6762V40.4844C27.6914 40.7595 27.9143 40.9824 28.1894 40.9824C28.4645 40.9824 28.6874 40.7595 28.6874 40.4844V39.8541C29.3996 38.9522 29.7897 37.8325 29.7897 36.6801V35.1966C29.7897 34.9215 29.5667 34.6985 29.2917 34.6985Z" fill="#6F6F6F"/>
<path d="M28.1904 25.5466C27.9637 25.5466 27.7481 25.5942 27.5524 25.6796C27.401 24.9537 26.7561 24.4066 25.9859 24.4066C25.7679 24.4066 25.5601 24.4506 25.3705 24.5298C25.2782 23.7346 24.6009 23.1151 23.7814 23.1151C23.1928 23.1151 22.6778 23.4347 22.3998 23.9093C22.1592 23.7644 21.8776 23.6809 21.5768 23.6809C20.6944 23.6809 19.9766 24.3987 19.9766 25.2812V30.5077C19.9423 30.4567 19.9083 30.4061 19.8748 30.3563C19.3814 29.6227 18.4054 29.4116 17.6529 29.8759C17.0141 30.2701 16.7254 31.0454 16.9511 31.7613L17.8373 34.5735L18.0783 36.0557C18.3104 37.4834 19.123 38.7658 20.3125 39.5858V40.4844C20.3125 40.7594 20.5355 40.9824 20.8105 40.9824C21.0855 40.9824 21.3085 40.7594 21.3085 40.4844V39.5097C21.3085 39.2244 21.1669 38.9594 20.9295 38.8008C19.9343 38.136 19.2534 37.0772 19.0613 35.8958L18.8146 34.3781C18.8107 34.3545 18.8052 34.3312 18.798 34.3083L17.901 31.4619C17.8126 31.1815 17.9257 30.8779 18.1759 30.7235C18.4714 30.5413 18.8546 30.6241 19.0482 30.912C19.5091 31.5975 20.0609 32.42 20.0609 32.42C20.183 32.6021 20.4099 32.6827 20.6195 32.619C20.8292 32.5552 20.9725 32.3617 20.9725 32.1426V25.2812C20.9725 24.9479 21.2435 24.6769 21.5767 24.6769C21.9099 24.6769 22.181 24.9479 22.181 25.2812V32.1427C22.181 32.4177 22.404 32.6407 22.679 32.6407C22.954 32.6407 23.177 32.4177 23.177 32.1427V24.7154C23.177 24.3822 23.4481 24.1111 23.7813 24.1111C24.1145 24.1111 24.3855 24.3822 24.3855 24.7154V32.1427C24.3855 32.4178 24.6084 32.6408 24.8835 32.6408C25.1586 32.6408 25.3816 32.4178 25.3816 32.1427V26.0069C25.3816 25.6737 25.6526 25.4027 25.9858 25.4027C26.3191 25.4027 26.5901 25.6738 26.5901 26.0069V32.1427C26.5901 32.4178 26.8131 32.6408 27.0882 32.6408C27.3633 32.6408 27.5862 32.4178 27.5862 32.1427V27.1456C27.5869 26.813 27.8576 26.5427 28.1904 26.5427C28.5236 26.5427 28.7947 26.8137 28.7947 27.1469V33.0507C28.7947 33.3257 29.0176 33.5487 29.2927 33.5487C29.5678 33.5487 29.7907 33.3257 29.7907 33.0507V27.1469C29.7907 26.2644 29.0728 25.5466 28.1904 25.5466Z" fill="#6F6F6F"/>
<path d="M18.3161 23.3928C18.5727 23.5652 18.8739 23.6596 19.1901 23.6628C19.1957 23.6628 19.2012 23.6628 19.2067 23.6628C19.6279 23.6628 20.0251 23.5007 20.3263 23.2054C20.4821 23.0527 20.5997 22.8756 20.6796 22.6862C20.9715 22.9223 21.3278 23.0414 21.6848 23.0414C22.0891 23.0414 22.4939 22.8895 22.8048 22.5848C23.2249 22.173 23.3678 21.5849 23.2346 21.0516C23.5146 20.9854 23.7724 20.8442 23.9832 20.6376C24.2885 20.3384 24.4589 19.9383 24.4633 19.5108C24.4675 19.0833 24.3052 18.6799 24.006 18.3746L20.3476 14.6419C20.4077 14.6543 20.4674 14.6667 20.5262 14.6787C21.3918 14.8574 22.2367 14.325 22.4492 13.4666C22.6296 12.7379 22.293 11.9822 21.6307 11.6288L19.0295 10.2408L17.8199 9.35091C16.6548 8.49372 15.1769 8.1469 13.7533 8.39365L12.534 7.14954C12.3415 6.95306 12.0261 6.95001 11.8297 7.14244C11.6333 7.33494 11.6301 7.65028 11.8226 7.8467L13.2278 9.28045C13.3442 9.39925 13.5122 9.45224 13.6758 9.42129L13.8621 9.38617C15.0383 9.16432 16.2657 9.44394 17.2297 10.1532L18.4682 11.0644C18.4875 11.0786 18.5078 11.0914 18.5289 11.1027L21.162 12.5077C21.4213 12.646 21.5531 12.9421 21.4825 13.2274C21.3991 13.5644 21.0675 13.7733 20.7275 13.7034C19.9186 13.5365 18.9488 13.3353 18.9487 13.3352C18.7342 13.2907 18.5156 13.3917 18.4105 13.5841C18.3054 13.7765 18.3385 14.0149 18.4919 14.1714L23.2948 19.0718C23.4077 19.1871 23.4691 19.3394 23.4674 19.5008C23.4658 19.6622 23.4014 19.8133 23.2862 19.9263C23.1709 20.0393 23.0199 20.1034 22.8572 20.099C22.6958 20.0974 22.5447 20.033 22.4318 19.9177L17.629 15.0173C17.4365 14.8208 17.1211 14.8177 16.9247 15.0102C16.7283 15.2027 16.7251 15.518 16.9176 15.7144L22.1164 21.0189C22.3496 21.2569 22.3458 21.6402 22.1078 21.8734C21.8699 22.1066 21.4865 22.1028 21.2533 21.8649L16.0545 16.5604C15.862 16.364 15.5467 16.3607 15.3502 16.5533C15.1538 16.7458 15.1506 17.0611 15.3431 17.2575L19.6381 21.6398C19.8712 21.8778 19.8672 22.261 19.6294 22.4941C19.5141 22.6071 19.3617 22.669 19.2004 22.6669C19.0389 22.6653 18.8879 22.6009 18.7749 22.4856L14.4801 18.1035C14.2876 17.907 13.9723 17.9039 13.7758 18.0964C13.5794 18.2889 13.5762 18.6042 13.7687 18.8007L17.2657 22.3686C17.4989 22.6066 17.495 22.9899 17.2571 23.2232C17.0192 23.4563 16.6358 23.4525 16.4026 23.2146L12.2658 18.9938C12.0733 18.7973 11.7579 18.7942 11.5615 18.9867C11.3651 19.1791 11.3619 19.4945 11.5544 19.6909L15.6913 23.9118C16.0042 24.2311 16.419 24.3912 16.8343 24.3912C17.2386 24.3912 17.6434 24.2393 17.9543 23.9345C18.116 23.7758 18.2362 23.5906 18.3161 23.3928Z" fill="#6F6F6F"/>
<path d="M9.7294 16.406C9.0444 15.7071 8.62925 14.7845 8.56052 13.8083C8.55222 13.6903 8.50222 13.5791 8.41942 13.4946L7.85367 12.9175C7.66117 12.7211 7.3459 12.7179 7.14941 12.9104C6.953 13.1029 6.94981 13.4183 7.14237 13.6147L7.58355 14.0648C7.7062 15.2074 8.21138 16.2801 9.0181 17.1031L10.0457 18.1516C10.1432 18.2512 10.2722 18.301 10.4014 18.301C10.5272 18.301 10.6531 18.2537 10.7499 18.1587C10.9464 17.9662 10.9495 17.6509 10.757 17.4544L9.7294 16.406Z" fill="#6F6F6F"/>
<path d="M40.8575 12.4201C40.6649 12.2236 40.3497 12.2206 40.1532 12.413L39.4572 13.0952C39.2534 13.295 39.1633 13.5818 39.2162 13.8621C39.438 15.0382 39.1583 16.2657 38.4491 17.2297L37.5379 18.4682C37.5237 18.4875 37.5109 18.5078 37.4996 18.5289L36.0948 21.1619C35.9562 21.4213 35.66 21.5531 35.375 21.4825C35.038 21.3991 34.8288 21.0675 34.899 20.7275C35.0659 19.9186 35.2671 18.9488 35.2671 18.9487C35.3117 18.7341 35.2106 18.5156 35.0182 18.4105C34.826 18.3055 34.5874 18.3385 34.4308 18.4919L32.1299 20.7471C31.9335 20.9396 31.9303 21.2549 32.1228 21.4513C32.3154 21.6478 32.6306 21.6509 32.8271 21.4584L33.9603 20.3477C33.9478 20.4078 33.9356 20.4675 33.9234 20.5263C33.7448 21.3922 34.2773 22.2369 35.1356 22.4493C35.2671 22.4818 35.3995 22.4976 35.5302 22.4976C36.1238 22.4976 36.6837 22.1735 36.9734 21.6308L38.3614 19.0295L39.2512 17.82C40.1084 16.655 40.4554 15.177 40.2086 13.7533L40.8503 13.1244C41.0469 12.9319 41.0501 12.6165 40.8575 12.4201Z" fill="#6F6F6F"/>
<path d="M30.6089 22.2373L29.5302 23.2946C29.415 23.4076 29.264 23.4672 29.1012 23.4672C28.9397 23.4656 28.7887 23.4012 28.6757 23.286C28.4426 23.0481 28.4464 22.665 28.684 22.4318L33.5847 17.6286C33.7811 17.4361 33.7843 17.1208 33.5917 16.9244C33.3992 16.7279 33.0839 16.7248 32.8875 16.9173L27.9871 21.7201C27.9869 21.7202 27.9869 21.7203 27.9867 21.7204L27.583 22.1161C27.3451 22.3493 26.9619 22.3455 26.7285 22.1075C26.6156 21.9922 26.5542 21.8399 26.5558 21.6785C26.5574 21.5171 26.6218 21.366 26.7371 21.2531L32.0416 16.0542C32.238 15.8617 32.2412 15.5464 32.0486 15.35C31.856 15.1535 31.5408 15.1504 31.3443 15.3429L26.9623 19.6377C26.7245 19.8709 26.3411 19.8671 26.1078 19.6291C25.9949 19.5139 25.9335 19.3615 25.9351 19.2001C25.9367 19.0387 26.0011 18.8876 26.1164 18.7747L30.4985 14.4798C30.6949 14.2873 30.6981 13.972 30.5055 13.7756C30.313 13.5791 29.9977 13.576 29.8012 13.7685L26.2326 17.266C25.9947 17.4985 25.6119 17.4946 25.3788 17.2568C25.1456 17.0189 25.1494 16.6355 25.3873 16.4023L32.196 9.72944C32.8948 9.04443 33.8174 8.62935 34.7936 8.56056C34.9116 8.55226 35.0228 8.50226 35.1072 8.41945L35.6845 7.85371C35.8809 7.66121 35.8841 7.34593 35.6916 7.14945C35.4991 6.95303 35.1838 6.94978 34.9874 7.14234L34.5372 7.58352C33.3946 7.70616 32.3219 8.21135 31.4987 9.018L24.6903 15.691C24.0602 16.3086 24.0499 17.3238 24.6675 17.954C24.8262 18.1159 25.0112 18.2365 25.209 18.3164C25.0367 18.5729 24.9423 18.8739 24.9392 19.1901C24.935 19.6175 25.0973 20.021 25.3965 20.3263C25.5491 20.482 25.7262 20.5992 25.9154 20.679C25.6888 20.9584 25.5636 21.3034 25.5599 21.6685C25.5557 22.0959 25.718 22.4994 26.0172 22.8047C26.3302 23.124 26.745 23.284 27.1603 23.284C27.2923 23.284 27.424 23.2662 27.5528 23.2338C27.6176 23.5075 27.7535 23.7679 27.9643 23.983C28.2636 24.2884 28.6637 24.4589 29.0912 24.4631C29.0967 24.4632 29.1022 24.4632 29.1077 24.4632C29.529 24.4632 29.9261 24.3011 30.2274 24.0058L31.3062 22.9485C31.5026 22.756 31.5058 22.4407 31.3132 22.2442C31.1208 22.048 30.8055 22.0447 30.6089 22.2373Z" fill="#6F6F6F"/>
</svg>
