<svg width="48" height="48" viewBox="0 0 48 48" fill="none" xmlns="http://www.w3.org/2000/svg">
<rect width="47.7968" height="47.7968" rx="7.70916" fill="#E3E3E3"/>
<path d="M21.5229 31.2661L22.1241 31.2855C22.1384 31.286 22.1513 31.2956 22.1558 31.3092L22.4169 32.0924C22.502 32.3477 22.7779 32.4857 23.0332 32.4006C23.2885 32.3155 23.4265 32.0395 23.3414 31.7842L23.0803 31.0012C22.9474 30.6022 22.5758 30.325 22.1553 30.3114C21.5619 30.2923 21.5256 30.3104 21.5206 30.2605L21.1527 26.5066C21.1034 26.0043 20.689 25.5804 20.0935 25.597C20.0568 25.5977 19.9634 25.6005 19.9249 25.5862C19.9203 25.5758 19.4719 24.101 19.4687 24.0901C19.373 23.7754 19.1293 23.5269 18.8171 23.4247C16.2407 22.5815 16.7903 22.8154 15.8656 22.2507H15.8653C15.8542 22.2439 15.8479 22.2318 15.8487 22.219L15.8719 21.8265C15.9162 21.0714 15.1457 20.5384 14.4556 20.8443C13.2192 21.3914 12.6847 21.6369 12.5387 21.6877C11.7056 21.6341 11.6859 21.6527 11.6841 21.6011L11.6794 21.4611C11.6683 21.1394 11.5021 20.8395 11.2352 20.6595C10.9684 20.4792 10.6282 20.4374 10.3256 20.5475C10.3153 20.551 10.2992 20.5507 10.2876 20.5376L8.9834 19.0618C8.97484 19.0522 8.97233 19.0388 8.97661 19.027L9.46127 17.6695C9.46555 17.6579 9.47562 17.6493 9.48745 17.6468L11.3866 17.2739C11.8256 17.1876 12.1509 16.8306 12.1963 16.3852C12.5434 12.9601 12.5701 13.9088 12.1759 12.1126C12.1635 12.0532 12.1675 12.0764 13.4813 11.8765C13.4934 11.875 13.505 11.8792 13.5128 11.8881L14.2837 12.7733C14.5969 13.1331 15.1256 13.2237 15.5408 12.9896L16.5876 12.3991C17.0048 12.1637 17.1997 11.6627 17.0517 11.2075L16.7294 10.2173C16.7092 10.1579 16.7329 10.1763 19.2977 9.74876C19.3433 9.7407 19.2894 9.63068 20.0543 11.9258C20.2204 12.4238 20.7313 12.7091 21.2421 12.5895L22.6082 12.2697C23.1113 12.1519 23.3384 11.7204 23.3802 11.4344C23.4038 11.3961 23.3419 11.3979 24.8681 11.8168C25.2742 11.9283 25.7118 11.773 25.9565 11.4301L26.3269 10.9117C26.3438 10.8878 26.378 10.8936 26.3878 10.9195C27.2406 13.1499 27.2104 13.2635 27.6527 13.4845L29.076 14.1963C29.3169 14.3169 29.6095 14.2192 29.7298 13.9785C29.8502 13.7378 29.7527 13.445 29.5118 13.3247C29.1276 13.1326 28.1822 12.6597 28.088 12.6126C27.9984 12.45 27.7695 11.8045 27.2982 10.5715C27.011 9.82051 26.0011 9.6911 25.5341 10.3455L25.1637 10.8638C25.1551 10.8757 25.14 10.881 25.1262 10.8772L23.6773 10.4794C23.4081 10.4056 23.1176 10.4472 22.8799 10.5937C22.6047 10.7636 22.4982 10.9814 22.4202 11.2548C22.4202 11.2785 22.4108 11.3153 22.3862 11.3211C20.9569 11.6554 20.9954 11.667 20.979 11.6179L20.261 9.464C20.1029 8.98967 19.6303 8.70517 19.1373 8.7875L16.5965 9.21097C15.9872 9.31244 15.6118 9.93255 15.8026 10.5192L16.1249 11.5091C16.1392 11.5535 16.1564 11.5235 15.0619 12.1408C15.0476 12.1489 15.0294 12.1459 15.0186 12.1335L14.2477 11.2481C14.0196 10.986 13.6782 10.8608 13.3348 10.9132L12.0583 11.1073C11.7833 11.1491 11.5354 11.3047 11.378 11.5338C11.2206 11.7629 11.1645 12.0502 11.2242 12.3216L11.4991 13.5742C11.491 13.7262 11.4226 14.3554 11.2267 16.2867C11.2227 16.327 11.3264 16.2925 9.29963 16.6906C8.95244 16.7588 8.6629 17.0083 8.54356 17.3417L8.05865 18.6992C7.93528 19.0454 8.00956 19.4316 8.25302 19.707L9.55719 21.1832C9.83389 21.4959 10.2659 21.6062 10.6587 21.4634C10.6819 21.4551 10.7045 21.4715 10.7053 21.4949L10.7103 21.6349C10.7279 22.1558 11.1338 22.574 11.6539 22.6072C12.9941 22.6938 12.3513 22.8411 14.8499 21.7353C14.8738 21.7245 14.9005 21.7424 14.8988 21.7693C14.8769 22.1419 14.7719 22.7258 15.3585 23.083L15.3592 23.0818L15.3585 23.083C16.4003 23.7193 15.7654 23.4514 18.5139 24.351C18.5245 24.3545 18.5331 24.363 18.5363 24.3739L18.987 25.855C19.1552 26.4074 19.585 26.5706 20.1479 26.5706C20.197 26.5706 20.1598 26.3697 20.5508 30.3557C20.6001 30.8585 21.018 31.2497 21.5229 31.2661Z" fill="#6F6F6F"/>
<path d="M37.5311 23.1223C36.0915 24.4652 36.0305 24.4612 35.9465 24.8444C35.3326 27.6368 35.1332 28.5789 35.0756 28.7854C35.061 28.8063 32.7548 32.1312 32.7293 32.1332C29.1585 32.4081 29.304 32.3396 28.9832 32.6219C27.2823 34.105 27.2032 34.094 27.1335 34.5517C26.9706 35.6227 26.8981 36.1738 26.8578 36.3244C26.8578 36.3244 23.9035 39.318 23.9002 39.3212C23.8866 39.3348 23.8647 39.3351 23.8511 39.3215L21.7564 37.2602C21.7068 37.2122 21.6504 37.2925 23.8884 35.552C24.2215 35.2929 24.3579 34.8523 24.2313 34.4512L24.04 33.7465C23.9695 33.4867 23.7018 33.3331 23.442 33.4039C23.1822 33.4744 23.0288 33.7422 23.0993 34.0018C23.1054 34.0237 23.2947 34.7226 23.3018 34.7443C23.3063 34.7581 23.3018 34.7735 23.2902 34.7826L21.161 36.4387C20.6793 36.8133 20.638 37.5269 21.0726 37.9549L23.1673 40.0161C23.5636 40.4061 24.2036 40.4013 24.5939 40.0058L27.5507 37.0097C27.926 36.629 27.816 36.2436 28.0972 34.6972C28.2153 34.5655 28.7005 34.1609 29.6215 33.358C29.8428 33.3173 30.7272 33.2646 32.8039 33.1048C33.1075 33.0816 33.3812 32.9247 33.5549 32.675L35.8772 29.3395C36.0222 29.152 35.9772 29.2449 36.8981 25.0536C36.9981 24.9376 37.4143 24.5642 38.1958 23.8351C38.3927 23.6513 38.4032 23.3428 38.2197 23.1462C38.0362 22.9496 37.728 22.9388 37.5311 23.1223Z" fill="#6F6F6F"/>
<path d="M40.7557 18.4552C40.6955 17.9474 40.2644 17.5647 39.7534 17.5647H39.0353C38.8231 17.4217 38.0615 16.7497 36.2386 15.1988C35.8436 14.8627 35.7008 14.9513 33.0333 15.0805C32.8939 15.0246 32.3979 14.7592 31.3273 14.2091C31.0882 14.086 30.7943 14.1804 30.6712 14.4199C30.5481 14.659 30.6425 14.9529 30.882 15.076C32.7725 16.0478 32.7345 16.071 33.0802 16.0538C34.6935 15.9758 35.3791 15.9252 35.6087 15.9426C38.5131 18.4134 38.5474 18.5396 38.989 18.5396C39.7596 18.5393 39.7818 18.5197 39.7878 18.57C39.7909 18.596 40.0328 20.5744 40.0142 20.5925L38.9205 21.6741C38.6098 21.9813 38.8316 22.5077 39.2629 22.5077C39.526 22.5077 39.5184 22.4531 40.6993 21.2856C40.8898 21.0973 40.9991 20.8357 40.9991 20.5678C40.9994 20.4845 41.0132 20.6263 40.7557 18.4552Z" fill="#6F6F6F"/>
</svg>
