<svg width="48" height="48" viewBox="0 0 48 48" fill="none" xmlns="http://www.w3.org/2000/svg">
<rect width="47.7968" height="47.7968" rx="7.70916" fill="#42B0FF"/>
<path d="M34.0717 14.8622H31.502V12.6745C31.502 12.0182 31.2347 11.4013 30.7494 10.9373L29.9382 10.1618C30.0356 9.96625 30.0886 9.75123 30.0886 9.52763C30.0886 9.13317 29.9288 8.76295 29.6383 8.4853L28.5355 7.43097C27.9344 6.85634 26.9562 6.85634 26.3551 7.43097C25.754 8.00573 25.754 8.94095 26.3551 9.51571L27.4578 10.57C27.7482 10.8476 28.1354 11.0005 28.548 11.0005C28.7819 11.0005 29.0068 10.9498 29.2114 10.8567L30.0225 11.6322C30.3138 11.9106 30.4741 12.2808 30.4741 12.6745V14.8622H27.6367C26.8059 13.678 25.3932 12.8968 23.7928 12.8968C22.1925 12.8968 20.7797 13.678 19.9489 14.8622H17.1116V12.6745C17.1116 12.2808 17.2719 11.9106 17.5631 11.6322L18.3743 10.8567C18.5788 10.9498 18.8037 11.0005 19.0376 11.0005C19.4503 11.0005 19.8374 10.8476 20.1279 10.57L21.2306 9.51564C21.8318 8.94095 21.8318 8.00573 21.2306 7.43104C20.6295 6.85634 19.6513 6.85634 19.0502 7.43097L17.9473 8.4853C17.6569 8.76288 17.497 9.1331 17.497 9.52757C17.497 9.75117 17.5501 9.96625 17.6474 10.1617L16.8363 10.9372C16.3509 11.4012 16.0837 12.0182 16.0837 12.6744V14.8622H13.5139C13.2301 14.8622 13 15.0821 13 15.3535V23.2153C13 23.3456 13.0541 23.4705 13.1506 23.5627L15.0841 25.4113L16.059 37.6524C14.9054 37.8938 14.0393 38.8782 14.0393 40.0525C14.0393 40.3239 14.2694 40.5439 14.5533 40.5439H33.0553C33.3391 40.5439 33.5692 40.3239 33.5692 40.0525C33.5692 38.8783 32.703 37.8944 31.5495 37.653L32.5263 25.3877L34.4351 23.5627C34.5315 23.4706 34.5857 23.3456 34.5857 23.2153V15.3535C34.5857 15.0822 34.3555 14.8622 34.0717 14.8622ZM28.9114 9.87506C28.8152 9.96704 28.6861 10.0177 28.548 10.0177C28.41 10.0177 28.2809 9.9671 28.1846 9.87499L27.0819 8.8208C26.8815 8.62917 26.8815 8.31738 27.0819 8.12582C27.2822 7.93438 27.6083 7.93438 27.8087 8.12582L28.9114 9.18014C29.0077 9.27219 29.0608 9.39562 29.0608 9.52763C29.0608 9.65964 29.0077 9.78301 28.9114 9.87506ZM18.6742 9.18014L19.7769 8.12588C19.8771 8.0301 20.0087 7.98221 20.1403 7.98221C20.2719 7.98221 20.4035 8.0301 20.5037 8.12582C20.7041 8.31745 20.7041 8.62923 20.5037 8.82073L19.401 9.87499C19.3047 9.96704 19.1756 10.0177 19.0375 10.0177C18.8995 10.0177 18.7704 9.9671 18.6742 9.87499C18.5779 9.78301 18.5249 9.65964 18.5249 9.52757C18.5249 9.39562 18.5779 9.27219 18.6742 9.18014ZM23.7928 13.8794C25.7766 13.8794 27.3904 15.4224 27.3904 17.319C27.3904 19.2155 25.7766 20.7585 23.7928 20.7585C21.8091 20.7585 20.1952 19.2155 20.1952 17.319C20.1952 15.4224 21.8091 13.8794 23.7928 13.8794ZM32.4532 39.5611H15.1552C15.3673 38.9892 15.9389 38.5784 16.609 38.5784C16.7521 38.5784 16.8887 38.5214 16.9859 38.4211C17.0832 38.3207 17.1323 38.1862 17.1215 38.0498L16.1357 25.6721H31.4727L30.5231 37.5957H18.6648C18.381 37.5957 18.1509 37.8156 18.1509 38.0871C18.1509 38.3585 18.381 38.5784 18.6648 38.5784H30.9995C31.6695 38.5784 32.2411 38.9892 32.4532 39.5611ZM31.803 24.6893H15.7826L14.7547 23.7066H32.8309L31.803 24.6893ZM33.5578 22.7239H14.0279V15.8449H19.4325C19.2613 16.3062 19.1673 16.8022 19.1673 17.319C19.1673 19.7574 21.2423 21.7412 23.7928 21.7412C26.3434 21.7412 28.4183 19.7574 28.4183 17.319C28.4183 16.8022 28.3242 16.3062 28.1531 15.8449H33.5578V22.7239Z" fill="#FAFAFA"/>
</svg>
