<svg width="48" height="48" viewBox="0 0 48 48" fill="none" xmlns="http://www.w3.org/2000/svg">
<rect width="47.7968" height="47.7968" rx="7.70916" fill="#42B0FF"/>
<path d="M20.5229 31.4927L21.1241 31.5121C21.1384 31.5126 21.1513 31.5222 21.1558 31.5358L21.4169 32.319C21.502 32.5743 21.7779 32.7123 22.0332 32.6272C22.2885 32.5421 22.4265 32.2662 22.3414 32.0109L22.0803 31.2279C21.9474 30.8288 21.5758 30.5516 21.1553 30.538C20.5619 30.5189 20.5256 30.537 20.5206 30.4872L20.1527 26.7332C20.1034 26.231 19.689 25.807 19.0935 25.8236C19.0568 25.8244 18.9634 25.8271 18.9249 25.8128C18.9203 25.8025 18.4719 24.3276 18.4687 24.3168C18.373 24.002 18.1293 23.7535 17.8171 23.6513C15.2407 22.8081 15.7903 23.042 14.8656 22.4773H14.8653C14.8542 22.4705 14.8479 22.4584 14.8487 22.4456L14.8719 22.0531C14.9162 21.298 14.1457 20.765 13.4556 21.0709C12.2192 21.618 11.6847 21.8635 11.5387 21.9144C10.7056 21.8607 10.6859 21.8794 10.6841 21.8277L10.6794 21.6878C10.6683 21.366 10.5021 21.0661 10.2352 20.8861C9.96837 20.7059 9.62822 20.6641 9.32559 20.7741C9.31527 20.7776 9.29916 20.7774 9.28758 20.7643L7.9834 19.2884C7.97484 19.2788 7.97233 19.2655 7.97661 19.2536L8.46127 17.8961C8.46555 17.8845 8.47562 17.8759 8.48745 17.8734L10.3866 17.5006C10.8256 17.4142 11.1509 17.0572 11.1963 16.6118C11.5434 13.1867 11.5701 14.1354 11.1759 12.3393C11.1635 12.2798 11.1675 12.303 12.4813 12.1031C12.4934 12.1016 12.505 12.1059 12.5128 12.1147L13.2837 12.9999C13.5969 13.3597 14.1256 13.4503 14.5408 13.2162L15.5876 12.6258C16.0048 12.3904 16.1997 11.8893 16.0517 11.4341L15.7294 10.4439C15.7092 10.3845 15.7329 10.4029 18.2977 9.97538C18.3433 9.96732 18.2894 9.8573 19.0543 12.1524C19.2204 12.6504 19.7313 12.9357 20.2421 12.8161L21.6082 12.4964C22.1113 12.3785 22.3384 11.947 22.3802 11.661C22.4038 11.6227 22.3419 11.6245 23.8681 12.0434C24.2742 12.155 24.7118 11.9996 24.9565 11.6567L25.3269 11.1383C25.3438 11.1144 25.378 11.1202 25.3878 11.1461C26.2406 13.3766 26.2104 13.4901 26.6527 13.7112L28.076 14.4229C28.3169 14.5435 28.6095 14.4458 28.7298 14.2051C28.8502 13.9644 28.7527 13.6716 28.5118 13.5513C28.1276 13.3592 27.1822 12.8864 27.088 12.8393C26.9984 12.6766 26.7695 12.0311 26.2982 10.7982C26.011 10.0471 25.0011 9.91772 24.5341 10.5721L24.1637 11.0905C24.1551 11.1023 24.14 11.1076 24.1262 11.1038L22.6773 10.706C22.4081 10.6323 22.1176 10.6738 21.8799 10.8203C21.6047 10.9903 21.4982 11.2081 21.4202 11.4815C21.4202 11.5051 21.4108 11.5419 21.3862 11.5477C19.9569 11.882 19.9954 11.8936 19.979 11.8445L19.261 9.69063C19.1029 9.21629 18.6303 8.93179 18.1373 9.01412L15.5965 9.4376C14.9872 9.53906 14.6118 10.1592 14.8026 10.7458L15.1249 11.7358C15.1392 11.7801 15.1564 11.7501 14.0619 12.3675C14.0476 12.3755 14.0294 12.3725 14.0186 12.3602L13.2477 11.4747C13.0196 11.2126 12.6782 11.0875 12.3348 11.1398L11.0583 11.3339C10.7833 11.3757 10.5354 11.5313 10.378 11.7604C10.2206 11.9895 10.1645 12.2768 10.2242 12.5482L10.4991 13.8008C10.491 13.9529 10.4226 14.582 10.2267 16.5134C10.2227 16.5536 10.3264 16.5192 8.29963 16.9172C7.95244 16.9854 7.6629 17.2349 7.54356 17.5683L7.05865 18.9258C6.93528 19.272 7.00956 19.6582 7.25302 19.9337L8.55719 21.4098C8.83389 21.7225 9.26592 21.8328 9.65869 21.69C9.68185 21.6817 9.70451 21.6981 9.70527 21.7215L9.7103 21.8615C9.72792 22.3824 10.1338 22.8006 10.6539 22.8338C11.9941 22.9204 11.3513 23.0677 13.8499 21.9619C13.8738 21.9511 13.9005 21.969 13.8988 21.9959C13.8769 22.3685 13.7719 22.9524 14.3585 23.3097L14.3592 23.3084L14.3585 23.3097C15.4003 23.9459 14.7654 23.678 17.5139 24.5776C17.5245 24.5811 17.5331 24.5897 17.5363 24.6005L17.987 26.0817C18.1552 26.6341 18.585 26.7972 19.1479 26.7972C19.197 26.7972 19.1598 26.5963 19.5508 30.5823C19.6001 31.0851 20.018 31.4764 20.5229 31.4927Z" fill="#FAFAFA"/>
<path d="M36.5311 23.1223C35.0915 24.4652 35.0305 24.4612 34.9465 24.8444C34.3326 27.6368 34.1332 28.5789 34.0756 28.7854C34.061 28.8063 31.7548 32.1312 31.7293 32.1332C28.1585 32.4081 28.304 32.3396 27.9832 32.6219C26.2823 34.105 26.2032 34.094 26.1335 34.5517C25.9706 35.6227 25.8981 36.1738 25.8578 36.3244C25.8578 36.3244 22.9035 39.318 22.9002 39.3212C22.8866 39.3348 22.8647 39.3351 22.8511 39.3215L20.7564 37.2602C20.7068 37.2122 20.6504 37.2925 22.8884 35.552C23.2215 35.2929 23.3579 34.8523 23.2313 34.4512L23.04 33.7465C22.9695 33.4867 22.7018 33.3331 22.442 33.4039C22.1822 33.4744 22.0288 33.7422 22.0993 34.0018C22.1054 34.0237 22.2947 34.7226 22.3018 34.7443C22.3063 34.7581 22.3018 34.7735 22.2902 34.7826L20.161 36.4387C19.6793 36.8133 19.638 37.5269 20.0726 37.9549L22.1673 40.0161C22.5636 40.4061 23.2036 40.4013 23.5939 40.0058L26.5507 37.0097C26.926 36.629 26.816 36.2436 27.0972 34.6972C27.2153 34.5655 27.7005 34.1609 28.6215 33.358C28.8428 33.3173 29.7272 33.2646 31.8039 33.1048C32.1075 33.0816 32.3812 32.9247 32.5549 32.675L34.8772 29.3395C35.0222 29.152 34.9772 29.2449 35.8981 25.0536C35.9981 24.9376 36.4143 24.5642 37.1958 23.8351C37.3927 23.6513 37.4032 23.3428 37.2197 23.1462C37.0362 22.9496 36.728 22.9388 36.5311 23.1223Z" fill="#FAFAFA"/>
<path d="M39.7557 18.6819C39.6955 18.174 39.2644 17.7913 38.7534 17.7913H38.0353C37.8231 17.6483 37.0615 16.9764 35.2386 15.4255C34.8436 15.0893 34.7008 15.178 32.0333 15.3071C31.8939 15.2512 31.3979 14.9859 30.3273 14.4357C30.0882 14.3126 29.7943 14.407 29.6712 14.6465C29.5481 14.8857 29.6425 15.1795 29.882 15.3026C31.7725 16.2744 31.7345 16.2976 32.0802 16.2805C33.6935 16.2024 34.3791 16.1518 34.6087 16.1692C37.5131 18.6401 37.5474 18.7662 37.989 18.7662C38.7596 18.766 38.7818 18.7463 38.7878 18.7967C38.7909 18.8226 39.0328 20.801 39.0142 20.8191L37.9205 21.9008C37.6098 22.2079 37.8316 22.7344 38.2629 22.7344C38.526 22.7344 38.5184 22.6797 39.6993 21.5123C39.8898 21.3239 39.9991 21.0624 39.9991 20.7945C39.9994 20.7111 40.0132 20.8529 39.7557 18.6819Z" fill="#FAFAFA"/>
</svg>
