<svg width="48" height="48" viewBox="0 0 48 48" fill="none" xmlns="http://www.w3.org/2000/svg">
<rect width="47.7968" height="47.7968" rx="7.70916" fill="#42B0FF"/>
<path d="M24.4996 23.5578C24.2522 23.5578 24.026 23.395 23.9464 23.1611C23.8668 22.9276 23.9474 22.6597 24.1441 22.5102C24.331 22.3681 24.5886 22.3518 24.7921 22.4686C24.9996 22.5876 25.1158 22.8326 25.0757 23.0688C25.0285 23.3467 24.7827 23.5578 24.4996 23.5578Z" fill="#FAFAFA"/>
<path d="M31.1856 34.8657H30.8099V34.2565C30.8099 33.0048 29.7915 31.9864 28.5398 31.9864H25.0846V25.6254C25.0846 25.3027 24.8229 25.0411 24.5003 25.0411C24.1777 25.0411 23.9161 25.3027 23.9161 25.6254V31.9864H20.4609C19.2091 31.9864 18.1907 33.0048 18.1907 34.2565V34.8657H17.8151C16.5633 34.8657 15.5449 35.8841 15.5449 37.1359V38.3294C15.5449 38.6521 15.8065 38.9137 16.1292 38.9137H32.8715C33.1941 38.9137 33.4557 38.6521 33.4557 38.3294V37.136C33.4557 35.8841 32.4374 34.8657 31.1856 34.8657ZM19.3592 34.2565C19.3592 33.6491 19.8534 33.1549 20.4609 33.1549H28.5397C29.1472 33.1549 29.6414 33.6491 29.6414 34.2565V34.8657H19.3591V34.2565H19.3592ZM32.2872 37.7452H16.7134V37.136C16.7134 36.5285 17.2076 36.0343 17.8151 36.0343H31.1856C31.793 36.0343 32.2872 36.5285 32.2872 37.136V37.7452Z" fill="#FAFAFA"/>
<path d="M36.9997 24.9564C36.9997 24.9559 36.9997 24.9554 36.9997 24.955C36.9996 24.9506 36.9994 24.9463 36.9992 24.9419C36.9991 24.9407 36.9991 24.9394 36.999 24.9381C36.9988 24.9351 36.9987 24.9321 36.9984 24.9291C36.9982 24.9263 36.998 24.9237 36.9978 24.9209C36.9976 24.9189 36.9974 24.917 36.9973 24.915C36.9901 24.8389 36.9683 24.7671 36.9347 24.7024L33.141 17.0443C34.0055 16.9311 34.8521 16.6526 35.6274 16.2089C35.9075 16.0486 36.0047 15.6917 35.8444 15.4116C35.6841 15.1315 35.3271 15.0345 35.0471 15.1947C33.3316 16.1764 31.1969 16.1819 29.4761 15.2088L25.7931 13.1262C26.3797 12.7161 26.7641 12.0355 26.7641 11.2665C26.7641 10.0168 25.7484 9 24.4999 9C23.2515 9 22.2358 10.0168 22.2358 11.2666C22.2358 12.0355 22.6203 12.7162 23.2068 13.1262L19.5238 15.2089C17.803 16.1819 15.6683 16.1764 13.9527 15.1948C13.6727 15.0347 13.3158 15.1316 13.1555 15.4117C12.9952 15.6917 13.0924 16.0487 13.3725 16.209C14.1479 16.6527 14.9943 16.9312 15.8589 17.0444L12.0651 24.7023C12.0316 24.7671 12.0099 24.8389 12.0026 24.9149C12.0025 24.9169 12.0023 24.9189 12.0021 24.9209C12.0019 24.9236 12.0016 24.9263 12.0015 24.929C12.0012 24.9321 12.0011 24.935 12.0009 24.9381C12.0008 24.9394 12.0008 24.9406 12.0007 24.9419C12.0005 24.9463 12.0003 24.9506 12.0002 24.955V24.9563C12.0001 24.9617 12 24.9672 12 24.9726C12.0011 27.5971 14.1339 29.7319 16.7553 29.7319C19.3767 29.7319 21.5096 27.5971 21.5106 24.9726C21.5106 24.9672 21.5106 24.9617 21.5104 24.9563C21.5104 24.9558 21.5104 24.9554 21.5104 24.955C21.5103 24.9506 21.5102 24.9462 21.5099 24.9418C21.5099 24.9406 21.5098 24.9393 21.5097 24.9381C21.5096 24.935 21.5094 24.932 21.5092 24.9289C21.509 24.9263 21.5087 24.9237 21.5086 24.921C21.5084 24.919 21.5082 24.9169 21.508 24.9148C21.5009 24.8388 21.4791 24.767 21.4456 24.7023L17.6513 17.0433C18.5015 16.9309 19.3341 16.6585 20.099 16.226L23.9157 14.0677V20.343C23.9157 20.6657 24.1773 20.9273 24.4999 20.9273C24.8226 20.9273 25.0842 20.6657 25.0842 20.343V14.0677L28.901 16.226C29.666 16.6586 30.4985 16.9309 31.3487 17.0433L27.5543 24.7023C27.5208 24.7671 27.4991 24.8389 27.4918 24.9149C27.4917 24.9169 27.4915 24.919 27.4913 24.9211C27.4911 24.9237 27.4909 24.9263 27.4907 24.929C27.4905 24.932 27.4903 24.9351 27.4901 24.9381C27.4901 24.9394 27.49 24.9407 27.49 24.9419C27.4897 24.9463 27.4896 24.9506 27.4894 24.955V24.9564C27.4893 24.9618 27.4893 24.9672 27.4893 24.9727C27.4904 27.5972 29.6232 29.732 32.2447 29.732C34.8661 29.732 36.9989 27.5972 37 24.9727C36.9999 24.9672 36.9998 24.9618 36.9997 24.9564ZM16.7553 28.5635C14.9761 28.5635 13.4953 27.2591 13.2159 25.5549H20.2947C20.0153 27.2591 18.5345 28.5635 16.7553 28.5635ZM13.5257 24.3864L16.7553 17.8671L19.9849 24.3864H13.5257ZM24.4999 10.1685C25.1041 10.1685 25.5956 10.6611 25.5956 11.2666C25.5956 11.8721 25.1041 12.3646 24.4999 12.3646C23.8958 12.3646 23.4043 11.8721 23.4043 11.2666C23.4043 10.6611 23.8958 10.1685 24.4999 10.1685ZM32.2446 17.8672L35.4742 24.3864H29.0149L32.2446 17.8672ZM32.2446 28.5635C30.4654 28.5635 28.9845 27.2591 28.7051 25.5549H35.784C35.5045 27.2591 34.0238 28.5635 32.2446 28.5635Z" fill="#FAFAFA"/>
</svg>
