<svg width="48" height="48" viewBox="0 0 48 48" fill="none" xmlns="http://www.w3.org/2000/svg">
<rect width="47.7968" height="47.7968" rx="7.70916" fill="#E3E3E3"/>
<path d="M38.9476 17.7673C38.7054 16.5828 37.6446 15.7167 36.4212 15.708H30.0961V13.6982C30.0961 12.4833 29.1078 11.4951 27.8931 11.4951H22.6912C21.4763 11.4951 20.4881 12.4833 20.4881 13.6982V15.708H14.163C14.1609 15.708 14.1589 15.708 14.1568 15.708C12.7382 15.7224 11.5841 16.879 11.5841 18.2862V25.1027H10.3306C9.04552 25.1027 8 26.1482 8 27.4333V28.0195C8 29.3046 9.04552 30.3501 10.3306 30.3501H11.5842V32.9261C11.5842 34.3482 12.7408 35.5049 14.1624 35.5049H22.4791C22.8137 35.5049 23.0849 35.2337 23.0849 34.8992C23.0849 34.5647 22.8137 34.2934 22.4791 34.2934H14.1624C13.4089 34.2934 12.7957 33.68 12.7957 32.9261V26.3143H18.7875L18.1754 28.799C18.1309 28.9797 18.172 29.1709 18.2868 29.3175C18.4017 29.464 18.5775 29.5496 18.7636 29.5496H20.6904C20.8956 29.5496 21.0868 29.4457 21.1986 29.2736L22.2301 27.6841L24.3315 27.8067L23.1316 31.1928C23.0659 31.3782 23.0944 31.584 23.2079 31.7447C23.3214 31.9053 23.5059 32.0009 23.7026 32.0009H25.8464C26.0464 32.0009 26.2335 31.9021 26.3464 31.7371L28.9323 27.9559H31.3323C32.4574 27.9559 33.4922 27.3269 34.4429 26.6472C34.7509 26.427 34.9276 26.0934 34.9276 25.7319C34.9276 25.3703 34.7509 25.0366 34.443 24.8165C33.4925 24.1367 32.4577 23.5078 31.3322 23.5077H28.9323L26.3464 19.7265C26.2335 19.5615 26.0464 19.4628 25.8464 19.4628H23.7026C23.5059 19.4628 23.3214 19.5583 23.2079 19.719C23.0944 19.8796 23.0659 20.0855 23.1316 20.2708L24.3314 23.6568L22.2436 23.7787L21.2774 22.2002C21.1673 22.0203 20.9716 21.9107 20.7607 21.9107H18.7636C18.577 21.9107 18.4008 21.9967 18.286 22.1438C18.1711 22.2909 18.1306 22.4828 18.176 22.6637L18.7873 25.1029H12.7957V18.2862C12.7957 17.5413 13.4104 16.9288 14.1663 16.9195H36.4168C37.1596 16.9249 37.7885 17.5394 37.7885 18.2862V32.9261C37.7885 33.68 37.1754 34.2934 36.4218 34.2934H27.8092C27.4747 34.2934 27.2034 34.5647 27.2034 34.8992C27.2034 35.2337 27.4747 35.5049 27.8092 35.5049H36.4218C37.8434 35.5049 39.0001 34.3481 39.0001 32.9261V18.2862C39 18.1115 38.9824 17.9368 38.9476 17.7673ZM11.5842 29.1385H10.3306C9.71357 29.1385 9.21156 28.6365 9.21156 28.0194V27.4333C9.21156 26.8162 9.71357 26.3142 10.3306 26.3142H11.5842V29.1385ZM20.1651 25.6457C20.1623 25.6172 20.1572 25.5855 20.1502 25.5575L19.5399 23.1221H20.4212L21.3997 24.7208C21.5164 24.9114 21.7283 25.0213 21.9517 25.0093L25.207 24.8193C25.3972 24.8081 25.5711 24.7082 25.6765 24.5495C25.7818 24.3908 25.8064 24.1917 25.7427 24.0122L24.5599 20.6742H25.5267L28.1127 24.4554C28.2255 24.6205 28.4126 24.7191 28.6127 24.7191H31.3321C32.0828 24.7192 32.8808 25.1963 33.6394 25.7318C32.882 26.2665 32.0833 26.7444 31.3323 26.7444H28.6127C28.4126 26.7444 28.2255 26.8431 28.1127 27.0081L25.5267 30.7893H24.56L25.7428 27.4513C25.8064 27.2717 25.7819 27.0727 25.6765 26.9139C25.5711 26.7552 25.3973 26.6553 25.2071 26.6442L21.949 26.4539C21.7324 26.4419 21.524 26.5462 21.4055 26.7289L20.3613 28.338H19.5367L20.1381 25.897C20.1643 25.8171 20.1738 25.7293 20.1651 25.6457ZM28.8845 15.708H21.6996V13.6982C21.6996 13.1514 22.1444 12.7066 22.6911 12.7066H27.893C28.4397 12.7066 28.8845 13.1514 28.8845 13.6982V15.708H28.8845Z" fill="#6F6F6F"/>
<path d="M25.681 34.6676C25.5817 34.4293 25.3349 34.2761 25.0769 34.2953C24.813 34.3151 24.5896 34.5086 24.5309 34.7664C24.4107 35.294 25.0266 35.7066 25.4697 35.3943C25.6981 35.2333 25.7888 34.9265 25.681 34.6676Z" fill="#6F6F6F"/>
</svg>
