<svg width="48" height="48" viewBox="0 0 48 48" fill="none" xmlns="http://www.w3.org/2000/svg">
<rect width="47.7968" height="47.7968" rx="7.70916" fill="#E3E3E3"/>
<path d="M37.3887 21.8906H33.1406V15.2988C33.1406 15.2841 33.1399 15.2695 33.1384 15.2549C33.1373 15.2443 33.1355 15.234 33.1337 15.2235C33.1331 15.2198 33.1327 15.216 33.132 15.2123C33.1295 15.1998 33.1263 15.1876 33.1228 15.1755C33.1223 15.1739 33.122 15.1723 33.1215 15.1707C33.1178 15.1584 33.1134 15.1465 33.1086 15.1346C33.108 15.1332 33.1076 15.1318 33.107 15.1303C33.1024 15.1192 33.0971 15.1085 33.0916 15.0979C33.0905 15.0957 33.0896 15.0935 33.0885 15.0913C33.0834 15.0818 33.0777 15.0726 33.0719 15.0635C33.07 15.0605 33.0683 15.0574 33.0663 15.0544C33.0606 15.0459 33.0544 15.0378 33.0481 15.0298C33.0456 15.0265 33.0433 15.023 33.0407 15.0199C33.0326 15.01 33.0239 15.0005 33.0149 14.9914C33.0139 14.9903 33.013 14.9891 33.012 14.988L27.1526 9.12867C27.1517 9.12779 27.1508 9.12709 27.1499 9.12621C27.1406 9.11701 27.1309 9.10816 27.1207 9.09984C27.118 9.09756 27.115 9.09568 27.1122 9.09346C27.1037 9.08678 27.0951 9.08016 27.0861 9.07412C27.0837 9.07248 27.0811 9.07119 27.0786 9.06961C27.069 9.0634 27.0592 9.05736 27.0491 9.05197C27.0473 9.05104 27.0454 9.05027 27.0436 9.04934C27.0327 9.04365 27.0216 9.03832 27.0102 9.03357C27.009 9.03305 27.0077 9.0327 27.0065 9.03223C26.9945 9.02736 26.9823 9.02291 26.9699 9.0191C26.9684 9.01863 26.9668 9.0184 26.9654 9.01793C26.9532 9.01436 26.9409 9.01113 26.9283 9.00861C26.9248 9.00791 26.9212 9.00762 26.9177 9.00697C26.9071 9.00516 26.8965 9.00328 26.8857 9.00223C26.8712 9.00076 26.8565 9 26.8418 9H10.6113C9.72281 9 9 9.72281 9 10.6113V35.6309C9 37.4886 10.5114 39 12.3691 39H35.6309C37.4886 39 39 37.4886 39 35.6309V23.502C39 22.6134 38.2771 21.8906 37.3887 21.8906ZM28.0137 14.8594C27.6098 14.8594 27.2812 14.5308 27.2812 14.127V10.5004L31.6403 14.8594H28.0137ZM38.1211 35.6309C38.1211 37.004 37.004 38.1211 35.6309 38.1211C34.2577 38.1211 33.1406 37.004 33.1406 35.6309V29.3113C33.1406 29.0686 32.9439 28.8718 32.7012 28.8718C32.4584 28.8718 32.2617 29.0686 32.2617 29.3113V35.6309C32.2617 36.6164 32.687 37.5045 33.3639 38.1211H12.3691C10.996 38.1211 9.87891 37.004 9.87891 35.6309V10.6113C9.87891 10.2074 10.2074 9.87891 10.6113 9.87891H26.4023V12.2861H12.3691C11.8038 12.2861 11.3438 12.7461 11.3438 13.3115V18.5849C11.3438 19.1503 11.8038 19.6103 12.3691 19.6103H16.7449C16.9876 19.6103 17.1843 19.4136 17.1843 19.1709C17.1843 18.9282 16.9876 18.7314 16.7449 18.7314H12.3691C12.2883 18.7314 12.2227 18.6657 12.2227 18.5849V13.3115C12.2227 13.2308 12.2883 13.165 12.3691 13.165H26.4023V14.127C26.4023 15.0155 27.1252 15.7383 28.0137 15.7383H29.918V18.5849C29.918 18.6657 29.8523 18.7314 29.7715 18.7314H18.3855C18.1427 18.7314 17.946 18.9282 17.946 19.1709C17.946 19.4136 18.1427 19.6103 18.3855 19.6103H29.7715C30.3369 19.6103 30.7969 19.1503 30.7969 18.5849V15.7383H32.2617V27.6707C32.2617 27.9134 32.4584 28.1101 32.7012 28.1101C32.9439 28.1101 33.1406 27.9134 33.1406 27.6707V22.7695H37.3887C37.7926 22.7695 38.1211 23.0981 38.1211 23.502V35.6309Z" fill="#6F6F6F"/>
<path d="M12.3691 31.2558H20.499C21.0644 31.2558 21.5244 30.7958 21.5244 30.2305V22.1006C21.5244 21.5352 21.0644 21.0752 20.499 21.0752H12.3691C11.8038 21.0752 11.3438 21.5352 11.3438 22.1006V30.2305C11.3438 30.7959 11.8038 31.2558 12.3691 31.2558ZM12.2227 22.1006C12.2227 22.0198 12.2883 21.9541 12.3691 21.9541H20.499C20.5798 21.9541 20.6455 22.0198 20.6455 22.1006V30.2305C20.6455 30.3112 20.5798 30.3769 20.499 30.3769H12.3691C12.2883 30.3769 12.2227 30.3112 12.2227 30.2305V22.1006Z" fill="#6F6F6F"/>
<path d="M30.3564 21.0752H23.4277C23.185 21.0752 22.9883 21.2719 22.9883 21.5146C22.9883 21.7573 23.185 21.9541 23.4277 21.9541H30.3564C30.5992 21.9541 30.7959 21.7573 30.7959 21.5146C30.7959 21.2719 30.5992 21.0752 30.3564 21.0752Z" fill="#6F6F6F"/>
<path d="M30.3564 23.4007H23.4277C23.185 23.4007 22.9883 23.5974 22.9883 23.8401C22.9883 24.0828 23.185 24.2796 23.4277 24.2796H30.3564C30.5992 24.2796 30.7959 24.0828 30.7959 23.8401C30.7959 23.5974 30.5992 23.4007 30.3564 23.4007Z" fill="#6F6F6F"/>
<path d="M30.3564 25.7261H23.4277C23.185 25.7261 22.9883 25.9228 22.9883 26.1655C22.9883 26.4082 23.185 26.605 23.4277 26.605H30.3564C30.5992 26.605 30.7959 26.4082 30.7959 26.1655C30.7959 25.9228 30.5992 25.7261 30.3564 25.7261Z" fill="#6F6F6F"/>
<path d="M30.3564 28.0515H23.4277C23.185 28.0515 22.9883 28.2483 22.9883 28.491C22.9883 28.7337 23.185 28.9304 23.4277 28.9304H30.3564C30.5992 28.9304 30.7959 28.7337 30.7959 28.491C30.7959 28.2483 30.5992 28.0515 30.3564 28.0515Z" fill="#6F6F6F"/>
<path d="M30.3564 30.3769H23.4277C23.185 30.3769 22.9883 30.5737 22.9883 30.8164C22.9883 31.0591 23.185 31.2558 23.4277 31.2558H30.3564C30.5992 31.2558 30.7959 31.0591 30.7959 30.8164C30.7959 30.5737 30.5992 30.3769 30.3564 30.3769Z" fill="#6F6F6F"/>
<path d="M30.3574 32.7024H11.7832C11.5404 32.7024 11.3438 32.8992 11.3438 33.1419C11.3438 33.3846 11.5404 33.5813 11.7832 33.5813H30.3574C30.6002 33.5813 30.7969 33.3846 30.7969 33.1419C30.7969 32.8992 30.6002 32.7024 30.3574 32.7024Z" fill="#6F6F6F"/>
<path d="M30.3574 35.0278H11.7832C11.5404 35.0278 11.3438 35.2246 11.3438 35.4673C11.3438 35.71 11.5404 35.9067 11.7832 35.9067H30.3574C30.6002 35.9067 30.7969 35.71 30.7969 35.4673C30.7969 35.2246 30.6002 35.0278 30.3574 35.0278Z" fill="#6F6F6F"/>
</svg>
