<svg width="48" height="48" viewBox="0 0 48 48" fill="none" xmlns="http://www.w3.org/2000/svg">
<rect width="47.7968" height="47.7968" rx="7.70916" fill="#E3E3E3"/>
<path d="M34.9487 15.5713H32.3789V13.3837C32.3789 12.7274 32.1117 12.1105 31.6263 11.6465L30.8152 10.871C30.9126 10.6754 30.9656 10.4604 30.9656 10.2368C30.9656 9.84234 30.8057 9.47211 30.5152 9.19446L29.4125 8.14014C28.8113 7.56551 27.8331 7.56551 27.232 8.14014C26.6309 8.7149 26.6309 9.65012 27.232 10.2249L28.3348 11.2791C28.6252 11.5567 29.0123 11.7096 29.425 11.7096C29.6589 11.7096 29.8838 11.6589 30.0883 11.5658L30.8995 12.3414C31.1907 12.6198 31.3511 12.9899 31.3511 13.3837V15.5714H28.5137C27.6829 14.3871 26.2701 13.606 24.6698 13.606C23.0694 13.606 21.6567 14.3871 20.8259 15.5714H17.9885V13.3837C17.9885 12.9899 18.1489 12.6198 18.4401 12.3414L19.2512 11.5658C19.4558 11.6589 19.6807 11.7096 19.9146 11.7096C20.3272 11.7096 20.7144 11.5567 21.0048 11.2791L22.1076 10.2248C22.7087 9.65012 22.7087 8.7149 22.1076 8.1402C21.5064 7.56551 20.5283 7.56551 19.9271 8.14014L18.8242 9.19446C18.5338 9.47205 18.374 9.84227 18.374 10.2367C18.374 10.4603 18.427 10.6754 18.5244 10.8709L17.7132 11.6463C17.2279 12.1104 16.9606 12.7273 16.9606 13.3836V15.5713H14.3909C14.1071 15.5713 13.877 15.7913 13.877 16.0627V23.9244C13.877 24.0547 13.9311 24.1797 14.0275 24.2719L15.961 26.1205L16.9359 38.3615C15.7824 38.603 14.9163 39.5874 14.9163 40.7617C14.9163 41.0331 15.1464 41.253 15.4302 41.253H33.9322C34.2161 41.253 34.4462 41.0331 34.4462 40.7617C34.4462 39.5874 33.5799 38.6036 32.4264 38.3621L33.4033 26.0968L35.3121 24.2719C35.4085 24.1797 35.4626 24.0548 35.4626 23.9244V16.0627C35.4626 15.7913 35.2325 15.5713 34.9487 15.5713ZM29.7884 10.5842C29.6921 10.6762 29.5631 10.7269 29.425 10.7269C29.2869 10.7269 29.1579 10.6763 29.0615 10.5842L27.9588 9.52996C27.7584 9.33833 27.7584 9.02655 27.9588 8.83499C28.1592 8.64355 28.4853 8.64355 28.6856 8.83499L29.7884 9.88931C29.8847 9.98136 29.9377 10.1048 29.9377 10.2368C29.9377 10.3688 29.8847 10.4922 29.7884 10.5842ZM19.5511 9.88931L20.6538 8.83505C20.754 8.73927 20.8856 8.69138 21.0173 8.69138C21.1489 8.69138 21.2805 8.73927 21.3807 8.83499C21.581 9.02662 21.581 9.3384 21.3807 9.5299L20.278 10.5842C20.1817 10.6762 20.0526 10.7269 19.9145 10.7269C19.7764 10.7269 19.6474 10.6763 19.5511 10.5842C19.4548 10.4922 19.4019 10.3688 19.4019 10.2367C19.4019 10.1048 19.4548 9.98136 19.5511 9.88931ZM24.6698 14.5886C26.6535 14.5886 28.2674 16.1316 28.2674 18.0281C28.2674 19.9246 26.6535 21.4676 24.6698 21.4676C22.686 21.4676 21.0722 19.9246 21.0722 18.0281C21.0722 16.1316 22.686 14.5886 24.6698 14.5886ZM33.3302 40.2703H16.0322C16.2442 39.6984 16.8159 39.2876 17.4859 39.2876C17.629 39.2876 17.7657 39.2306 17.8629 39.1302C17.9601 39.0299 18.0093 38.8953 17.9984 38.7589L17.0126 26.3812H32.3497L31.4001 38.3049H19.5418C19.2579 38.3049 19.0278 38.5248 19.0278 38.7962C19.0278 39.0677 19.2579 39.2876 19.5418 39.2876H31.8764C32.5465 39.2876 33.1181 39.6984 33.3302 40.2703ZM32.68 25.3985H16.6595L15.6316 24.4158H33.7079L32.68 25.3985ZM34.4347 23.4331H14.9048V16.554H20.3095C20.1383 17.0154 20.0443 17.5113 20.0443 18.0281C20.0443 20.4666 22.1192 22.4503 24.6698 22.4503C27.2203 22.4503 29.2953 20.4666 29.2953 18.0281C29.2953 17.5113 29.2012 17.0154 29.0301 16.554H34.4347V23.4331Z" fill="#6F6F6F"/>
</svg>
