<svg width="48" height="48" viewBox="0 0 48 48" fill="none" xmlns="http://www.w3.org/2000/svg">
<rect width="47.7968" height="47.7968" rx="7.70916" fill="#E3E3E3"/>
<g clip-path="url(#clip0)">
<path d="M16.668 21.5919C16.668 21.8588 16.8843 22.0753 17.1514 22.0753C17.4184 22.0753 17.6348 21.8588 17.6348 21.5919C17.6348 19.0585 19.0227 16.7397 21.2569 15.5402C21.4921 15.414 21.5805 15.1209 21.4542 14.8857C21.3279 14.6505 21.0349 14.5622 20.7996 14.6884C18.2511 16.0566 16.668 18.7019 16.668 21.5919ZM12.459 24.3831C12.2154 23.4054 12.0918 22.393 12.0918 21.374C12.0918 18.8674 12.8355 16.4524 14.2425 14.3903C15.6166 12.3762 17.5302 10.8225 19.7763 9.89718C20.0231 9.79547 20.1408 9.51297 20.0391 9.26605C19.9375 9.01926 19.655 8.90144 19.4081 9.00321C16.987 10.0006 14.9246 11.6751 13.4439 13.8454C11.9268 16.0688 11.125 18.6721 11.125 21.374C11.125 22.4717 11.2582 23.5627 11.5209 24.6169C11.586 24.8781 11.8533 25.0322 12.1069 24.969C12.3659 24.9045 12.5236 24.6422 12.459 24.3831ZM27.7411 15.5402C29.9753 16.7397 31.3633 19.0585 31.3633 21.5919C31.3633 21.8588 31.5797 22.0753 31.8467 22.0753C32.1137 22.0753 32.3301 21.8588 32.3301 21.5919C32.3301 18.7019 30.747 16.0566 28.1984 14.6884C27.9632 14.5622 27.6702 14.6505 27.5439 14.8857C27.4176 15.1209 27.5059 15.4139 27.7411 15.5402ZM21.2873 33.8712C21.3634 33.6152 21.2175 33.3461 20.9615 33.2701C19.3374 32.7878 17.8517 31.9893 16.5456 30.8968C16.3408 30.7255 16.036 30.7527 15.8647 30.9574C15.6934 31.1622 15.7206 31.4671 15.9253 31.6384C17.3331 32.816 18.9349 33.6768 20.6863 34.1969C20.9357 34.271 21.2104 34.1299 21.2873 33.8712ZM35.68 27.1617L30.8861 23.0866C30.1759 22.4768 29.2227 22.7632 28.703 23.4456L27.1803 22.5664C27.7947 20.9107 26.7373 19.0562 24.9824 18.7579V16.9047C25.1371 16.8513 25.2872 16.7803 25.4293 16.69C26.042 16.3006 26.4077 15.6348 26.4077 14.9089V9.34217C26.4076 8.60212 25.8056 8 25.0654 8C24.4171 8 23.8619 8.4629 23.7452 9.10067L22.6131 15.2897C22.4979 15.919 22.8221 16.5482 23.4014 16.8198C23.5993 16.9126 23.8063 16.9722 24.0156 17.0007V18.7591C23.1839 18.9024 22.4648 19.3971 22.0359 20.1245C21.5832 20.8926 21.5318 21.7879 21.8181 22.5658L20.2117 23.4936C20.088 23.3863 19.9511 23.2917 19.8017 23.2138C19.1584 22.878 18.3988 22.8942 17.7701 23.2571L12.9493 26.0404C12.3128 26.4027 12.092 27.2398 12.458 27.8739C12.7848 28.44 13.4708 28.6821 14.0713 28.4669L19.9972 26.3528C20.5999 26.1379 20.9827 25.5425 20.9281 24.905C20.9095 24.6875 20.8579 24.4785 20.778 24.283L22.3003 23.4038C22.4747 23.6142 22.6818 23.8024 22.9199 23.9598L22.4755 32.734C22.4611 33.0094 22.6824 33.2418 22.9587 33.2418C23.2144 33.2418 23.4279 33.0412 23.441 32.7829L23.8674 24.3635C24.0749 24.4103 24.2848 24.4347 24.494 24.4347C24.7088 24.4347 24.9222 24.4091 25.1305 24.3618L25.9241 40.0332H23.0739L23.3261 35.0542C23.3396 34.7876 23.1344 34.5605 22.8678 34.547C22.6013 34.5324 22.3741 34.7387 22.3606 35.0053L22.1059 40.0332H16.4651C16.198 40.0332 15.9817 40.2496 15.9817 40.5166C15.9817 40.7836 16.198 41 16.4651 41H32.5325C32.7995 41 33.0159 40.7836 33.0159 40.5166C33.0159 40.2496 32.7995 40.0332 32.5325 40.0332H26.8922L26.0781 23.9584C26.3069 23.8073 26.5155 23.6212 26.6964 23.4033L28.3027 24.3308C28.1308 25.2052 28.5338 26.1133 29.3187 26.5633L34.1396 29.3467C34.7734 29.7134 35.5989 29.5034 35.973 28.8554C36.2972 28.2939 36.1739 27.5816 35.68 27.1617ZM19.6724 25.4423L13.7464 27.5564C13.5756 27.6175 13.386 27.5475 13.2953 27.3905C13.1932 27.2137 13.2553 26.9789 13.4327 26.8777L18.2536 24.0943C18.5998 23.8945 19.001 23.8864 19.3545 24.0709C19.7084 24.2556 19.9309 24.5896 19.9649 24.9874C19.982 25.1876 19.8617 25.3748 19.6724 25.4423ZM23.8118 15.9444C23.6297 15.8591 23.5279 15.6614 23.5641 15.4637L24.6962 9.27469C24.7288 9.09628 24.8841 8.96686 25.0654 8.96686C25.2725 8.96686 25.4408 9.13528 25.4408 9.34224V14.9089C25.4408 15.3081 25.2476 15.6599 24.9106 15.8741C24.5739 16.0882 24.1733 16.114 23.8118 15.9444ZM26.1288 22.5373C25.599 23.4361 24.4368 23.7364 23.5378 23.2064C22.6391 22.6766 22.3389 21.5143 22.8688 20.6154C23.2122 20.0329 23.8268 19.684 24.499 19.684C24.502 19.684 24.5048 19.6836 24.5077 19.6835C25.9034 19.6592 26.8665 21.286 26.1288 22.5373ZM35.1357 28.372C35.0322 28.5513 34.8023 28.6128 34.6229 28.5094L29.802 25.726C29.08 25.3173 29.0428 24.2609 29.7198 23.7974C29.8854 23.684 30.1068 23.693 30.26 23.8232L35.0537 27.8982C35.1919 28.0157 35.2264 28.2149 35.1357 28.372ZM24.4988 21.093C24.2319 21.093 24.0154 21.3094 24.0154 21.5764C24.0154 21.8434 24.2319 22.0598 24.4988 22.0598C24.7658 22.0598 24.9822 21.8434 24.9822 21.5764C24.9822 21.3094 24.7658 21.093 24.4988 21.093ZM32.4525 30.8967C31.1454 31.9896 29.6597 32.7881 28.0365 33.2701C27.7805 33.3461 27.6347 33.6152 27.7107 33.8712C27.7875 34.1297 28.0613 34.2713 28.3116 34.1969C30.0619 33.6771 31.6638 32.8163 33.0725 31.6384C33.2773 31.4672 33.3046 31.1623 33.1333 30.9576C32.9622 30.7527 32.6573 30.7255 32.4525 30.8967ZM35.5542 13.8454C34.0733 11.6751 32.011 10.0006 29.5899 9.00328C29.3432 8.90151 29.0605 9.01926 28.9589 9.26612C28.8572 9.51297 28.9748 9.79554 29.2217 9.89724C31.4678 10.8225 33.3814 12.3762 34.7555 14.3903C36.1625 16.4525 36.9062 18.8674 36.9062 21.3741C36.9062 22.393 36.7826 23.4054 36.539 24.3832C36.4744 24.6422 36.6321 24.9046 36.8912 24.9692C37.1436 25.0321 37.4118 24.8789 37.4771 24.617C37.7398 23.5629 37.873 22.4718 37.873 21.3742C37.873 18.6721 37.0713 16.0688 35.5542 13.8454Z" fill="#6F6F6F"/>
</g>
<defs>
<clipPath id="clip0">
<rect width="33" height="33" fill="white" transform="translate(8 8)"/>
</clipPath>
</defs>
</svg>
