<svg width="48" height="48" viewBox="0 0 48 48" fill="none" xmlns="http://www.w3.org/2000/svg">
<rect width="47.7968" height="47.7968" rx="7.70916" fill="#42B0FF"/>
<path d="M37.5752 38.1504H34.1484V32.338C36.3077 32.0988 38 30.057 38 27.5812C38 25.1463 36.3627 23.1322 34.2544 22.8389C34.6753 22.311 34.9629 21.6764 35.0732 20.9869C35.1101 20.7552 34.9523 20.5374 34.7207 20.5003C34.4882 20.4637 34.2711 20.6211 34.2341 20.8528C34.0537 21.9821 33.2647 22.921 32.2027 23.3057C31.949 23.3976 31.76 23.6186 31.7092 23.8822C31.6302 24.2913 31.3426 25.2923 30.3797 25.7532C29.5489 26.1508 28.7338 25.9071 28.4225 25.784C27.8983 25.5759 27.5473 25.236 27.3298 24.9553V23.1196L29.1856 21.2638C29.3515 21.0979 29.3515 20.829 29.1856 20.6631C29.0197 20.4973 28.7507 20.4972 28.5849 20.6631L27.3299 21.918V19.1054C27.3299 18.8708 27.1397 18.6806 26.9051 18.6806C26.6704 18.6806 26.4803 18.8708 26.4803 19.1054V21.1028L25.2253 19.8478C25.0593 19.6819 24.7904 19.6819 24.6245 19.8478C24.4586 20.0137 24.4586 20.2827 24.6245 20.4486L26.4803 22.3044V24.9556C26.262 25.2367 25.9105 25.5765 25.3881 25.7839C25.0762 25.9071 24.2612 26.1509 23.4305 25.7533C23.0282 25.5605 22.7037 25.2537 22.4625 24.8431C22.5364 22.9655 21.9935 20.2214 21.1863 17.5918C21.2964 17.5323 21.4099 17.4786 21.5264 17.4325C21.9048 17.2838 22.1348 16.9004 22.0862 16.5014C22.0772 16.4255 22.0728 16.3521 22.0728 16.277C22.0728 15.415 22.6565 14.6685 23.4923 14.4617C23.8944 14.3622 24.1753 14.0011 24.1753 13.5792C24.1753 12.0742 25.4 10.8497 26.9053 10.8497C28.4103 10.8497 29.6348 12.0742 29.6348 13.5838C29.6348 14.0012 29.9156 14.3622 30.3178 14.4618C31.2342 14.6886 31.8377 15.5657 31.724 16.5004C31.6754 16.9001 31.9054 17.2833 32.2835 17.4324C33.0787 17.7454 33.7198 18.3786 34.0426 19.1697C34.1324 19.3895 34.3837 19.4893 34.5964 19.4025C34.8137 19.3139 34.9179 19.066 34.8293 18.8487C34.4192 17.8438 33.6047 17.0395 32.595 16.642C32.578 16.6353 32.5656 16.6178 32.5675 16.6023C32.7379 15.2299 31.8412 13.9643 30.522 13.637C30.5006 13.6317 30.4845 13.6088 30.4845 13.5792C30.4844 11.6056 28.8788 10 26.9052 10C24.9314 10 23.3255 11.6056 23.3255 13.5837C23.3255 13.6087 23.3095 13.6316 23.2882 13.6369C22.0723 13.9377 21.223 15.0233 21.223 16.2769C21.223 16.3844 21.2296 16.4937 21.2426 16.6031C21.2514 16.6766 20.981 16.7377 20.9218 16.7731C20.8161 16.4602 20.7068 16.1525 20.5941 15.8532C18.7725 11.0155 16.9461 10 15.7347 10C13.6207 10 12.004 12.9787 11.02 15.4775C10.9341 15.6958 11.0413 15.9425 11.2596 16.0284C11.4778 16.1145 11.7246 16.0071 11.8106 15.7888C13.0466 12.6499 14.4769 10.8496 15.7347 10.8496C17.0486 10.8496 18.53 12.7825 19.799 16.1526C20.9944 19.3274 21.6199 22.7563 21.6199 24.5027C21.6199 27.9969 19.207 30.868 16.1595 31.1141V27.6667C16.1595 27.6665 16.1595 27.6663 16.1595 27.6661V26.0418L17.9325 24.2689C18.0984 24.1029 18.0984 23.834 17.9325 23.6681C17.7665 23.5023 17.4976 23.5023 17.3317 23.6681L16.1596 24.8402V23.0639C16.1596 22.8292 15.9695 22.6391 15.7348 22.6391C15.5001 22.6391 15.31 22.8292 15.31 23.0639V25.8655V25.8661V26.6408L14.1379 25.4687C13.9719 25.3028 13.703 25.3028 13.5371 25.4687C13.3712 25.6346 13.3712 25.9036 13.5371 26.0695L15.31 27.8424V31.1141C12.2624 30.868 9.84961 27.9969 9.84961 24.5027C9.84961 22.8612 10.3776 20.0947 11.1634 17.6188C11.2344 17.3952 11.1106 17.1564 10.887 17.0854C10.6637 17.0146 10.4246 17.1382 10.3536 17.3618C9.53135 19.9526 9 22.7555 9 24.5027C9 28.4678 11.7936 31.7215 15.3099 31.9658V38.1504H9.4248C9.19014 38.1504 9 38.3405 9 38.5752C9 38.8099 9.19014 39 9.4248 39H37.5752C37.8099 39 38 38.8099 38 38.5752C38 38.3405 37.8099 38.1504 37.5752 38.1504ZM26.4802 38.1504H16.1595V31.9658C19.2138 31.7536 21.7223 29.2708 22.329 26.0237C22.5471 26.2236 22.7922 26.3895 23.0634 26.5195C24.1958 27.0616 25.2847 26.738 25.7009 26.5736C26.0029 26.4537 26.2604 26.3007 26.4802 26.1361V38.1504ZM33.2988 38.1504H27.3298V26.1363C27.5495 26.3008 27.807 26.4538 28.1096 26.5738C28.3526 26.6699 28.8259 26.8205 29.4035 26.8205C29.4361 26.8205 29.4473 27.3247 29.4473 27.5813C29.4473 30.057 31.1395 32.0988 33.2988 32.338V38.1504ZM33.7236 27.288C33.489 27.288 33.2988 27.4782 33.2988 27.7128V30.048V30.0485V31.4808C31.6092 31.2399 30.2969 29.5836 30.2969 27.5812C30.2969 27.2698 30.3291 26.962 30.3918 26.6628C31.6925 26.2272 32.4394 24.7025 32.5342 24.089C32.8223 23.981 33.0932 23.8414 33.3434 23.675C35.4063 23.4092 37.1504 25.2824 37.1504 27.5812C37.1504 29.5836 35.8381 31.2399 34.1484 31.4808V30.2242L35.4916 28.881C35.6575 28.7151 35.6575 28.4462 35.4916 28.2803C35.3257 28.1144 35.0567 28.1144 34.8908 28.2803L34.1484 29.0226V27.7128C34.1484 27.4782 33.9583 27.288 33.7236 27.288Z" fill="#FAFAFA"/>
</svg>
