<svg width="48" height="48" viewBox="0 0 48 48" fill="none" xmlns="http://www.w3.org/2000/svg">
<rect width="47.7968" height="47.7968" rx="7.70916" fill="#E3E3E3"/>
<path d="M18.1914 18.7694C18.1914 20.3423 18.8064 22.1577 19.8364 23.6256C21.0058 25.292 22.4844 26.2097 23.9998 26.2097C25.5152 26.2097 26.9938 25.292 28.1631 23.6255C29.1932 22.1577 29.8082 20.3422 29.8082 18.7694C29.8082 15.5666 27.2026 12.961 23.9998 12.961C20.7971 12.961 18.1914 15.5666 18.1914 18.7694ZM23.9998 13.9697C26.6463 13.9697 28.7994 16.1229 28.7994 18.7694C28.7994 20.1223 28.2393 21.761 27.3375 23.0462C26.3765 24.4156 25.16 25.201 23.9998 25.201C22.8397 25.201 21.6231 24.4156 20.6622 23.0462C19.7604 21.7611 19.2001 20.1223 19.2001 18.7694C19.2001 16.1228 21.3533 13.9697 23.9998 13.9697Z" fill="#6F6F6F"/>
<path d="M28.3343 25.0835C28.1418 24.9918 27.9124 25.0311 27.7613 25.1817C26.6333 26.3066 25.3325 26.9012 23.9998 26.9012C22.6669 26.9012 21.3665 26.3066 20.2391 25.1819C20.0881 25.0311 19.8586 24.9918 19.6661 25.0835C17.9678 25.8919 16.5305 27.1567 15.5094 28.7409C14.4606 30.3683 13.9062 32.2565 13.9062 34.2011V34.2093C13.9062 34.3516 13.9664 34.4873 14.0717 34.5829C16.7948 37.0524 20.3206 38.4123 23.9998 38.4123C27.679 38.4123 31.2048 37.0523 33.9277 34.5829C34.0332 34.4873 34.0933 34.3516 34.0933 34.2093V34.2011C34.0933 32.2565 33.539 30.3683 32.4905 28.741C31.4697 27.1566 30.0325 25.8919 28.3343 25.0835ZM23.9999 37.4036C20.6468 37.4036 17.4308 36.1916 14.9176 33.9856C14.9568 32.3114 15.4526 30.6914 16.3574 29.2873C17.2142 27.9578 18.3965 26.8783 19.791 26.1485C21.0516 27.3022 22.5001 27.9099 23.9999 27.9099C25.4995 27.9099 26.9482 27.3023 28.2095 26.1485C29.6038 26.8783 30.786 27.9578 31.6427 29.2873C32.5473 30.6913 33.043 32.3113 33.0822 33.9856C30.5689 36.1916 27.3529 37.4036 23.9999 37.4036Z" fill="#6F6F6F"/>
<path d="M38.6032 25.4011C37.7135 24.0203 36.4609 22.9181 34.9809 22.2136C34.7885 22.1219 34.5589 22.1613 34.408 22.3118C33.4455 23.2715 32.3374 23.7789 31.2033 23.7789C30.5886 23.7789 29.9805 23.6306 29.3962 23.3382C29.147 23.2136 28.8441 23.3144 28.7195 23.5635C28.5948 23.8127 28.6957 24.1156 28.9448 24.2402C29.6706 24.6035 30.4305 24.7876 31.2034 24.7876C32.5036 24.7876 33.7591 24.2673 34.8542 23.2787C36.0313 23.904 37.0295 24.821 37.7553 25.9475C38.525 27.142 38.9494 28.5192 38.9885 29.9431C37.7428 31.0297 36.2614 31.8562 34.6907 32.3394C34.4244 32.4213 34.275 32.7035 34.3569 32.9698C34.4236 33.1866 34.6232 33.326 34.8388 33.326C34.8878 33.326 34.9379 33.3188 34.9872 33.3036C36.7699 32.7552 38.4461 31.7998 39.8346 30.5405C39.9401 30.4449 40.0002 30.3092 40.0002 30.1669V30.1598C40.0001 28.4649 39.517 26.8193 38.6032 25.4011Z" fill="#6F6F6F"/>
<path d="M16.7762 23.1539C17.3095 23.1539 17.8415 23.0238 18.3576 22.7673C18.6071 22.6434 18.7088 22.3407 18.5849 22.0912C18.4609 21.8417 18.1582 21.7401 17.9088 21.864C17.5334 22.0505 17.1524 22.1451 16.7762 22.1451C15.7984 22.1451 14.7698 21.4784 13.9542 20.316C13.1843 19.2186 12.706 17.8202 12.706 16.6667C12.706 14.4223 14.5319 12.5964 16.7762 12.5964C17.8355 12.5964 18.8387 13.0013 19.601 13.7367C19.8014 13.9301 20.1208 13.9245 20.3141 13.724C20.5076 13.5235 20.5018 13.2042 20.3014 13.0109C19.3501 12.0931 18.0981 11.5877 16.7762 11.5877C13.9756 11.5877 11.6973 13.8661 11.6973 16.6667C11.6973 18.0373 12.2324 19.6181 13.1285 20.8954C14.1503 22.3517 15.4458 23.1539 16.7762 23.1539Z" fill="#6F6F6F"/>
<path d="M12.1044 31.8739C10.9778 31.3882 9.93842 30.7326 9.01175 29.9234C9.05088 28.5037 9.47407 27.1306 10.2418 25.9395C10.9654 24.8166 11.9607 23.9023 13.1341 23.2787C14.2262 24.2647 15.4781 24.7835 16.7748 24.7835C17.554 24.7835 18.3195 24.5962 19.0498 24.2269C19.2983 24.1011 19.3979 23.7978 19.2722 23.5491C19.1465 23.3005 18.8431 23.201 18.5945 23.3267C18.0066 23.624 17.3944 23.7748 16.7748 23.7748C15.6443 23.7748 14.5397 23.2689 13.5803 22.3118C13.4293 22.1612 13.1998 22.1219 13.0073 22.2135C11.5309 22.9163 10.2815 24.0158 9.39385 25.393C8.48197 26.808 8 28.4495 8 30.1402V30.1471C8 30.2894 8.06012 30.4251 8.1655 30.5207C9.21652 31.4739 10.4074 32.2409 11.705 32.8002C11.7701 32.8283 11.8378 32.8416 11.9045 32.8416C12.0998 32.8416 12.2856 32.7275 12.3679 32.5368C12.4781 32.2809 12.3602 31.9842 12.1044 31.8739Z" fill="#6F6F6F"/>
<path d="M12.6987 32.6042C12.5191 33.0375 13.0034 33.4671 13.4126 33.2355C13.6304 33.1121 13.7276 32.8362 13.6297 32.6044C13.4678 32.1911 12.8645 32.2041 12.6987 32.6042Z" fill="#6F6F6F"/>
<path d="M13.6284 32.6043C13.6412 32.6346 13.6163 32.5734 13.6284 32.6043V32.6043Z" fill="#6F6F6F"/>
<path d="M28.3995 13.7368C29.1618 13.0014 30.165 12.5964 31.2243 12.5964C33.4686 12.5964 35.2945 14.4223 35.2945 16.6667C35.2945 17.8203 34.8163 19.2186 34.0462 20.316C33.2306 21.4785 32.202 22.1452 31.2242 22.1452C30.8481 22.1452 30.4671 22.0506 30.0917 21.8641C29.8422 21.7401 29.5395 21.8418 29.4155 22.0913C29.2916 22.3407 29.3933 22.6434 29.6428 22.7674C30.1589 23.0239 30.691 23.1539 31.2242 23.1539C32.5546 23.1539 33.8501 22.3519 34.872 20.8954C35.7682 19.6181 36.3032 18.0373 36.3032 16.6668C36.3032 13.8662 34.0248 11.5878 31.2242 11.5878C29.9023 11.5878 28.6505 12.0932 27.6991 13.0109C27.4986 13.2043 27.4929 13.5236 27.6863 13.724C27.8796 13.9245 28.1989 13.9302 28.3995 13.7368Z" fill="#6F6F6F"/>
</svg>
