<svg width="48" height="48" viewBox="0 0 48 48" fill="none" xmlns="http://www.w3.org/2000/svg">
<rect width="47.7968" height="47.7968" rx="7.70916" fill="#42B0FF"/>
<g clip-path="url(#clip0)">
<path d="M11.127 17.2652C11.5417 16.6553 12.2899 16.3529 13.234 16.4142C14.0706 16.4683 14.9866 16.8079 15.8132 17.3703C16.146 17.5966 16.4526 17.8522 16.7231 18.1266C16.1681 16.9216 15.9253 15.7078 16.0191 14.5702C16.1171 13.3824 16.5839 12.3154 17.3 11.6429C18.0179 10.9688 18.8939 10.8148 19.532 11.2507C20.4239 11.86 20.3638 12.7319 20.3055 13.5752C20.2498 14.382 20.1875 15.2861 20.7474 16.4352C21.5802 16.2349 22.5117 16.1331 23.5248 16.1331C24.5213 16.1331 25.4381 16.2317 26.2581 16.4255C26.8133 15.2807 26.751 14.3794 26.6954 13.575C26.6372 12.7318 26.5769 11.86 27.469 11.2505C28.1158 10.809 28.9702 10.9584 29.6984 11.6408C30.4135 12.311 30.8809 13.3748 30.9807 14.5598C31.0768 15.7002 30.8344 16.9181 30.2776 18.1269C30.5482 17.8525 30.8547 17.5967 31.1875 17.3703C32.0141 16.8079 32.9301 16.4683 33.7667 16.4141C34.7107 16.3526 35.4589 16.6552 35.8736 17.265C36.2885 17.8746 36.2948 18.6815 35.8915 19.5371C35.5339 20.2956 34.8818 21.0228 34.0554 21.5848C33.2654 22.1226 32.4118 22.4499 31.6226 22.5296C31.8099 23.7136 31.8364 25.0524 31.7034 26.5989C31.5851 27.974 31.3086 29.2915 30.8818 30.5186C31.0217 30.9853 31.0925 31.5135 31.0925 32.092C31.0925 35.3497 28.8839 38 26.1691 38C25.2071 38 24.2935 37.6772 23.5003 37.0613C22.7072 37.6772 21.7935 38 20.8316 38C18.1168 38 15.9081 35.3497 15.9081 32.092C15.9081 31.5181 15.9776 30.9948 16.1147 30.5331C15.6902 29.3039 15.4145 27.9816 15.2955 26.5988C15.1649 25.0801 15.1954 23.7162 15.3845 22.5313C14.5955 22.4535 13.7399 22.1255 12.9455 21.585C12.1189 21.0229 11.4666 20.2956 11.1091 19.5371C10.7058 18.6816 10.7122 17.8746 11.127 17.2652ZM19.1903 13.4983C19.2496 12.6398 19.2289 12.3975 18.9014 12.1737C18.6882 12.0281 18.3276 12.2113 18.0652 12.4578C17.556 12.936 17.2074 13.7601 17.1331 14.6621C17.0506 15.6633 17.2899 16.7517 17.8259 17.8425C18.3605 17.4005 18.9771 17.042 19.6703 16.7711C19.0576 15.4222 19.1331 14.3265 19.1903 13.4983ZM29.8668 14.6537C29.7911 13.7542 29.4423 12.9328 28.9341 12.4565C28.672 12.2109 28.3123 12.0284 28.0993 12.1736C27.7719 12.3974 27.7512 12.6395 27.8106 13.4979C27.8676 14.323 27.9429 15.4143 27.3368 16.757C28.0324 17.0257 28.6502 17.3823 29.1846 17.8224C29.7152 16.7352 29.9509 15.6509 29.8668 14.6537ZM31.3905 21.4268C32.0191 21.3914 32.7532 21.1192 33.4267 20.6606C34.0809 20.2158 34.6109 19.6325 34.8805 19.0604C35.105 18.5843 35.1302 18.1591 34.9496 17.8937C34.7691 17.6283 34.3644 17.4955 33.839 17.5295C33.208 17.5704 32.4708 17.8491 31.8164 18.2944C31.3141 18.6361 30.8905 19.0524 30.5965 19.4882C30.9319 20.0609 31.1977 20.7104 31.3905 21.4268ZM16.4093 26.503C16.4884 27.4212 16.6409 28.3096 16.8643 29.1571C17.1792 28.8029 17.5701 28.5155 18.0357 28.2985C18.3155 28.1681 18.648 28.2893 18.7784 28.569C18.9088 28.8489 18.7877 29.1813 18.5078 29.3117C17.8762 29.6061 17.4588 30.0637 17.2316 30.7114C17.0952 31.0991 17.026 31.5636 17.026 32.092C17.026 34.7334 18.7332 36.8822 20.8317 36.8822C21.6616 36.8822 22.4515 36.5493 23.1158 35.9195C23.3314 35.7151 23.6693 35.7151 23.8849 35.9195C24.5493 36.5494 25.3391 36.8822 26.1691 36.8822C28.2675 36.8822 29.9748 34.7334 29.9748 32.092C29.9748 31.5644 29.9053 31.0996 29.7689 30.7101C29.7648 30.6992 29.7605 30.6885 29.757 30.6773C29.3154 29.4678 28.1746 28.904 26.1692 28.904C25.7255 28.904 25.3179 28.933 24.9573 28.9902C23.9906 29.1432 23.0103 29.1432 22.0433 28.9902C21.8152 28.954 21.567 28.9289 21.3058 28.9156C20.9976 28.9 20.7603 28.6373 20.776 28.3291C20.7917 28.0208 21.0553 27.7832 21.3625 27.7992C21.6633 27.8145 21.9513 27.8438 22.2183 27.8861C23.0691 28.0207 23.9319 28.0207 24.7824 27.8861C25.2005 27.8198 25.667 27.7861 26.1692 27.7861C27.307 27.7861 28.2192 27.9526 28.9578 28.295C29.4244 28.5114 29.8162 28.7982 30.1322 29.1521C30.3576 28.3052 30.5111 27.4184 30.5898 26.503C30.7369 24.7934 30.6744 23.3104 30.4038 22.0943C30.2075 21.2065 29.8948 20.4347 29.4735 19.7986C29.3103 19.5502 29.1267 19.318 28.9266 19.1073C28.2791 18.4201 27.4246 17.9179 26.3869 17.6146C25.5612 17.3732 24.5983 17.2509 23.5249 17.2509C22.436 17.2509 21.4595 17.3768 20.6226 17.625C19.5886 17.9319 18.735 18.4372 18.0839 19.1284C18.0064 19.2101 17.9313 19.2952 17.8606 19.3814C17.7458 19.5213 17.6372 19.6686 17.537 19.8205C17.1187 20.4502 16.8051 21.2158 16.6052 22.096C16.3287 23.316 16.2628 24.7987 16.4093 26.503ZM12.1203 19.0605C12.39 19.6326 12.9199 20.2158 13.5744 20.6609C14.2544 21.1237 14.992 21.3964 15.6208 21.4283C15.816 20.7174 16.0825 20.0732 16.4162 19.5059C16.1213 19.0632 15.6936 18.6407 15.1846 18.2946C14.5301 17.8493 13.7929 17.5706 13.1619 17.5297C12.6364 17.4958 12.2318 17.6285 12.0513 17.894C11.8706 18.1591 11.8958 18.5844 12.1203 19.0605Z" fill="#FAFAFA"/>
<path d="M19.6662 27.8546C19.7245 27.8472 19.7832 27.8405 19.8423 27.8343C20.1496 27.8022 20.4241 28.0254 20.4559 28.3324C20.4879 28.6394 20.2648 28.9142 19.9579 28.9461C19.9072 28.9513 19.8567 28.9571 19.8068 28.9635C19.7829 28.9665 19.7592 28.968 19.7358 28.968C19.4584 28.968 19.2177 28.7616 19.182 28.4793C19.1433 28.173 19.3601 27.8934 19.6662 27.8546Z" fill="#FAFAFA"/>
<path d="M26.4118 30.2927C27.378 30.2927 28.1641 31.0787 28.1641 32.0449C28.1641 33.0111 27.378 33.7972 26.4118 33.7972C25.4455 33.7972 24.6596 33.0112 24.6596 32.0449C24.6596 31.0787 25.4456 30.2927 26.4118 30.2927ZM26.4118 32.6794C26.7616 32.6794 27.0462 32.3948 27.0462 32.0449C27.0462 31.6951 26.7616 31.4105 26.4118 31.4105C26.0619 31.4105 25.7774 31.6951 25.7774 32.0449C25.7774 32.3948 26.062 32.6794 26.4118 32.6794Z" fill="#FAFAFA"/>
<path d="M20.5895 30.2927C21.5557 30.2927 22.3418 31.0787 22.3418 32.0449C22.3418 33.0111 21.5557 33.7972 20.5895 33.7972C19.6232 33.7972 18.8373 33.0112 18.8373 32.0449C18.8373 31.0787 19.6233 30.2927 20.5895 30.2927ZM20.5895 32.6794C20.9393 32.6794 21.2239 32.3948 21.2239 32.0449C21.2239 31.6951 20.9393 31.4105 20.5895 31.4105C20.2397 31.4105 19.9551 31.6951 19.9551 32.0449C19.9551 32.3948 20.2397 32.6794 20.5895 32.6794Z" fill="#FAFAFA"/>
<path d="M27.7204 23.3361C28.0291 23.3361 28.2793 23.5863 28.2793 23.8951V24.2365C28.2793 24.5452 28.0291 24.7954 27.7204 24.7954C27.4117 24.7954 27.1614 24.5452 27.1614 24.2365V23.8951C27.1615 23.5863 27.4117 23.3361 27.7204 23.3361Z" fill="#FAFAFA"/>
<path d="M19.279 23.3361C19.5876 23.3361 19.8379 23.5863 19.8379 23.8951V24.2365C19.8379 24.5452 19.5876 24.7954 19.279 24.7954C18.9703 24.7954 18.72 24.5452 18.72 24.2365V23.8951C18.72 23.5863 18.9703 23.3361 19.279 23.3361Z" fill="#FAFAFA"/>
</g>
<defs>
<clipPath id="clip0">
<rect width="27" height="27" fill="white" transform="matrix(-1 0 0 1 37 11)"/>
</clipPath>
</defs>
</svg>
