<svg width="48" height="48" viewBox="0 0 48 48" fill="none" xmlns="http://www.w3.org/2000/svg">
<rect width="47.7968" height="47.7968" rx="7.70916" fill="#E3E3E3"/>
<g clip-path="url(#clip0)">
<path d="M23.9774 29.0537C24.0625 29.2081 24.225 29.3039 24.4013 29.3036C24.5721 29.3034 24.7301 29.2129 24.8169 29.0657C24.9036 28.9185 24.9062 28.7364 24.8237 28.5868C23.8923 26.9178 22.6739 25.4261 21.2243 24.1803C21.094 24.067 20.9131 24.0319 20.7498 24.0882C20.5865 24.1444 20.4656 24.2835 20.4327 24.4531C20.3998 24.6226 20.4598 24.7969 20.5902 24.9101C21.9541 26.0815 23.1007 27.4841 23.9774 29.0537Z" fill="#6F6F6F"/>
<path d="M10.7578 34.6203C10.7563 36.2022 11.852 37.5735 13.3952 37.9212C14.9384 38.2689 16.5163 37.4999 17.1934 36.0703H18.0078V37.037C18.0078 37.5708 18.4406 38.0036 18.9745 38.0036H27.6745C28.2084 38.0036 28.6411 37.5708 28.6411 37.037V36.0703H29.4556C30.1742 37.5854 31.8943 38.3455 33.4985 37.8568C35.1026 37.368 36.1067 35.778 35.8585 34.1196C35.6103 32.4611 34.1847 31.2347 32.5078 31.237H28.6059C30.5603 30.4702 32.2065 29.0791 33.2884 27.2799C33.6076 26.7145 33.5085 26.0054 33.0467 25.5491C31.1586 23.7616 28.7858 22.5697 26.2245 22.1223V20.6036C27.2922 20.6036 28.1578 19.7381 28.1578 18.6703V16.737H28.6411C28.9894 16.737 29.3108 16.5496 29.4823 16.2466C29.6539 15.9435 29.6492 15.5716 29.4701 15.2729C29.4605 15.257 29.4501 15.2417 29.4386 15.227L28.1549 13.5586C28.1189 12.3214 27.5895 11.1501 26.6846 10.3057C25.6926 9.37871 24.3573 8.91023 23.0035 9.01427C20.4267 9.2291 18.4555 11.4013 18.4911 13.9868V17.2203C18.4929 18.5255 19.2453 19.7132 20.4245 20.2726V22.1203C17.866 22.5678 15.4958 23.7584 13.6095 25.5438C13.1425 26.0008 13.041 26.7147 13.362 27.2838C14.4438 29.0815 16.0893 30.4713 18.0426 31.237H14.1411C12.2735 31.2391 10.7599 32.7526 10.7578 34.6203ZM27.6745 37.037H18.9745V36.0703H27.6745V37.037ZM34.9245 34.6203C34.9245 35.955 33.8425 37.037 32.5078 37.037C31.1731 37.037 30.0911 35.955 30.0911 34.6203C30.0911 34.3534 30.3075 34.137 30.5745 34.137C30.8414 34.137 31.0578 34.3534 31.0578 34.6203C31.0578 34.8872 31.2742 35.1036 31.5411 35.1036C31.8081 35.1036 32.0245 34.8872 32.0245 34.6203C32.0245 33.8195 31.3753 33.1703 30.5745 33.1703C29.7737 33.1703 29.1245 33.8195 29.1245 34.6203C29.1258 34.7821 29.1388 34.9436 29.1631 35.1036H17.4858C17.5102 34.9436 17.5231 34.7821 17.5245 34.6203C17.5245 33.8195 16.8753 33.1703 16.0745 33.1703C15.2737 33.1703 14.6245 33.8195 14.6245 34.6203C14.6245 34.8872 14.8409 35.1036 15.1078 35.1036C15.3748 35.1036 15.5911 34.8872 15.5911 34.6203C15.5911 34.3534 15.8075 34.137 16.0745 34.137C16.3414 34.137 16.5578 34.3534 16.5578 34.6203C16.5578 35.955 15.4758 37.037 14.1411 37.037C12.8065 37.037 11.7245 35.955 11.7245 34.6203C11.7245 33.2856 12.8065 32.2036 14.1411 32.2036H32.5078C33.8418 32.2052 34.9229 33.2863 34.9245 34.6203ZM23.0664 9.97948C24.1528 9.89548 25.2249 10.2694 26.0234 11.0109C26.2201 11.196 26.3959 11.402 26.5478 11.6252C26.1868 11.6827 25.7958 11.7514 25.3767 11.8355C25.3821 11.6107 25.2309 11.4123 25.0128 11.3578C24.7947 11.3033 24.568 11.4074 24.4671 11.6083L24.2196 12.0916C23.9649 12.154 23.7053 12.2231 23.4434 12.2966C23.4259 12.1401 23.3319 12.0025 23.1925 11.9292C22.9548 11.808 22.6638 11.9023 22.5424 12.14L22.279 12.6567C22.0161 12.7461 21.7541 12.8403 21.4936 12.9418C21.4523 12.8327 21.3723 12.7426 21.2689 12.6886C21.1547 12.6302 21.0219 12.6196 20.8999 12.6591C20.7779 12.6986 20.6766 12.785 20.6183 12.8993L20.3409 13.444C20.0389 13.5909 19.7456 13.7485 19.4607 13.9167C19.4585 11.8674 21.0248 10.1571 23.0664 9.97948ZM21.8745 20.6036C22.1414 20.6036 22.3578 20.3872 22.3578 20.1203C22.3578 19.8534 22.1414 19.637 21.8745 19.637C20.5405 19.6354 19.4594 18.5543 19.4578 17.2203V15.0627C19.8518 14.7996 20.2631 14.5633 20.6889 14.3556L21.1722 14.6006C21.2401 14.6348 21.3151 14.6527 21.3911 14.6528C21.5747 14.654 21.7428 14.5502 21.8241 14.3856C21.9053 14.2211 21.8855 14.0245 21.773 13.8795C22.042 13.7732 22.3129 13.6736 22.5855 13.5808L23.0959 13.8413C23.2101 13.8997 23.3429 13.9102 23.4649 13.8706C23.587 13.831 23.6882 13.7444 23.7464 13.6301C23.8099 13.5019 23.8124 13.3519 23.7532 13.2217C24 13.153 24.2417 13.0897 24.4782 13.0317L25.0186 13.3072C25.0862 13.3423 25.1613 13.3605 25.2375 13.3604C25.4194 13.3606 25.5861 13.2586 25.6686 13.0965C25.7207 12.9916 25.7324 12.8712 25.7015 12.7582C26.1935 12.6615 26.6353 12.5861 26.9968 12.5315C27.1257 12.9167 27.1913 13.3201 27.1911 13.7263C27.1912 13.833 27.2266 13.9366 27.2917 14.0211L28.6373 15.7703H27.6745C27.4075 15.7703 27.1911 15.9867 27.1911 16.2536V16.737H21.8745C21.6075 16.737 21.3911 16.5206 21.3911 16.2536V15.7703C21.3911 15.5034 21.1748 15.287 20.9078 15.287C20.6409 15.287 20.4245 15.5034 20.4245 15.7703V16.2536C20.4245 17.0544 21.0737 17.7036 21.8745 17.7036H27.1911V18.6703C27.1911 19.2042 26.7584 19.637 26.2245 19.637H23.8078C23.5409 19.637 23.3245 19.8534 23.3245 20.1203C23.3245 20.3872 23.5409 20.6036 23.8078 20.6036H25.2578V22.1218C25.2565 22.5897 25.5917 22.9908 26.0524 23.0725C28.4206 23.4842 30.6152 24.5837 32.3628 26.234C32.5157 26.3807 32.5513 26.6116 32.4498 26.7975C31.6761 28.0972 30.5622 29.1609 29.2284 29.874C26.9495 25.1649 22.57 22.7975 21.3911 22.2281V20.5654C21.5511 20.5897 21.7127 20.6024 21.8745 20.6036ZM20.8339 23.0348C21.6072 23.3997 26.121 25.6864 28.3574 30.2916C26.7771 30.941 25.0812 31.2626 23.3728 31.237C22.2855 28.3081 20.3695 25.7588 17.8585 23.9C18.8123 23.4942 19.8112 23.204 20.8339 23.0353V23.0348ZM14.1996 26.7995C14.0978 26.6106 14.1352 26.3768 14.291 26.2291C15.0509 25.4843 15.9179 24.8573 16.8633 24.3688C19.3137 26.066 21.2154 28.4416 22.3351 31.2041C17.1209 30.8817 14.9227 28.0571 14.1996 26.7995Z" fill="#6F6F6F"/>
<path d="M20.4228 34.137H26.2228C26.4897 34.137 26.7061 33.9206 26.7061 33.6536C26.7061 33.3867 26.4897 33.1703 26.2228 33.1703H20.4228C20.1558 33.1703 19.9395 33.3867 19.9395 33.6536C19.9395 33.9206 20.1558 34.137 20.4228 34.137Z" fill="#6F6F6F"/>
</g>
<defs>
<clipPath id="clip0">
<rect width="29" height="29" fill="white" transform="translate(9 9)"/>
</clipPath>
</defs>
</svg>
